<?xml version="1.0" encoding="UTF-8" standalone="no"?>
<!-- Generator: Adobe Illustrator 23.1.0, SVG Export Plug-In . SVG Version: 6.00 Build 0)  -->

<svg
   xmlns:dc="http://purl.org/dc/elements/1.1/"
   xmlns:cc="http://creativecommons.org/ns#"
   xmlns:rdf="http://www.w3.org/1999/02/22-rdf-syntax-ns#"
   xmlns:svg="http://www.w3.org/2000/svg"
   xmlns="http://www.w3.org/2000/svg"
   xmlns:sodipodi="http://sodipodi.sourceforge.net/DTD/sodipodi-0.dtd"
   xmlns:inkscape="http://www.inkscape.org/namespaces/inkscape"
   version="1.1"
   id="Layer_1"
   x="0px"
   y="0px"
   viewBox="280 50 1700 485"
   xml:space="preserve"
   sodipodi:docname="title-logo.svg"
   width="1700"
   height="485"
   inkscape:version="0.92.4 (5da689c313, 2019-01-14)"><metadata
   id="metadata317"><rdf:RDF><cc:Work
       rdf:about=""><dc:format>image/svg+xml</dc:format><dc:type
         rdf:resource="http://purl.org/dc/dcmitype/StillImage" /><dc:title /></cc:Work></rdf:RDF></metadata><defs
   id="defs315" /><sodipodi:namedview
   pagecolor="#000000"
   bordercolor="#666666"
   borderopacity="1"
   objecttolerance="10"
   gridtolerance="10"
   guidetolerance="10"
   inkscape:pageopacity="0"
   inkscape:pageshadow="2"
   inkscape:window-width="2256"
   inkscape:window-height="1440"
   id="namedview313"
   showgrid="false"
   inkscape:zoom="0.80736819"
   inkscape:cx="1182.5815"
   inkscape:cy="319.02855"
   inkscape:window-x="0"
   inkscape:window-y="27"
   inkscape:window-maximized="1"
   inkscape:current-layer="Layer_1" />
<style
   type="text/css"
   id="style182">
	.st0{fill:none;stroke:#00AAAA;stroke-width:6;stroke-linecap:round;stroke-linejoin:round;stroke-miterlimit:10;}
	.st1{fill:#F3BDCD;stroke:#F3BDCD;stroke-width:2;stroke-linecap:round;stroke-linejoin:round;stroke-miterlimit:10;}
	.st2{fill:none;stroke:#035E77;stroke-width:6;stroke-linecap:round;stroke-linejoin:round;stroke-miterlimit:10;}
	.st3{fill:#035E77;stroke:#035E77;stroke-width:2;stroke-linecap:round;stroke-linejoin:round;stroke-miterlimit:10;}
	.st4{fill:none;stroke:#F3BDCD;stroke-width:6;stroke-linecap:round;stroke-linejoin:round;stroke-miterlimit:10;}
	.st5{fill:none;stroke:#00A8D4;stroke-width:6;stroke-linecap:round;stroke-linejoin:round;stroke-miterlimit:10;}
	.st6{fill:#035E77;stroke:#035E77;stroke-width:6;stroke-linecap:round;stroke-linejoin:round;stroke-miterlimit:10;}
	.st7{fill:none;stroke:#FACAD3;stroke-width:4;stroke-linecap:round;stroke-linejoin:round;stroke-miterlimit:10;}
	.st8{fill:none;stroke:#00AAAA;stroke-width:6;stroke-miterlimit:10;}
	.st9{fill:none;stroke:#F3BDCD;stroke-width:4;stroke-linecap:round;stroke-linejoin:round;stroke-miterlimit:10;}
	.st10{fill:#00584E;stroke:#00AAAA;stroke-width:4;stroke-linecap:round;stroke-linejoin:round;stroke-miterlimit:10;}
	.st11{fill:#00584E;stroke:#00AAAA;stroke-width:6;stroke-linecap:round;stroke-linejoin:round;stroke-miterlimit:10;}
	.st12{fill:#FFFFFF;}
	.st13{fill:none;stroke:#FFFFFF;stroke-width:7;stroke-miterlimit:10;}
	.st14{fill:none;stroke:#00A2AA;stroke-width:6;stroke-linecap:round;stroke-linejoin:round;stroke-miterlimit:10;}
	.st15{fill:none;stroke:#F8C5D1;stroke-width:4;stroke-linecap:round;stroke-linejoin:round;stroke-miterlimit:10;}
</style>

































<g
   id="g383"
   transform="translate(-0.4379085,-0.640523)"><path
     style="fill:none;stroke:#00aaaa;stroke-width:6;stroke-linecap:round;stroke-linejoin:round;stroke-miterlimit:10"
     inkscape:connector-curvature="0"
     id="path184"
     d="m 495.2,252.8 c 0.4,-2.9 0.5,-6.5 0.4,-9.6 -0.1,-4.9 -0.4,-8.9 -0.4,-8.9 -0.5,-8.4 -3.6,-17.8 -7.2,-26 -5.1,-11.8 -11,-21.1 -11,-21.1 -7,-10.8 -15.1,-18.9 -23,-25.1"
     class="st0" /><polyline
     style="fill:none;stroke:#00aaaa;stroke-width:6;stroke-linecap:round;stroke-linejoin:round;stroke-miterlimit:10"
     transform="translate(6)"
     id="polyline186"
     points="341,143.8 341,112.5 405.3,112.5 415,112.5 "
     class="st0" /><path
     style="fill:none;stroke:#00aaaa;stroke-width:6;stroke-linecap:round;stroke-linejoin:round;stroke-miterlimit:10"
     inkscape:connector-curvature="0"
     id="path188"
     d="m 418.6,207.4 c 0,0 -32.6,9.7 -48.3,33.2"
     class="st0" /><circle
     style="fill:#f3bdcd;stroke:#f3bdcd;stroke-width:2;stroke-linecap:round;stroke-linejoin:round;stroke-miterlimit:10"
     id="circle190"
     r="17.9"
     cy="251.5"
     cx="381"
     class="st1" /><polyline
     style="fill:none;stroke:#035e77;stroke-width:6;stroke-linecap:round;stroke-linejoin:round;stroke-miterlimit:10"
     transform="translate(6)"
     id="polyline192"
     points="510.9,367.8 359.4,531.6 559.1,531.6 587.2,531.6 "
     class="st2" /><circle
     style="fill:#035e77;stroke:#035e77;stroke-width:2;stroke-linecap:round;stroke-linejoin:round;stroke-miterlimit:10"
     id="circle194"
     r="5.5999999"
     cy="251.5"
     cx="381"
     class="st3" /><path
     style="fill:none;stroke:#035e77;stroke-width:6;stroke-linecap:round;stroke-linejoin:round;stroke-miterlimit:10"
     inkscape:connector-curvature="0"
     id="path196"
     d="m 516.9,367.8 c 0,0 29,-32.6 16,-77.3 -13,-44.7 -58.3,-57.2 -58.3,-57.2 0,0 -54.7,-16 -90.9,26.4 0,0 -2.4,2.8 -2.6,3.6"
     class="st2" /><path
     style="fill:none;stroke:#035e77;stroke-width:6;stroke-linecap:round;stroke-linejoin:round;stroke-miterlimit:10"
     inkscape:connector-curvature="0"
     id="path198"
     d="m 369.5,285 c 0,0 3.2,-9.3 5.6,-13.1"
     class="st2" /><polyline
     style="fill:none;stroke:#00aaaa;stroke-width:6;stroke-linecap:round;stroke-linejoin:round;stroke-miterlimit:10"
     transform="translate(6)"
     id="polyline200"
     points="439.9,484.5 416.9,509.2 535,509.2 559.3,509.2 "
     class="st0" /><polyline
     style="fill:none;stroke:#f3bdcd;stroke-width:6;stroke-linecap:round;stroke-linejoin:round;stroke-miterlimit:10"
     transform="translate(6)"
     id="polyline202"
     points="510.8,442.6 468.3,485.2 526.3,485.2 540.9,485.2 "
     class="st4" /><path
     style="fill:none;stroke:#00a8d4;stroke-width:6;stroke-linecap:round;stroke-linejoin:round;stroke-miterlimit:10"
     inkscape:connector-curvature="0"
     id="path204"
     d="M 382.7,228"
     class="st5" /><path
     style="fill:none;stroke:#00aaaa;stroke-width:6;stroke-linecap:round;stroke-linejoin:round;stroke-miterlimit:10"
     inkscape:connector-curvature="0"
     id="path206"
     d="m 462,467.9 90.9,-100.1 c 22.8,-36.7 11.6,-77.3 11.6,-77.3 0,0 -4.6,-34.3 -40.6,-63.4 -36,-29.1 -79.9,-24.2 -79.9,-24.2 -2,-0.5 -12.1,1.3 -12.1,1.3 -10.6,1.5 -25,7.2 -25,7.2"
     class="st0" /><path
     style="fill:none;stroke:#00aaaa;stroke-width:6;stroke-linecap:round;stroke-linejoin:round;stroke-miterlimit:10"
     inkscape:connector-curvature="0"
     id="path208"
     d="m 396.2,293.3 c -0.2,0.1 -0.4,0.2 -0.5,0.2 -0.1,0 -0.2,0.1 -0.2,0.1 0,0 0,0 0,0 -0.6,0.2 -1.1,0.4 -1.7,0.5 -0.1,0 -0.2,0.1 -0.3,0.1 -0.1,0 -0.2,0.1 -0.2,0.1 -0.1,0 -0.2,0.1 -0.2,0.1 -3.8,1 -7.8,1.6 -11.9,1.6 -24.6,0 -44.5,-19.9 -44.5,-44.5 0,-24.6 19.7,-44.5 44.3,-44.5 8.4,0 16.2,2.3 22.9,6.3 8.1,4.9 14.6,12.3 18.2,21.1 2.2,5.2 3.4,11 3.4,17 0,3.1 -0.3,6.1 -0.9,9 0,0 0,0 0,0.1 -0.2,1.2 -0.6,2.4 -0.9,3.6 -0.4,1.3 -0.9,2.7 -1.4,4"
     class="st0" /><path
     style="fill:none;stroke:#00aaaa;stroke-width:6;stroke-linecap:round;stroke-linejoin:round;stroke-miterlimit:10"
     inkscape:connector-curvature="0"
     id="path210"
     d="m 284.7,317.1 c 0,0 36.4,57.4 107.6,49.8"
     class="st0" /><line
     style="fill:none;stroke:#f3bdcd;stroke-width:6;stroke-linecap:round;stroke-linejoin:round;stroke-miterlimit:10"
     id="line212"
     y2="58.400002"
     x2="453.10001"
     y1="58.400002"
     x1="345.89999"
     class="st4" /><line
     style="fill:none;stroke:#f3bdcd;stroke-width:6;stroke-linecap:round;stroke-linejoin:round;stroke-miterlimit:10"
     id="line214"
     y2="200.39999"
     x2="290.10001"
     y1="114"
     x1="290.10001"
     class="st4" /><line
     style="fill:none;stroke:#f3bdcd;stroke-width:6;stroke-linecap:round;stroke-linejoin:round;stroke-miterlimit:10"
     id="line216"
     y2="368.39999"
     x2="484.89999"
     y1="496"
     x1="364"
     class="st4" /><path
     style="fill:none;stroke:#035e77;stroke-width:6;stroke-linecap:round;stroke-linejoin:round;stroke-miterlimit:10"
     inkscape:connector-curvature="0"
     id="path218"
     d="M 453.5,84.3 H 318.7 V 198 c 0,0 25.4,-34.8 73.6,-28.2 48.2,6.6 64.6,49.4 64.6,49.4 0,0 16.9,32.6 -3.4,71.8 -20.3,39.2 -63.4,42.7 -63.4,42.7 0,0 -37,5.3 -64.2,-20.6 0,0 -5.7,-6.1 -7.2,-8.9"
     class="st2" /><circle
     style="fill:#035e77;stroke:#035e77;stroke-width:6;stroke-linecap:round;stroke-linejoin:round;stroke-miterlimit:10"
     id="circle220"
     r="18.1"
     cy="314.20001"
     cx="453.60001"
     class="st6" /><circle
     style="fill:none;stroke:#facad3;stroke-width:4;stroke-linecap:round;stroke-linejoin:round;stroke-miterlimit:10"
     id="circle222"
     r="10"
     cy="314.20001"
     cx="453.60001"
     class="st7" /><path
     style="fill:none;stroke:#00aaaa;stroke-width:6;stroke-linecap:round;stroke-linejoin:round;stroke-miterlimit:10"
     inkscape:connector-curvature="0"
     id="path224"
     d="m 347,143.8 c 0,0 19,-12.2 51.2,-7 32.2,5.2 54.2,23.7 54.2,23.7"
     class="st0" /><path
     style="fill:none;stroke:#00aaaa;stroke-width:6;stroke-miterlimit:10"
     inkscape:connector-curvature="0"
     id="path226"
     d="m 447.5,156.7 c 0,0 13.1,10.6 17.1,15"
     class="st8" /><path
     style="fill:none;stroke:#f3bdcd;stroke-width:4;stroke-linecap:round;stroke-linejoin:round;stroke-miterlimit:10"
     inkscape:connector-curvature="0"
     id="path228"
     d="m 464.6,359.3 c 0,0 23,-4.8 32,-25.8 9,-21 0.2,-38.2 0.2,-38.2"
     class="st9" /><path
     style="fill:none;stroke:#f3bdcd;stroke-width:4;stroke-linecap:round;stroke-linejoin:round;stroke-miterlimit:10"
     inkscape:connector-curvature="0"
     id="path230"
     d="m 449.9,360.9 c 0,0 -23.7,0.4 -37.1,-24.7"
     class="st9" /><path
     style="fill:none;stroke:#00aaaa;stroke-width:6;stroke-linecap:round;stroke-linejoin:round;stroke-miterlimit:10"
     inkscape:connector-curvature="0"
     id="path232"
     d="m 485,302 c 0,0 7.3,-15.9 9.1,-26.5"
     class="st0" /><circle
     style="fill:#00584e;stroke:#00aaaa;stroke-width:4;stroke-linecap:round;stroke-linejoin:round;stroke-miterlimit:10"
     id="circle234"
     r="6.3000002"
     cy="268"
     cx="377.10001"
     class="st10" /><circle
     style="fill:#00584e;stroke:#00aaaa;stroke-width:6;stroke-linecap:round;stroke-linejoin:round;stroke-miterlimit:10"
     id="circle236"
     r="7.8000002"
     cy="290.60001"
     cx="489.5"
     class="st11" /><line
     style="fill:none;stroke:#00aaaa;stroke-width:6;stroke-linecap:round;stroke-linejoin:round;stroke-miterlimit:10"
     id="line238"
     y2="112.5"
     x2="453.10001"
     y1="112.5"
     x1="411.29999"
     class="st0" /><g
     transform="translate(6)"
     id="g300">
	<g
   id="g250">
		<path
   style="fill:#ffffff"
   inkscape:connector-curvature="0"
   id="path240"
   d="m 349.6,385.6 c 0.8,0.8 0.6,1.7 0.3,2.6 -1.1,3.5 -2.4,6.9 -3.5,10.4 -0.5,1.6 -1.3,3.1 -0.7,4.9 0.1,0.2 -0.3,0.7 -0.5,0.7 -0.3,0 -0.8,-0.2 -0.9,-0.4 -0.2,-0.8 -0.4,-1.6 -0.2,-2.3 0.9,-3.4 2,-6.7 3.1,-10.1 0.4,-1.2 0.8,-2.3 1.3,-3.8 -15,8.6 -28.9,17.9 -42.2,28.5 0.7,-0.1 1.3,-0.2 2,-0.2 0.7,-0.1 1.4,-0.2 2.1,-0.3 5.1,-0.7 10.3,-1.5 15.4,-2 2.4,-0.2 4.9,0.1 7.2,0.5 2.4,0.4 4.2,1.8 5,4.3 3.5,-1 6.9,-2.1 10.4,-3.1 0.2,-0.1 0.4,-0.2 0.6,-0.2 0.4,0.1 0.8,0.3 1.2,0.4 -0.3,0.3 -0.5,0.8 -0.8,0.9 -3.1,1 -6.2,2 -9.3,2.8 -1.4,0.4 -2.2,1 -2.9,2.4 -1.3,3.1 -3.6,5.4 -6,7.7 -9.3,8.6 -19.6,15.7 -31.5,20.3 -1.9,0.7 -3.9,1.1 -5.9,1.3 -2.4,0.2 -3.4,-1.4 -2.7,-3.7 0.7,-2.3 2.2,-4.2 3.9,-5.8 5.5,-5.5 12.1,-9.6 18.9,-13.2 6.9,-3.6 14.1,-6.5 21.4,-8.9 0.4,-0.1 0.9,-0.3 1.4,-0.5 -0.3,-1.4 -1.2,-2.3 -2.4,-2.9 -2.4,-1.1 -4.9,-1.3 -7.4,-1 -7.4,0.8 -14.8,1.9 -22.2,2.9 -0.3,0 -0.6,0.1 -1,0.1 -0.4,-0.1 -0.8,-0.2 -1.2,-0.4 0.2,-0.4 0.3,-0.9 0.7,-1.1 5.5,-4.1 10.9,-8.3 16.5,-12.3 9.1,-6.5 18.5,-12.4 28.2,-17.9 0.3,-0.2 0.6,-0.4 0.9,-0.7 0.3,0.1 0.6,0.1 0.8,0.1 z m -13.2,35.2 c -0.6,0.1 -0.8,0.1 -1.1,0.2 -8.6,2.9 -16.9,6.3 -24.7,10.9 -5.4,3.2 -10.7,6.5 -14.9,11.2 -1.3,1.4 -2.2,3.1 -3.1,4.8 -0.6,1.1 0,1.8 1.3,1.9 0.4,0 0.9,0 1.3,-0.1 1.6,-0.5 3.3,-0.8 4.9,-1.5 8.5,-3.3 16.1,-8.2 23.3,-13.7 4.2,-3.2 8.3,-6.7 11.4,-11.1 0.5,-0.8 1,-1.6 1.6,-2.6 z"
   class="st12" />
		<path
   style="fill:#ffffff"
   inkscape:connector-curvature="0"
   id="path242"
   d="m 354.4,410 c -4.2,0 -8.2,0 -12.3,0 -4.6,0.1 -9.2,0.2 -13.8,0.3 -0.5,0 -1.3,-0.3 -1.3,-0.6 -0.1,-0.8 0.6,-0.9 1.2,-0.9 4.4,-0.1 8.9,-0.2 13.3,-0.3 4.3,-0.1 8.6,-0.1 12.8,-0.2 0.7,0 1,-0.3 1.4,-0.9 1.6,-2.9 3.2,-5.7 4.8,-8.6 0.2,-0.4 0.8,-0.5 1.2,-0.7 0,0.5 0.2,1.1 0,1.4 -1.5,2.8 -3.1,5.6 -4.8,8.6 1.4,0.1 2.6,0.2 3.7,0.2 2.9,0 5.8,0 8.8,0.1 0.4,0 1.1,0.4 1.1,0.6 0.1,0.8 -0.6,0.7 -1.2,0.7 -4,0 -8.1,0 -12.1,-0.1 -0.8,0 -1.3,0.2 -1.7,1 -7.6,14.8 -13.5,30.2 -17.7,46.3 -0.3,1.1 -0.5,2.2 -0.9,3.2 -0.1,0.4 -0.6,0.6 -0.9,0.9 -0.1,-0.4 -0.5,-0.9 -0.4,-1.3 2.5,-10.6 5.8,-20.9 10,-30.9 2.6,-6.2 5.6,-12.3 8.4,-18.4 0.1,0.1 0.2,0 0.4,-0.4 z"
   class="st12" />
		<path
   style="fill:#ffffff"
   inkscape:connector-curvature="0"
   id="path244"
   d="m 369.3,427.5 c -0.7,0.3 -1.3,0.6 -1.8,0.7 -2.9,0.9 -4.9,-0.8 -4.8,-3.8 0.1,-2.6 2.6,-5.5 5.1,-6 1.7,-0.3 3.1,0.3 4.3,1.8 0.7,-1.8 1.4,-3.4 2.1,-4.9 1.7,-3.8 3.4,-7.6 5.3,-11.4 0.6,-1.3 1.6,-2.4 2.6,-3.6 0.3,-0.3 1.1,-0.6 1.4,-0.4 0.4,0.2 0.8,1 0.7,1.4 -0.3,1.7 -0.6,3.5 -1.3,5 -2.9,6.2 -6.4,12.1 -10.4,17.6 -0.5,0.6 -0.9,1.3 -1.1,2.1 -1.5,4.1 -3,8.2 -4.5,12.3 -0.1,0.1 0,0.3 -0.1,0.4 -0.3,0.3 -0.6,0.6 -1,0.9 -0.1,-0.4 -0.4,-0.9 -0.3,-1.3 1,-3 2.1,-6 3.2,-9 0.1,-0.4 0.3,-1 0.6,-1.8 z m -3.2,-0.4 c 1.8,0 4,-2 5,-4 0.8,-1.8 -1.2,-3.6 -2.6,-3.4 -2.4,0.4 -4.6,3.1 -4.4,5.5 0.1,1.3 0.8,1.9 2,1.9 z m 8.3,-8.7 c 0.1,0.1 0.2,0.1 0.3,0.2 1.8,-3.1 3.6,-6.2 5.3,-9.3 1,-1.8 1.7,-3.7 2.5,-5.5 0.3,-0.6 0.3,-1.3 0.4,-2 -0.1,0 -0.3,-0.1 -0.4,-0.1 -3.5,5.2 -5.6,11.1 -8.1,16.7 z"
   class="st12" />
		<path
   style="fill:#ffffff"
   inkscape:connector-curvature="0"
   id="path246"
   d="m 377.2,427 c 2.3,-1.3 4.6,-2.6 6,-5 0.8,-1.5 2.2,-2.4 3.9,-2.8 2.2,-0.5 4,0.8 4.2,3.1 0.2,2.5 -1.4,5.1 -3.7,6 -2.3,1 -4.1,0 -5.3,-2.9 -0.9,0.7 -1.7,1.3 -2.5,1.9 -0.5,0.4 -1.1,0.8 -1.7,1 -1.3,0.6 -2.4,-0.2 -2,-1.5 0.5,-1.8 1.2,-3.5 1.9,-5.3 0.5,-1.1 1.1,-2.2 1.7,-3.3 0.2,-0.3 0.8,-0.5 1.1,-0.7 0,0.4 0.1,1 0,1.3 -1.1,2.5 -2.2,5 -3.3,7.5 -0.3,0.3 -0.3,0.5 -0.3,0.7 z m 12.6,-4.3 c 0,-1.7 -1.2,-2.6 -2.9,-2.1 -1.8,0.5 -2.8,1.8 -3.2,3.5 -0.3,1 -0.1,1.9 0.7,2.6 0.7,0.6 1.6,0.6 2.5,0.3 1.6,-0.6 2.9,-2.6 2.9,-4.3 z"
   class="st12" />
		<path
   style="fill:#ffffff"
   inkscape:connector-curvature="0"
   id="path248"
   d="m 353.7,427.3 c 1.3,-1.3 2.6,-2.5 3.8,-3.9 1,-1.3 1.8,-2.7 2.8,-4 0.2,-0.3 0.7,-0.4 1.1,-0.6 0,0.4 0.2,0.9 0.1,1.3 -1.1,2.7 -2.3,5.4 -3.5,8.1 -0.1,0.3 -0.6,0.5 -1,0.8 -0.1,-0.4 -0.3,-0.9 -0.2,-1.3 0,-0.5 0.3,-0.9 0.3,-1.5 -0.5,0.4 -1,0.9 -1.6,1.3 -0.6,0.4 -1.1,0.7 -1.8,0.9 -0.9,0.3 -1.6,-0.2 -1.6,-1.2 0,-0.8 0,-1.7 0.4,-2.5 0.7,-1.7 1.6,-3.4 2.5,-5 0.2,-0.3 0.8,-0.5 1.2,-0.7 0,0.4 0.2,1 0,1.3 -0.8,1.9 -1.7,3.7 -2.5,5.5 -0.2,0.3 -0.2,0.7 -0.3,1.1 0,0.2 0.1,0.3 0.3,0.4 z"
   class="st12" />
	</g>
	<g
   id="g258">
		<path
   style="fill:#ffffff"
   inkscape:connector-curvature="0"
   id="path252"
   d="M 381.6,414.4"
   class="st12" />
		<g
   id="g256">
			<path
   style="fill:#ffffff"
   inkscape:connector-curvature="0"
   id="path254"
   d="m 381.6,415.4 c 1.3,0 1.3,-2 0,-2 -1.3,0 -1.3,2 0,2 z"
   class="st12" />
		</g>
	</g>
	<g
   id="g266">
		<path
   inkscape:connector-curvature="0"
   id="path260"
   d="M 380.5,417.8" />
		<g
   id="g264">
			<path
   style="fill:#ffffff"
   inkscape:connector-curvature="0"
   id="path262"
   d="m 380.5,418.3 c 0.6,0 0.6,-1 0,-1 -0.7,0 -0.7,1 0,1 z"
   class="st12" />
		</g>
	</g>
	<g
   id="g274">
		<path
   style="fill:#ffffff"
   inkscape:connector-curvature="0"
   id="path268"
   d="M 380.2,418"
   class="st12" />
		<g
   id="g272">
			<path
   inkscape:connector-curvature="0"
   id="path270"
   d="m 380.2,418.5 c 0.6,0 0.6,-1 0,-1 -0.6,0 -0.6,1 0,1 z" />
		</g>
	</g>
	<g
   id="g282">
		<path
   style="fill:#ffffff"
   inkscape:connector-curvature="0"
   id="path276"
   d="M 380,418.3"
   class="st12" />
		<g
   id="g280">
			<path
   inkscape:connector-curvature="0"
   id="path278"
   d="m 380,418.8 c 0.6,0 0.6,-1 0,-1 -0.7,0 -0.7,1 0,1 z" />
		</g>
	</g>
	<g
   id="g290">
		<path
   inkscape:connector-curvature="0"
   id="path284"
   d="m 380,418.3 c 0.1,-0.1 0.1,-0.2 0.2,-0.3 0.1,-0.1 0.1,-0.2 0.2,-0.3" />
		<g
   id="g288">
			<path
   style="fill:#ffffff"
   inkscape:connector-curvature="0"
   id="path286"
   d="m 380.3,418.7 c 0.1,-0.1 0.2,-0.2 0.2,-0.3 0,0 -0.1,0.1 -0.1,0.1 0,-0.1 0.1,-0.1 0.1,-0.2 0,-0.1 0.1,-0.1 0.1,-0.1 0,0 0.1,-0.1 0.1,-0.2 0,-0.1 0,-0.1 0,-0.2 0,-0.1 0,-0.1 0,-0.2 0,-0.1 -0.1,-0.1 -0.1,-0.2 -0.1,-0.1 -0.2,-0.2 -0.4,-0.1 0,0 -0.1,0 -0.1,0 -0.1,0 -0.2,0.1 -0.2,0.1 -0.1,0.1 -0.1,0.2 -0.2,0.2 -0.1,0.1 -0.1,0.1 -0.2,0.2 0,0 -0.1,0.1 -0.1,0.1 0,0 0.1,-0.1 0.1,-0.1 0,0 0,0 0,0 0,0 -0.1,0.1 -0.1,0.2 0,0.1 0,0.1 0,0.2 0,0.1 0,0.1 0,0.2 0,0.1 0.1,0.1 0.1,0.2 0.1,0.1 0.2,0.2 0.4,0.1 0,0 0.1,0 0.1,0 0.2,0.1 0.3,0.1 0.3,0 z"
   class="st12" />
		</g>
	</g>
	<g
   id="g298">
		<path
   style="fill:#ffffff"
   inkscape:connector-curvature="0"
   id="path292"
   d="m 380.1,418.7 c 0,-0.1 0.1,-0.3 0.2,-0.4 0,-0.1 0,-0.1 0,-0.2 0,-0.1 0.1,-0.1 0.1,-0.2"
   class="st12" />
		<g
   id="g296">
			<path
   style="fill:#ffffff"
   inkscape:connector-curvature="0"
   id="path294"
   d="m 380.6,418.9 c 0,-0.1 0,-0.1 0.1,-0.2 0,0 -0.1,0.1 -0.1,0.2 0,-0.1 0.1,-0.2 0.1,-0.3 0,-0.1 0,-0.2 0.1,-0.3 0,0 0,0.1 0,0.1 0,0 0,-0.1 0,-0.1 0,0 0,0.1 -0.1,0.1 0,0 0,-0.1 0.1,-0.1 0,0 0,-0.1 0,-0.1 0,-0.1 0,-0.1 0,-0.2 0,-0.1 0,-0.1 -0.1,-0.2 -0.1,-0.1 -0.2,-0.2 -0.3,-0.2 -0.1,0 -0.3,0 -0.4,0.1 0,0 -0.1,0.1 -0.1,0.1 -0.1,0.1 -0.1,0.1 -0.1,0.2 0,0 0,0 0,0.1 0,0 0,-0.1 0.1,-0.1 0,0.1 -0.1,0.2 -0.1,0.2 0,0.1 0,0.2 0,0.3 0,0 0,-0.1 0,-0.1 0,0.1 0,0.1 -0.1,0.2 0,0 0,-0.1 0.1,-0.1 -0.1,0.1 -0.1,0.3 -0.2,0.4 0,0.1 0,0.3 0.1,0.4 0.1,0.1 0.2,0.2 0.3,0.2 0.1,0 0.3,0 0.4,-0.1 0.1,-0.3 0.2,-0.4 0.2,-0.5 z"
   class="st12" />
		</g>
	</g>
</g><path
     style="fill:none;stroke:#ffffff;stroke-width:7;stroke-miterlimit:10"
     inkscape:connector-curvature="0"
     id="path302"
     d="m 395.4,293.6 c 0,0 0.3,-0.1 0.8,-0.3 0.2,-0.1 0.5,-0.2 0.7,-0.3 0.4,-0.2 0.9,-0.4 1.2,-0.5"
     class="st13" /><path
     style="fill:none;stroke:#00a2aa;stroke-width:6;stroke-linecap:round;stroke-linejoin:round;stroke-miterlimit:10"
     inkscape:connector-curvature="0"
     id="path304"
     d="m 392.9,294.4 c 0,0 3.3,-1 5.3,-1.9"
     class="st14" /><path
     style="fill:none;stroke:#00a2aa;stroke-width:6;stroke-linecap:round;stroke-linejoin:round;stroke-miterlimit:10"
     inkscape:connector-curvature="0"
     id="path306"
     d="m 424.6,260.5 c 0,0 -2,6.9 -2.5,8.2"
     class="st14" /><path
     style="fill:none;stroke:#f3bdcd;stroke-width:4;stroke-linecap:round;stroke-linejoin:round;stroke-miterlimit:10"
     inkscape:connector-curvature="0"
     id="path308"
     d="m 407.3,322.8 c 0,0 -4.8,-23.3 11.8,-40.5 16.6,-17.2 35.7,-15.1 35.7,-15.1"
     class="st9" /><path
     style="fill:none;stroke:#f8c5d1;stroke-width:4;stroke-linecap:round;stroke-linejoin:round;stroke-miterlimit:10"
     inkscape:connector-curvature="0"
     id="path310"
     d="m 467.7,269.3 c 0,0 12,4.3 16,9"
     class="st15" /></g>
<text
   xml:space="preserve"
   style="font-style:normal;font-variant:normal;font-weight:bold;font-stretch:condensed;font-size:165.84712219px;line-height:1.25;font-family:'Roboto Condensed';-inkscape-font-specification:'Roboto Condensed, Bold Condensed';font-variant-ligatures:normal;font-variant-caps:normal;font-variant-numeric:normal;font-feature-settings:normal;text-align:start;letter-spacing:0px;word-spacing:0px;writing-mode:lr-tb;text-anchor:start;fill:#ffffff;fill-opacity:1;stroke:none;stroke-width:4.14636469"
   x="618.05939"
   y="204.43752"
   id="text4182"><tspan
     sodipodi:role="line"
     x="618.05939"
     y="204.43752"
     id="tspan4176"
     style="font-style:normal;font-variant:normal;font-weight:bold;font-stretch:condensed;font-size:165.84712219px;font-family:'Roboto Condensed';-inkscape-font-specification:'Roboto Condensed, Bold Condensed';font-variant-ligatures:normal;font-variant-caps:normal;font-variant-numeric:normal;font-feature-settings:normal;text-align:start;writing-mode:lr-tb;text-anchor:start;stroke-width:4.14636469"><tspan
       x="618.05939"
       y="204.43752"
       style="font-style:normal;font-variant:normal;font-weight:bold;font-stretch:condensed;font-size:165.84712219px;font-family:'Roboto Condensed';-inkscape-font-specification:'Roboto Condensed, Bold Condensed';font-variant-ligatures:normal;font-variant-caps:normal;font-variant-numeric:normal;font-feature-settings:normal;text-align:start;writing-mode:lr-tb;text-anchor:start;stroke-width:4.14636469"
       id="tspan4172">Studio 52</tspan><tspan
       dx="0"
       x="1406.884"
       y="204.43752"
       style="font-style:normal;font-variant:normal;font-weight:bold;font-stretch:condensed;font-size:165.84712219px;font-family:'Roboto Condensed';-inkscape-font-specification:'Roboto Condensed, Bold Condensed';font-variant-ligatures:normal;font-variant-caps:normal;font-variant-numeric:normal;font-feature-settings:normal;text-align:start;writing-mode:lr-tb;text-anchor:start;stroke-width:4.14636469"
       id="tspan4174" /></tspan><tspan
     sodipodi:role="line"
     x="618.05939"
     y="438.90536"
     id="tspan4180"
     style="font-style:normal;font-variant:normal;font-weight:bold;font-stretch:condensed;font-size:165.84712219px;font-family:'Roboto Condensed';-inkscape-font-specification:'Roboto Condensed, Bold Condensed';font-variant-ligatures:normal;font-variant-caps:normal;font-variant-numeric:normal;font-feature-settings:normal;text-align:start;writing-mode:lr-tb;text-anchor:start;stroke-width:4.14636469"><tspan
       x="618.05939"
       y="438.90536"
       style="font-style:normal;font-variant:normal;font-weight:bold;font-stretch:condensed;font-size:165.84712219px;font-family:'Roboto Condensed';-inkscape-font-specification:'Roboto Condensed, Bold Condensed';font-variant-ligatures:normal;font-variant-caps:normal;font-variant-numeric:normal;font-feature-settings:normal;text-align:start;writing-mode:lr-tb;text-anchor:start;stroke-width:4.14636469"
       id="tspan4178">Marketing Agency</tspan></tspan></text>


<rect
   style="fill:#ffffff;stroke-width:1.22831559"
   id="rect413"
   width="1192.7643"
   height="13.624515"
   x="615.18134"
   y="520.41064" /></svg>