<?xml version="1.0" encoding="utf-8"?>
<!-- Generator: Adobe Illustrator 23.1.0, SVG Export Plug-In . SVG Version: 6.00 Build 0)  -->
<svg version="1.1" id="Layer_1" xmlns="http://www.w3.org/2000/svg" xmlns:xlink="http://www.w3.org/1999/xlink" x="0px" y="0px"
	 viewBox="0 0 283.5 283.5" style="enable-background:new 0 0 283.5 283.5;" xml:space="preserve">
<style type="text/css">
	.st0{fill:none;stroke:url(#SVGID_1_);stroke-width:4;stroke-miterlimit:10;}
	.st1{fill:none;stroke:url(#SVGID_2_);stroke-width:4;stroke-miterlimit:10;}
	.st2{fill:none;stroke:url(#SVGID_3_);stroke-width:4;stroke-miterlimit:10;}
	.st3{fill:none;stroke:url(#SVGID_4_);stroke-width:4;stroke-miterlimit:10;}
	.st4{fill:none;stroke:url(#SVGID_5_);stroke-width:4;stroke-miterlimit:10;}
	.st5{fill:none;stroke:url(#SVGID_6_);stroke-width:4;stroke-miterlimit:10;}
	.st6{fill:none;stroke:#000000;stroke-linecap:round;stroke-linejoin:round;stroke-miterlimit:10;}
</style>
<g>
	
		<linearGradient id="SVGID_1_" gradientUnits="userSpaceOnUse" x1="89.4384" y1="182.5471" x2="173.4435" y2="182.5471" gradientTransform="matrix(0.9552 -0.296 0.296 0.9552 -42.1276 -8.2666)">
		<stop  offset="0" style="stop-color:#FFFFFF"/>
		<stop  offset="0.1089" style="stop-color:#EDCDEE"/>
		<stop  offset="0.3555" style="stop-color:#C051C5"/>
		<stop  offset="0.5115" style="stop-color:#A200AA"/>
		<stop  offset="0.8985" style="stop-color:#2287DA"/>
		<stop  offset="1" style="stop-color:#00ABE7"/>
	</linearGradient>
	<path class="st0" d="M108,167.5c0,0-10.2-82.3,62.4-72.8"/>
	
		<linearGradient id="SVGID_2_" gradientUnits="userSpaceOnUse" x1="101.6785" y1="173.8574" x2="185.6837" y2="173.8574" gradientTransform="matrix(0.9552 -0.296 0.296 0.9552 -42.1276 -8.2666)">
		<stop  offset="0" style="stop-color:#FFFFFF"/>
		<stop  offset="0.1089" style="stop-color:#EDCDEE"/>
		<stop  offset="0.3555" style="stop-color:#C051C5"/>
		<stop  offset="0.5115" style="stop-color:#A200AA"/>
		<stop  offset="0.8985" style="stop-color:#2287DA"/>
		<stop  offset="1" style="stop-color:#00ABE7"/>
	</linearGradient>
	<path class="st1" d="M176,75c0,0,10.2,82.3-62.4,72.8"/>
	
		<linearGradient id="SVGID_3_" gradientUnits="userSpaceOnUse" x1="98.5928" y1="179.657" x2="193.8605" y2="179.657" gradientTransform="matrix(0.9552 -0.296 0.296 0.9552 -42.1276 -8.2666)">
		<stop  offset="0" style="stop-color:#FFFFFF"/>
		<stop  offset="0.1089" style="stop-color:#EDCDEE"/>
		<stop  offset="0.3555" style="stop-color:#C051C5"/>
		<stop  offset="0.5115" style="stop-color:#A200AA"/>
		<stop  offset="0.8985" style="stop-color:#2287DA"/>
		<stop  offset="1" style="stop-color:#00ABE7"/>
	</linearGradient>
	<path class="st2" d="M113.3,157.1c0,0,78,13.3,71.4-81.8"/>
	
		<linearGradient id="SVGID_4_" gradientUnits="userSpaceOnUse" x1="80.3463" y1="176.4343" x2="175.6141" y2="176.4343" gradientTransform="matrix(0.9552 -0.296 0.296 0.9552 -42.1276 -8.2666)">
		<stop  offset="0" style="stop-color:#FFFFFF"/>
		<stop  offset="0.1089" style="stop-color:#EDCDEE"/>
		<stop  offset="0.3555" style="stop-color:#C051C5"/>
		<stop  offset="0.5115" style="stop-color:#A200AA"/>
		<stop  offset="0.8985" style="stop-color:#2287DA"/>
		<stop  offset="1" style="stop-color:#00ABE7"/>
	</linearGradient>
	<path class="st3" d="M169.8,85.3c0,0-78-13.3-71.4,81.8"/>
	
		<linearGradient id="SVGID_5_" gradientUnits="userSpaceOnUse" x1="96.5426" y1="185.7217" x2="201.7957" y2="185.7217" gradientTransform="matrix(0.9552 -0.296 0.296 0.9552 -42.1276 -8.2666)">
		<stop  offset="0" style="stop-color:#FFFFFF"/>
		<stop  offset="0.1089" style="stop-color:#EDCDEE"/>
		<stop  offset="0.3555" style="stop-color:#C051C5"/>
		<stop  offset="0.5115" style="stop-color:#A200AA"/>
		<stop  offset="0.8985" style="stop-color:#2287DA"/>
		<stop  offset="1" style="stop-color:#00ABE7"/>
	</linearGradient>
	<path class="st4" d="M113.7,165.7c0,0,89.2,11.8,79.6-89.4"/>
	
		<linearGradient id="SVGID_6_" gradientUnits="userSpaceOnUse" x1="72.7744" y1="170.7072" x2="178.0275" y2="170.7072" gradientTransform="matrix(0.9552 -0.296 0.296 0.9552 -42.1276 -8.2666)">
		<stop  offset="0" style="stop-color:#FFFFFF"/>
		<stop  offset="0.1089" style="stop-color:#EDCDEE"/>
		<stop  offset="0.3555" style="stop-color:#C051C5"/>
		<stop  offset="0.5115" style="stop-color:#A200AA"/>
		<stop  offset="0.8985" style="stop-color:#2287DA"/>
		<stop  offset="1" style="stop-color:#00ABE7"/>
	</linearGradient>
	<path class="st5" d="M169.8,76.9c0,0-89.2-11.8-79.6,89.4"/>
</g>
<g>
	<polyline class="st6" points="18.2,191.4 21.6,185 26.5,195 16.7,195 	"/>
	<path class="st6" d="M31.1,195v-10.9c0,0,8.9-1.1,8.6,2.7c-0.3,3.8-7.8,3.2-7.8,3.2s5.1-1.9,7.8,5.4"/>
	<line class="st6" x1="43.1" y1="184.3" x2="51.7" y2="184.3"/>
	<line class="st6" x1="47.4" y1="195.4" x2="47.4" y2="184.3"/>
	<g>
		<g>
			<path d="M63.2,186c-0.1-0.7-1-1.3-1.6-1.5c-0.9-0.3-1.8-0.4-2.7-0.4c-1,0-1.9,0.5-2.7,1c-0.7,0.5-1.1,1.5-1,2.4
				c0.1,0.9,1.2,1.4,2,1.7c0.5,0.2,1,0.3,1.5,0.5c0.5,0.1,1.1,0.3,1.6,0.6c0.8,0.3,2,0.7,2.1,1.6c0.1,0.5,0.2,1.1-0.1,1.6
				c-0.2,0.4-0.6,0.8-1,1.1c-0.5,0.3-1.1,0.3-1.6,0.3c-0.6,0.1-1.2,0.1-1.8-0.1c-0.6-0.2-1-0.4-1.4-0.9c-0.3-0.4-0.8-0.8-1.1-1.3
				c-0.3-0.5-1.2,0-0.9,0.5c0.2,0.4,0.6,0.7,0.9,1c0.3,0.4,0.6,0.8,1,1.1c0.7,0.5,1.8,0.7,2.6,0.7c0.5,0,1-0.1,1.5-0.1
				c0.5,0,0.9-0.2,1.3-0.4c0.7-0.5,1.4-1.2,1.5-2c0.2-0.8,0.1-2-0.5-2.6c-0.6-0.7-1.5-1-2.4-1.4c-0.4-0.2-0.9-0.3-1.4-0.5
				c-0.6-0.2-1.2-0.2-1.7-0.5c-0.2-0.1-0.4-0.3-0.6-0.4c-0.2-0.1-0.5-0.2-0.6-0.4c-0.2-0.4,0.1-1.2,0.4-1.5c0.4-0.3,1-0.6,1.4-0.8
				c0.6-0.2,1.2-0.2,1.8-0.2c0.5,0,1.1,0.1,1.5,0.3c0.3,0.1,0.9,0.5,0.9,0.8C62.4,186.9,63.3,186.6,63.2,186L63.2,186z"/>
		</g>
	</g>
	<g>
		<g>
			<path d="M122,185.8c-0.1-0.7-1-1.3-1.6-1.5c-0.9-0.3-1.8-0.4-2.7-0.4c-1,0-1.9,0.5-2.7,1c-0.7,0.5-1.1,1.5-1,2.4
				c0.1,0.9,1.2,1.4,2,1.7c0.5,0.2,1,0.3,1.5,0.5c0.5,0.1,1.1,0.3,1.6,0.6c0.8,0.3,2,0.7,2.1,1.6c0.1,0.5,0.2,1.1-0.1,1.6
				c-0.2,0.4-0.6,0.8-1,1.1c-0.5,0.3-1.1,0.3-1.6,0.3c-0.6,0.1-1.2,0.1-1.8-0.1c-0.6-0.2-1-0.4-1.4-0.9c-0.3-0.4-0.8-0.8-1.1-1.3
				c-0.3-0.5-1.2,0-0.9,0.5c0.2,0.4,0.6,0.7,0.9,1c0.3,0.4,0.6,0.8,1,1.1c0.7,0.5,1.8,0.7,2.6,0.7c0.5,0,1-0.1,1.5-0.1
				c0.5,0,0.9-0.2,1.3-0.4c0.7-0.5,1.4-1.2,1.5-2c0.2-0.8,0.1-2-0.5-2.6c-0.6-0.7-1.5-1-2.4-1.4c-0.4-0.2-0.9-0.3-1.4-0.5
				c-0.6-0.2-1.2-0.2-1.7-0.5c-0.2-0.1-0.4-0.3-0.6-0.4c-0.2-0.1-0.5-0.2-0.6-0.4c-0.2-0.4,0.1-1.2,0.4-1.5c0.4-0.3,1-0.6,1.4-0.8
				c0.6-0.2,1.2-0.2,1.8-0.2c0.5,0,1.1,0.1,1.5,0.3c0.3,0.1,0.9,0.5,0.9,0.8C121.2,186.7,122.1,186.4,122,185.8L122,185.8z"/>
		</g>
	</g>
	<g>
		<g>
			<path d="M80.7,194.2c-0.5-0.6-1.1-1.1-1.6-1.6c-0.2-0.2-0.4-0.5-0.6-0.7c-0.2-0.3-0.5-0.4-0.8-0.6c-0.6-0.4-1-1-1.4-1.5
				c-0.2-0.2-0.4-0.4-0.7-0.6c-0.4-0.3-0.7-0.6-1-1c-0.5-0.5-1-1.1-1.2-1.8c-0.1-0.2-0.2-0.6-0.1-0.9c0.1-0.3,0.5-0.6,0.8-0.8
				c0.5-0.4,1.3-0.5,1.9-0.3c0.7,0.2,0.7,0.9,0.7,1.6c0,0.3,0.1,0.7,0,1c-0.1,0.2-0.3,0.2-0.5,0.4c-0.1,0.1-0.2,0.3-0.4,0.3
				c-0.1,0.1-0.3,0.1-0.5,0.2c-0.3,0.1-0.6,0.3-0.9,0.5c-1.2,0.5-2.4,0.7-3.3,1.7c-1,1-1.3,2.4-0.7,3.6c0.2,0.5,0.5,1,1,1.3
				c0.6,0.3,1.3,0.5,2,0.7c1.6,0.5,2.8-0.5,4-1.5c0.6-0.5,1.1-1.1,1.6-1.8c0.5-0.7,0.8-1.5,1.4-2.1c0.5-0.5-0.3-1.2-0.7-0.7
				c-0.5,0.5-0.9,1.1-1.2,1.8c-0.4,0.7-1,1.4-1.6,2c-0.5,0.5-1.1,1-1.8,1.3c-0.7,0.4-1.5,0-2.2-0.2c-0.3-0.1-0.8-0.2-1-0.4
				c-0.2-0.2-0.3-0.6-0.4-0.8c-0.4-0.8-0.2-1.7,0.4-2.4c0.9-1,2.4-1.1,3.6-1.8c0.3-0.2,0.6-0.3,0.9-0.4c0.3-0.1,0.4-0.4,0.6-0.5
				c0.3-0.1,0.5-0.1,0.7-0.4c0.2-0.3,0.2-0.6,0.3-0.9c0.1-1.1,0.1-2.6-1-3.2c-1.2-0.6-2.8-0.3-3.7,0.6c-0.4,0.4-0.8,0.8-0.8,1.4
				c0,0.8,0.3,1.5,0.7,2.1c0.4,0.6,1,1.3,1.5,1.8c0.3,0.3,0.7,0.5,1,0.9c0.3,0.3,0.5,0.7,0.8,1c0.3,0.3,0.6,0.5,0.9,0.7
				c0.4,0.2,0.5,0.5,0.8,0.8c0.6,0.7,1.3,1.2,1.9,1.9C80.4,195.4,81.1,194.7,80.7,194.2L80.7,194.2z"/>
		</g>
	</g>
	<g>
		<g>
			<path d="M88.5,184.9c2.1,0,4.2-0.2,6.2,0.4c1,0.3,1.8,0.9,2.1,1.9c0.3,0.9,0.3,1.9,0.3,2.9c0.1,1,0.1,2-0.5,2.7
				c-0.6,0.7-1.3,1.4-2.1,1.7c-0.5,0.2-0.9,0.1-1.4,0.1c-0.5,0-1,0-1.5,0.1c-1.1,0.1-2.3,0.1-3.4,0.1c-0.6,0-0.6,1,0,1
				c1,0,2.1,0.1,3.1,0c0.4-0.1,0.9-0.1,1.3-0.1c0.5-0.1,1,0,1.5-0.1c0.8-0.1,1.5-0.5,2.1-1c0.6-0.5,1.2-1.1,1.6-1.7
				c0.4-0.8,0.4-1.6,0.4-2.4c0-0.9-0.1-1.9-0.2-2.8c-0.1-1.7-1.5-2.8-3-3.3c-2.1-0.7-4.3-0.5-6.5-0.5
				C87.9,183.9,87.9,184.9,88.5,184.9L88.5,184.9z"/>
		</g>
	</g>
	<polyline class="st6" points="110.3,184.3 102.9,184.3 102.9,195.4 110.3,195.3 	"/>
	<line class="st6" x1="109.5" y1="189.6" x2="102.9" y2="189.6"/>
	<line class="st6" x1="126.9" y1="184.3" x2="126.9" y2="195.3"/>
	<polyline class="st6" points="146.6,195.3 146.6,184.3 155.8,195.3 155.8,184.3 	"/>
	<line class="st6" x1="164.3" y1="184.3" x2="172.8" y2="184.3"/>
	<line class="st6" x1="164.3" y1="189.5" x2="172.8" y2="189.5"/>
	<line class="st6" x1="164.3" y1="195" x2="172.8" y2="195"/>
	<line class="st6" x1="185.4" y1="195.3" x2="176.1" y2="184.3"/>
	<line class="st6" x1="176.1" y1="195.3" x2="185.4" y2="184.3"/>
	<line class="st6" x1="189.5" y1="195.3" x2="189.5" y2="184.3"/>
	<line class="st6" x1="197.6" y1="184.3" x2="197.6" y2="195.3"/>
	<line class="st6" x1="189.5" y1="189.8" x2="197.6" y2="189.8"/>
	<line class="st6" x1="203" y1="195.3" x2="203" y2="184.3"/>
	<line class="st6" x1="208.3" y1="195.3" x2="208.3" y2="184.3"/>
	<g>
		<g>
			<path d="M208.4,185c0.3,0,0.5,0,0.8-0.1c0.2-0.1,0.5-0.1,0.8,0c0.6,0,1.3,0,1.9,0c0.6,0,1.1,0,1.7,0.1c0.5,0.1,1,0.3,1.5,0.5
				c0.2,0.1,0.3,0.1,0.4,0.3c0.1,0.3,0.2,0.5,0.3,0.8c0.1,0.5,0.1,1-0.2,1.4c-0.1,0.2-0.3,0.4-0.5,0.6c-0.2,0.1-0.5,0.1-0.8,0.2
				c-0.6,0.2-1.1,0.1-1.7,0.1c-0.7,0-1.5,0.1-2.2,0c-0.6-0.1-1.1-0.1-1.7-0.1c-0.6,0-0.6,1,0,1c0.6,0,1.2,0.1,1.7,0.1
				c0.7,0,1.5,0,2.2,0c0.3,0,0.7,0,1,0c0.3,0,0.7-0.1,1-0.2c0.3-0.1,0.6-0.1,0.8-0.3c0.3-0.2,0.5-0.4,0.7-0.7c0.8-1,0.6-2.5,0.1-3.6
				c-0.3-0.5-0.8-0.6-1.3-0.8c-0.6-0.3-1.2-0.4-1.8-0.5c-0.8-0.1-1.6,0-2.4,0c-0.4,0-0.8,0-1.1,0c-0.4,0-0.7,0.2-1.1,0.2
				C207.7,183.9,207.7,184.9,208.4,185L208.4,185z"/>
		</g>
	</g>
	<g>
		<g>
			<path d="M208.4,195.2c0.8,0,1.5-0.1,2.3,0c0.4,0,0.7,0.1,1,0.1c0.3,0,0.7,0,1,0c0.7,0,1.4,0,2.1-0.2c0.6-0.2,1.1-0.3,1.6-0.8
				c0.9-0.9,1-2.5,0.5-3.6c-0.2-0.5-0.7-0.9-1.2-1.2c-0.5-0.2-1.1-0.6-1.7-0.6c-0.6,0-0.6,1,0,1c0.2,0,0.4,0.1,0.6,0.2
				c0.2,0.1,0.4,0.2,0.6,0.3c0.4,0.2,0.7,0.5,0.9,1c0.3,0.9,0,2.2-1,2.5c-0.5,0.2-1,0.3-1.6,0.3c-0.5,0-1.1,0-1.6,0
				c-0.5,0-1-0.1-1.6-0.1c-0.6,0-1.3,0-1.9,0C207.7,194.2,207.7,195.2,208.4,195.2L208.4,195.2z"/>
		</g>
	</g>
	<line class="st6" x1="221.7" y1="184.3" x2="221.7" y2="195.3"/>
	<line class="st6" x1="230.1" y1="195.3" x2="230.1" y2="184.3"/>
	<line class="st6" x1="225.4" y1="184.3" x2="234.4" y2="184.3"/>
	<line class="st6" x1="238.5" y1="184.3" x2="238.5" y2="195.3"/>
	<polyline class="st6" points="258.6,195.3 258.6,184.3 267.2,195.3 267.2,184.3 	"/>
	<circle class="st6" cx="248.7" cy="189.8" r="5.8"/>
	<g>
		<g>
			<path d="M142.1,186.3c-0.2-0.4-0.6-0.9-1-1.2c-0.4-0.5-1-0.8-1.6-1.1c-0.6-0.3-1.3-0.4-2-0.4c-0.3,0-0.5,0-0.8,0
				c-0.4,0.1-0.7,0.2-1,0.4c-0.3,0.1-0.6,0.2-0.9,0.4c-0.2,0.1-0.5,0.2-0.7,0.3c-0.5,0.3-1,0.7-1.4,1.2c-0.3,0.5-0.5,1-0.7,1.6
				c-0.2,0.8-0.4,1.5-0.4,2.3c0,2.3,1.4,4.8,3.8,5.3c1.1,0.2,2.3,0.1,3.4-0.1c0.7-0.1,1.2-0.3,1.8-0.7c0.5-0.4,0.9-1,1.3-1.5
				c0.3-0.6,0.4-1.2,0.5-1.9c0.1-0.5,0.2-1.5-0.4-1.7c-0.3-0.1-0.7,0-0.9,0c-0.4,0-0.8,0-1.2,0c-0.8,0-1.7,0-2.5,0c-0.6,0-0.6,1,0,1
				c0.8,0,1.5,0,2.3,0c0.4,0,0.7,0,1.1,0c0.2,0,0.3,0,0.5,0c0.1,0,0.5,0.1,0.4,0c-0.1-0.1-0.2-0.2-0.2-0.3c0.1,0.4,0,0.8-0.1,1.2
				c-0.1,0.4-0.1,0.8-0.3,1.2c-0.6,0.9-1.1,1.5-2.2,1.7c-0.8,0.2-1.6,0.3-2.5,0.2c-0.7-0.1-1.6-0.2-2.1-0.7
				c-0.3-0.2-0.5-0.5-0.7-0.8c-0.3-0.4-0.4-0.9-0.6-1.3c-0.3-0.9-0.4-1.9-0.1-2.8c0.2-0.4,0.2-0.9,0.4-1.4c0.2-0.4,0.4-0.8,0.7-1
				c0.6-0.6,1.5-0.9,2.3-1.2c0.2-0.1,0.4-0.2,0.6-0.2c0.2-0.1,0.5-0.1,0.7,0c0.6,0,1.2,0.1,1.7,0.3c0.8,0.4,1.5,1.1,2,1.9
				C141.6,187.4,142.4,186.9,142.1,186.3L142.1,186.3z"/>
		</g>
	</g>
</g>
</svg>
