<?xml version="1.0" encoding="utf-8"?>
<!-- Generator: Adobe Illustrator 23.1.0, SVG Export Plug-In . SVG Version: 6.00 Build 0)  -->
<svg version="1.1" id="Layer_1" xmlns="http://www.w3.org/2000/svg" xmlns:xlink="http://www.w3.org/1999/xlink" x="0px" y="0px"
	 viewBox="0 0 12288 9216" style="enable-background:new 0 0 12288 9216;" xml:space="preserve">
<style type="text/css">
	.st0{fill:url(#SVGID_1_);}
	.st1{fill:#B1E2F9;}
	.st2{fill:#E8CEE1;}
	.st3{fill:none;}
	.st4{fill:#FFFFFF;}
	.st5{font-family:'ArialNarrow-Bold';}
	.st6{font-size:203px;}
	.st7{font-size:255px;}
	.st8{font-size:200px;}
	.st9{font-size:300px;}
	.st10{fill:#FCF4A3;}
	.st11{font-size:229px;}
	.st12{opacity:0.7;fill:#FCF4A3;}
	.st13{fill:#6FC0EB;}
	.st14{fill:#BF8EBF;}
	.st15{fill:#E3AACD;}
	.st16{fill:none;stroke:#E3AACD;stroke-width:9;stroke-miterlimit:10;}
	.st17{fill:#FCFDFF;}
	.st18{font-size:229.8408px;}
	.st19{letter-spacing:4;}
</style>
<linearGradient id="SVGID_1_" gradientUnits="userSpaceOnUse" x1="6144" y1="9216" x2="6144" y2="9.094947e-12">
	<stop  offset="0" style="stop-color:#FFFFFF"/>
	<stop  offset="2.610710e-03" style="stop-color:#0097D3"/>
	<stop  offset="0.4291" style="stop-color:#3A5BA8"/>
	<stop  offset="1" style="stop-color:#3A5BA8"/>
</linearGradient>
<rect x="0" y="0" class="st0" width="12288" height="9216"/>
<path class="st1" d="M7459.2,3313.9H4505.8c-154.2,0-279.3-125-279.3-279.3v0c0-154.2,125-279.3,279.3-279.3h2953.4
	c154.2,0,279.3,125,279.3,279.3v0C7738.4,3188.9,7613.4,3313.9,7459.2,3313.9z"/>
<g id="XMLID_1_">
	<g>
		<path class="st2" d="M8847.1,1856.6c0,17.6,0,35.2,0,52.8c-1,3.2-2.5,6.5-2.9,9.8c-4.2,36.1-20.6,61.3-47.4,77.2
			c-23.8,14.1-49.3,19.2-75.5,21c-33.6,2.3-67.2,3.7-100.8,6.3c-47.8,3.5-55.4-1.9-73.3-55.3c0-14.7,0-29.5,0-44.2h29.4
			c0,5.5,0.2,11.1,0.7,16.6c2.7,33.8,18.7,48.8,46.8,45.4c22.5-2.8,45.1-3.6,67.6-5.7c17.9-1.6,35.8-2.5,53.5-5.9
			c37.5-6.9,61.4-30.7,65.9-66.4c2.4-20.3,2.8-41.3,2.2-61.9c-0.7-21.7-2.1-43.3-4-64.8l27.1-2.4
			C8840,1805,8843.6,1830.9,8847.1,1856.6z"/>
		<path class="st2" d="M8836.5,1779.2l-27.1,2.4c-2.2-24.3-5.1-48.5-8.4-72.6l25.2-3.5C8829.7,1730.1,8833.1,1754.6,8836.5,1779.2z"
			/>
		<path class="st2" d="M8826.2,1705.5l-25.2,3.5c-6.3-45.5-14-90.7-21.5-136c-10.8-66.1-19.8-132.8-26.8-199.7
			c-4.7-45.5-5.5-91.6-6.7-137.5c-1.3-54.1-0.5-108.3-1.7-162.4c-0.5-21.5-2.5-43.3-6.4-64.3c-4.4-23.9-16.8-32-36.4-26.4
			c-8.7,2.4-17,6.9-25.4,10.3c-26.1,10.5-37.5,32.3-37.2,65.6c0.6,87.8,0.2,175.7,0.2,240.8c-2.9,86.6-4.3,150.5-7.4,214.4
			c-5.1,110.5-19.3,219.4-43.1,326.3c-6.2,27.6-11.9,55.3-11.9,84h-29.4c0-7.1,0-14,0-21c2.3-17.6,4.3-35.2,7-52.8
			c13.4-91.2,33.8-180.9,38.1-274c3.9-84.4,11.7-168.5,13.6-252.9c1.9-89.7-0.7-179.5-1.9-269.2c-0.6-45.6,15.7-77.1,50.3-94.4
			c11.4-5.8,23.2-10.1,34.9-14.5c7.2-2.7,14.6-4.3,22-6.5c4.2,0,8.5,0,12.8,0c1.3,1,2.7,2.7,4.1,2.8c24.1,2.9,36.9,20.8,40.1,48
			c3.3,28.6,5.2,57.4,6.3,86.3c2.1,61.9,1.9,123.9,5.1,185.7c3.5,69.9,7.4,140,15.3,209.4
			C8804.2,1549.4,8815.3,1627.4,8826.2,1705.5z"/>
		<path class="st2" d="M8813.3,1846.4c0.6,20.6,0.2,41.6-2.2,61.9c-4.4,35.7-28.4,59.5-65.9,66.4c-17.7,3.3-35.6,4.2-53.5,5.9
			c-22.5,2-45.1,2.8-67.6,5.7c-28.2,3.4-44.1-11.6-46.8-45.4c-0.5-5.5-0.7-11.1-0.7-16.6c0-28.8,5.8-56.4,11.9-84
			c23.8-107,37.9-215.8,43.1-326.3c3-63.9,4.4-127.8,7.4-214.4c0-65.2,0.4-153.1-0.2-240.8c-0.3-33.3,11.1-55.1,37.2-65.6
			c8.5-3.4,16.7-7.9,25.4-10.3c19.6-5.5,32,2.5,36.4,26.4c3.8,21,5.9,42.8,6.4,64.3c1.2,54.2,0.4,108.4,1.7,162.4
			c1.1,45.9,1.9,92,6.7,137.5c7.1,66.9,16,133.6,26.8,199.7c7.5,45.3,15.2,90.5,21.5,136c3.2,24.1,6.2,48.3,8.4,72.6
			C8811.2,1803.1,8812.6,1824.7,8813.3,1846.4z"/>
		<path class="st2" d="M8493.4,1547.1c3.9,47.1-8,93-13.1,139.4c-7.5,67.6-14.5,135.1,0.3,202.7c3.3,15.3,6.1,30.9,9.1,46.4
			c-0.1,3.9-0.2,7.8-0.3,11.7c-0.8,1.3-1.8,2.5-2.3,3.9c-5.3,14.8-17.8,20.4-31.7,13c-6.5-3.4-12.4-8.6-17.2-14.1
			c-14-16.2-31.4-20.8-51-13.8c-12.1,4.3-23.4,10.9-34.8,17.2c-25.6,14-50.4,29.6-76.8,42.3c-52.6,25.5-108.2,29.2-164.5,16.7
			c-50.9-11.3-65.8-44.9-50.7-96.5c4.6-15.4,15.2-30.3,26.3-42.5c48.3-53.7,105.4-96.7,165.6-135.8c8.9-5.9,17.9-11.5,26.8-17.2
			c26.7-16.7,51.4-35.7,67.8-63.3c21-35.2,21.3-71.4,3.1-107.9c-7.6-15.1-17.5-16.5-25.4-1.6c-10.5,19.9-18.5,41.3-25.4,62.8
			c-5.1,15.8-4.8,33.6-10.5,49.2c-9.9,27.3-26,47.4-46.9,61.9c-16.3,11.3-35.5,19.2-57,24.4c-54.3,13.2-100-1.6-138.7-40.2
			c-19.3-19.2-28.5-43.1-30.2-70c-0.2-3.1-1.4-6.2-2.1-9.2c0.1-5.2,0.2-10.5,0.3-15.6c0.6-0.8,1.5-1.5,1.7-2.3
			c6-41.4,27.7-74.3,56.1-103.4c43.7-44.9,88.3-88.8,131.8-133.9c26.7-27.8,58.7-44.3,96.6-49.9c6.9-1,13.8-1.7,20.8-2.6
			c1.3,0,2.6,0,3.9,0.1c9.2,1.6,18.5,2.7,27.4,4.8c63.2,15.4,109.2,51.5,126.1,115.4C8488,1474.1,8490.3,1510.9,8493.4,1547.1z
			 M8478.5,1586.1c1.4-56.3-2.7-95.2-11.4-133.7c-13.1-58.2-50.7-94.4-106.4-111c-54.8-16.2-103.3-2-143.7,38.3
			c-42.8,42.8-85.6,85.5-127.2,129.3c-15.7,16.6-30.8,34.7-42.3,54.4c-35.5,61-17.8,132.5,54.9,163.5c21.6,9.2,42.9,10.2,65.6,7.2
			c60.7-8.2,109.3-48.5,114.5-113.3c2.4-28.9,12.6-56.5,29.2-80.8c16.6-24.5,39.5-22.4,52.7,3.8c25.6,51.5,15.7,110.3-28.7,151.3
			c-21.1,19.5-45.5,35.5-69.6,51.5c-60.3,39.9-118.3,82.7-167.7,136.1c-11.6,12.5-22.1,25.9-25.6,43c-9,43.4,3.2,63.7,42.7,72.4
			c43.3,9.7,87.1,10.3,128.5-6.2c31-12.2,59.7-29.8,89.4-45c16.5-8.4,32.4-18.5,49.6-24.6c25.5-9.1,48.6-3.2,66.6,18.4
			c2.3,2.7,4.7,5.7,7.8,7.3c3.7,1.9,9.5,4.5,12,2.9c2.8-1.7,3.3-7.7,4.4-11.8c0.3-1.5-0.5-3.2-0.7-4.8
			c-4.7-28.5-11.2-56.8-13.9-85.5c-5.4-59.8,0.7-119.5,8.4-178.8C8471.7,1636.4,8476.2,1603,8478.5,1586.1z"/>
		<path class="st2" d="M8467.1,1452.4c8.7,38.4,12.8,77.4,11.4,133.7c-2.2,17-6.8,50.3-11,83.8c-7.7,59.3-13.8,119-8.4,178.8
			c2.7,28.7,9.2,57,13.9,85.5c0.2,1.6,1,3.3,0.7,4.8c-1.1,4.1-1.6,10.1-4.4,11.8c-2.5,1.6-8.3-1-12-2.9c-3-1.6-5.4-4.5-7.8-7.3
			c-18-21.6-41.1-27.4-66.6-18.4c-17.3,6.2-33.1,16.2-49.6,24.6c-29.7,15.2-58.4,32.8-89.4,45c-41.5,16.4-85.3,15.8-128.5,6.2
			c-39.5-8.8-51.7-29.1-42.7-72.4c3.5-17.1,14-30.5,25.6-43c49.4-53.4,107.4-96.3,167.7-136.1c24.1-15.9,48.5-32,69.6-51.5
			c44.4-41.1,54.3-99.9,28.7-151.3c-13.2-26.2-36-28.4-52.7-3.8c-16.5,24.3-26.7,52-29.2,80.8c-5.2,64.8-53.8,105.1-114.5,113.3
			c-22.7,3-44,2-65.6-7.2c-72.6-31-90.4-102.4-54.9-163.5c11.5-19.7,26.5-37.7,42.3-54.4c41.7-43.8,84.5-86.5,127.2-129.3
			c40.4-40.4,88.9-54.6,143.7-38.3C8416.4,1358,8453.9,1394.2,8467.1,1452.4z M8377.9,1783.4c4.1-20.2-8-32.1-28.5-29.1
			c-26.2,3.8-50.4,13.3-70.5,30.7c-25.6,22-50.7,44.8-74.5,68.7c-9,9.1-15.9,21.6-20.2,33.7c-8,22.9,8.2,43.4,38.4,44
			c6.6-2,19.4-4,30.5-9.5c49.9-24.4,88-61.7,114.8-110.3C8372.7,1802.9,8375.9,1793,8377.9,1783.4z"/>
		<path class="st2" d="M8349.4,1754.3c20.5-3,32.6,8.9,28.5,29.1c-2,9.7-5.1,19.6-9.9,28.3c-26.8,48.5-64.9,85.9-114.8,110.3
			c-11.1,5.4-23.9,7.5-30.5,9.5c-30.3-0.6-46.4-21.1-38.4-44c4.2-12.1,11.2-24.6,20.2-33.7c23.8-23.9,48.8-46.7,74.5-68.7
			C8299,1767.6,8323.2,1758.1,8349.4,1754.3z M8362.5,1783.9c4.4-12.4-0.7-17.3-13.5-14.6c-21.6,4.2-42.3,11.5-59,26
			c-25.5,22.1-50.3,45-74.6,68.5c-7.2,7-12.6,16.5-16.4,25.9c-6,14.3,2.7,26.1,23.6,26.9c6.8-2.4,18.9-5.2,29.6-10.8
			c37.8-19.3,67.7-48,91.5-82.7C8351.7,1811.2,8357.6,1797.5,8362.5,1783.9z"/>
		<path class="st2" d="M7991.3,1549.2c2.5,63.9-5.4,127.2-20.9,189.6c-9.8,39.7-27.5,77.6-42.3,116c-10.9,28.5-21.2,57.2-34.5,84.7
			c-16.7,34.9-47.2,58.6-83.1,75.8c-33.7,15.9-65.5,10.3-90.6-16.2c-14-14.8-27.6-31-37-48.5c-44.4-82.7-87.4-166.1-130.5-249.4
			c-5.1-9.9-7.4-21.1-11.4-31.5c-10.1-26.1-21.6-51.9-30.5-78.3c-10.1-29.9-17.9-60.2-26.6-90.4c-1.1-3.6-1.8-7.3-2.7-10.9
			c0-12.3,0-24.5,0-36.8c1.1-3.5,2.4-7.1,3.4-10.7c5.7-21,17.2-37.2,41.4-42.8c24.2-5.4,45.2,0.6,61,18.5c8.1,9,15.1,19.1,20.9,29.6
			c25.3,46.9,45.8,95.6,61.4,146c6.2,19.9,13,39.5,20.8,58.6l-25.2,10.6c-12.8-29.8-24.2-60-35.7-90.3
			c-14.4-38-33.3-74.8-51.7-111.4c-5.4-10.7-15-20.1-24.5-28.4c-11.1-9.6-22.7-8.5-30.2,3.7c-6.3,10.2-12.3,22.9-11.5,34.1
			c1.9,24.5,6.1,49.3,13.3,72.9c8,25.9,20.8,50.6,30.9,76c13.1,33,22.9,67.3,38.7,99c33.5,66.9,69.5,132.7,105.4,198.5
			c11.1,20.4,23.5,40.5,38.3,58.6c19.9,24.4,44.3,26.5,71.4,9c22.7-14.7,41.5-33.4,53.4-56.5c12.5-24.4,22.3-50,33.6-75.1
			c42.1-93.7,65.9-191.2,69-302.9L7991.3,1549.2z"/>
		<path class="st2" d="M7991.3,1549.2l-25.8,1c-1.3-12.6-2.5-35.2-6.4-57.4c-6.1-35-18.4-68.2-42.1-96.9
			c-18.5-22.1-42.7-35.4-73.5-33.6c-52.5,3.2-101.9,44-115.6,93.6c-13.8,50.2,5.3,95.6,52.9,125.1c23.7,14.7,43.1,8.4,52.9-16.3
			c1.9-4.7,8.5-10.1,13.7-11c4.3-0.7,11.2,3.7,14.6,7.7c4.5,5.2,7.2,11.9,9.9,18.4c20.7,48.3,22,98.4,13.9,149
			c-5.9,35.8-17.1,70.2-39.2,100.5c-19.7,26.8-46.8,29.5-70.4,5.7c-18.4-18.5-34.8-38.8-49.8-59.7c-25.4-35.4-44.7-73.3-61.4-112.3
			l25.2-10.6c17.2,42.2,38.8,82.4,68.2,119.4c11.7,14.6,25.2,28.3,39.2,41.1c10.5,9.5,19,8.3,26.1-3.8c9.2-15.6,17.9-31.9,23.9-48.8
			c14.7-40.9,10.3-83,6.5-125c-1-10.1-3.6-20-5.7-30.7c-29.7,18.2-49.5,19.3-80,4.3c-9.4-4.6-18.7-10.2-26.3-17
			c-41.9-36.6-56.4-82.1-45-133.7c13-58.2,46.3-102.5,109.6-122.6c10-3.2,20.8-4.3,31.2-6.4c4.1,0,8.3,0,12.4,0
			c6.8,1.2,13.6,2.3,20.4,3.7c40.4,8.9,66.5,33.7,85.7,66.1c20.7,34.8,28.5,72.9,32.5,112.1
			C7990.1,1523.7,7990.9,1536.5,7991.3,1549.2z"/>
		<path class="st2" d="M7959.1,1492.8c3.8,22.2,5,44.8,6.4,57.4c-3.1,111.7-26.9,209.2-69,302.9c-11.3,25-21.1,50.7-33.6,75.1
			c-11.9,23.1-30.7,41.8-53.4,56.5c-27.1,17.6-51.6,15.4-71.4-9c-14.8-18.2-27.2-38.2-38.3-58.6c-35.9-65.8-71.9-131.6-105.4-198.5
			c-15.8-31.7-25.6-66-38.7-99c-10.1-25.4-22.9-50-30.9-76c-7.3-23.6-11.4-48.4-13.3-72.9c-0.8-11.2,5.2-23.9,11.5-34.1
			c7.5-12.2,19.1-13.3,30.2-3.7c9.5,8.3,19.1,17.7,24.5,28.4c18.4,36.6,37.2,73.4,51.7,111.4c11.5,30.3,22.9,60.5,35.7,90.3
			c16.7,39,36,76.9,61.4,112.3c15,20.9,31.5,41.3,49.8,59.7c23.6,23.8,50.8,21.2,70.4-5.7c22.2-30.3,33.4-64.7,39.2-100.5
			c8.1-50.7,6.8-100.7-13.9-149c-2.7-6.5-5.3-13.1-9.9-18.4c-3.4-3.9-10.3-8.4-14.6-7.7c-5.2,0.9-11.8,6.3-13.7,11
			c-9.8,24.7-29.2,31.1-52.9,16.3c-47.5-29.6-66.7-74.9-52.9-125.1c13.7-49.6,63.2-90.4,115.6-93.6c30.8-1.8,55,11.5,73.5,33.6
			C7940.8,1424.6,7953.1,1457.8,7959.1,1492.8z"/>
		<path class="st2" d="M7532.6,1912.7c9.7,40.3-3.4,75.2-37.8,90.8c-22.5,10.3-47.6,13.6-71.5,20.1c-4.7,1.2-9.5,2.2-14.3,3.3
			c-12.6,0-25.2,0-37.8,0c-3.9-1-7.9-2.6-11.8-2.7c-19.7-0.4-39.4-0.3-59-0.7c-26.7-0.6-44.8-16.2-52.6-45.1
			c-1.7-6.6-3.5-13.1-5.2-19.7c0-12.3,0-24.6,0-36.9c3.7-34,9.8-67.9,10.9-102.1l27.9,1.2c-1.3,32.1-2.8,64.1-5,96.1
			c-3.8,55.9,10.6,76.7,62.3,76.6c30.6-2,63.8-2.7,96.8-6.8c16.2-2,32.5-8.9,47.6-16.2c14.8-7.3,22.4-22.8,19.7-40.8
			c-2.8-18.4-7.9-36.5-13.7-54.1c-0.9-2.8-1.9-5.7-2.9-8.4l28-9.4c1.3,3.6,2.6,7.4,3.9,11.1C7523,1883.5,7529,1897.8,7532.6,1912.7z
			"/>
		<path class="st2" d="M7514,1857.9l-28,9.4c-7.3-19.5-16.3-38.1-21.9-58.1c-32.4-114.5-53.4-232-67.5-350.9
			c-3.4-29.2-8.9-57.8-23.2-83.1c-6.6-11.7-14-19-27.8-13.5c-9.8,3.8-20.6,4.3-30.7,7.7c-4.2,1.4-9.6,5.4-11,9.7
			c-3.9,12.3-8.2,25.2-8.7,38.1c-3.7,98.2-6.4,196.4-9.9,294.7c-1.3,36.3-2.4,72.7-3.9,109.1l-27.9-1.2
			c4.3-134.1,6.2-268.4,11.2-402.5c1.2-33.5,14.5-65.2,35.5-90.4c16.1-19.4,46.8-21.9,68.6-3.9c13.7,11.3,25.7,27.1,34.8,43.6
			c18,32.8,21.5,71.1,27.5,108.3c16.7,102.1,28,205.4,55.8,304.8C7494.3,1806.2,7504.6,1831.9,7514,1857.9z"/>
		<path class="st2" d="M7502.6,1929.8c2.7,18-4.8,33.5-19.7,40.8c-15.1,7.4-31.4,14.2-47.6,16.2c-33,4-66.2,4.7-96.8,6.8
			c-51.7,0.1-66.1-20.7-62.3-76.6c2.2-32,3.7-64,5-96.1c1.5-36.3,2.6-72.7,3.9-109.1c3.5-98.3,6.2-196.6,9.9-294.7
			c0.5-12.9,4.7-25.8,8.7-38.1c1.4-4.2,6.8-8.3,11-9.7c10.1-3.3,20.9-3.8,30.7-7.7c13.8-5.4,21.3,1.8,27.8,13.5
			c14.3,25.3,19.8,54,23.2,83.1c14.1,119,35.1,236.4,67.5,350.9c5.5,20,14.6,38.6,21.9,58.1c1,2.7,2,5.5,2.9,8.4
			C7494.7,1893.2,7499.8,1911.4,7502.6,1929.8z"/>
		<path class="st2" d="M7392.8,1111.3c-1.5,8.4-3.3,24.8-7.7,40.5c-5.2,18.6-15.1,34.9-33.8,37.9c-21.6,3.6-40.6-3.8-54.9-23.7
			c-14.4-20.2-21.6-43.1-20.7-69c0.6-20.2-1-41.1,2.8-60.4c7.7-38.5,45.7-54,74.5-31.2C7382.8,1028.9,7392,1064,7392.8,1111.3z
			 M7354.2,1138.9c9.8-24.2,11.8-49.4,2.3-74.1c-3.9-10.3-10.9-20.2-18.6-27.6c-13.1-12.5-25.6-7.9-30.8,10.8
			c-2.6,9.3-2.7,19.4-3.9,29.2c0.1,24.8,6.9,46.7,20.6,65.7C7335.6,1159.3,7346.4,1157.8,7354.2,1138.9z"/>
		<path class="st2" d="M7356.5,1064.9c9.5,24.6,7.5,49.8-2.3,74.1c-7.8,18.9-18.6,20.4-30.4,3.9c-13.7-19-20.5-40.9-20.6-65.7
			c1.2-9.8,1.3-19.9,3.9-29.2c5.1-18.7,17.7-23.3,30.8-10.8C7345.6,1044.7,7352.5,1054.6,7356.5,1064.9z"/>
		<path class="st2" d="M7196.2,1379.5c0,13.4,0,26.8,0,40.2c-0.6,2.2-1.4,4.4-1.8,6.8c-4.1,20.9-12.2,31.9-26.5,33.1
			c-11.9,1-24,0.6-36-0.7c-26-2.8-37.9,12.4-40.9,52.3c-2.5,36,1.4,70.9,7.4,105.4c8.5,49.2,18.9,97.9,26,147.6
			c7.8,53.6,11.4,108.3,9.4,163.5c-0.9,22.4-5.1,43.6-13.1,62.7c-9.7,23.3-25,31.1-41.7,35c-38.1,9.1-76.3,6.8-114.4,1.8
			c-9.8-1.3-19.6-2.4-29.4-3.9c-19.5-2.9-28-16-30.9-45.7c-3.1-32.6,0.9-64.2,3.9-96.1c7.1-73.4,13.8-146.6,20.6-220
			c2.6-28.6,5.1-57.2,7.2-85.9c0.7-10.3,0.2-20.9-0.7-31.2c-1.8-18.9-9.2-29.5-21.8-31.9c-9.8-1.9-19.7-2.3-29.4-4.8
			c-20.1-5-27.7-18.7-29.2-49.5c-0.2-4.4-1-8.9-1.6-13.2c0-15.1,0-30.2,0-45.3c0.6-2.7,1.4-5.3,1.8-8.1
			c2.9-24.7,12.1-40.6,28.3-46.5c7.8-2.8,15.4-5.4,23.2-8.2c17-6,29.4-21.1,34.9-46.2c4.1-18.5,6.3-38,8.8-57.2
			c4.1-32-5.7-61.5-7.6-92.5c-2.6-41.6-7.4-82.8-4-125c3.5-44.1,18.4-72,43.9-80.4c3.4-1.1,6.9-2.3,10.2-3.5c5.5,0,11,0,16.4,0
			c3.6,1.4,7.4,2.5,10.9,4.1c19.8,8.7,28.6,32.1,33.2,60c7.9,46.9,5.1,94.6,4.3,142.3c-0.5,32.2-1.4,64.4-0.8,96.5
			c0.6,29.8,8.6,42.7,27.4,49.6c2.6,1,5.2,2.1,8,2.3c17.5,1.7,34.8,3.4,52.3,4.7c31.6,2.4,46.6,24.2,49.7,72.2
			C7194.7,1369,7195.6,1374.2,7196.2,1379.5z M7162.2,1427.4c10.7-2.4,14.5-10.8,14.2-27c-0.2-11.7-1.1-23.4-2.7-34.8
			c-4.8-35.4-7.5-40-30.8-43.9c-18.7-3.2-37.5-3.5-56.3-5.1c-32.9-2.8-48.1-26.2-49.1-76.7c-0.6-25-0.1-50.2-0.1-75.4
			c-0.1,0-0.2,0-0.3,0c0-17.6,0.7-35.2-0.1-52.8c-1.7-34.9-3-70.1-6.8-104.6c-3-28.4-14.7-41.5-31.6-42.5c-19.8-1-33.9,12.1-39,39.5
			c-2.9,15.9-5.1,33.2-4.2,49.3c1.9,35.3,4.1,71.2,10.1,105.3c6.8,39,5.9,76.7,1,115.3c-5.5,43.4-20.4,74.2-48.4,88.4
			c-8.8,4.4-17.5,9.3-26.1,14c-1.4,0.8-3.1,2.1-3.8,3.9c-7.2,20-15.7,38.7-13.6,64.1c1.9,23.6,8.3,34.7,23.9,35.5
			c7.4,0.3,14.8-0.3,22.1,0.5c21.5,2.2,33.2,16.5,34.6,48.9c1.5,33.6,1.5,68-1.2,101.4c-7.3,91.7-16.3,183.1-24.5,274.6
			c-2.1,22.4-4.2,44.7-5.4,67.2c-0.7,14.4,2.4,18.6,11.8,20c6.3,1,12.5,0.9,18.8,2c37.3,6.4,74.6,9.7,112,3.5
			c30.6-5,44.2-23.3,46.3-70.3c1.4-31.9,0.9-64.9-3-96.1c-10-79.2-22-157.8-33.9-236.3c-5.9-38.5-8.6-76.6-2.3-115.4
			c5.5-34.4,18.4-50.1,41.4-50.3c4.6,0,9.3,0.5,13.9,0.2C7139.9,1429.4,7151.2,1429.9,7162.2,1427.4z"/>
		<path class="st2" d="M7176.5,1400.3c0.3,16.2-3.5,24.6-14.2,27c-11,2.5-22.3,2-33.4,2.5c-4.6,0.3-9.3-0.2-13.9-0.2
			c-23,0.2-35.8,15.9-41.4,50.3c-6.3,38.8-3.5,76.9,2.3,115.4c11.9,78.5,23.9,157.1,33.9,236.3c3.9,31.2,4.4,64.2,3,96.1
			c-2.1,47-15.7,65.3-46.3,70.3c-37.4,6.2-74.7,2.8-112-3.5c-6.3-1.1-12.5-1-18.8-2c-9.4-1.4-12.5-5.5-11.8-20
			c1.2-22.5,3.3-44.8,5.4-67.2c8.2-91.5,17.3-182.9,24.5-274.6c2.7-33.4,2.7-67.8,1.2-101.4c-1.4-32.4-13.1-46.7-34.6-48.9
			c-7.3-0.8-14.7-0.2-22.1-0.5c-15.6-0.8-22-11.9-23.9-35.5c-2.1-25.3,6.5-44.1,13.6-64.1c0.7-1.8,2.4-3.1,3.8-3.9
			c8.7-4.7,17.4-9.6,26.1-14c28-14.2,42.9-45,48.4-88.4c4.8-38.6,5.8-76.3-1-115.3c-6-34.1-8.2-70-10.1-105.3
			c-0.9-16.1,1.3-33.4,4.2-49.3c5.1-27.3,19.3-40.5,39-39.5c16.9,1,28.6,14.1,31.6,42.5c3.7,34.5,5,69.7,6.8,104.6
			c0.8,17.6,0.1,35.2,0.1,52.8c0.1,0,0.2,0,0.3,0c0,25.1-0.5,50.3,0.1,75.4c1,50.4,16.2,73.9,49.1,76.7c18.8,1.6,37.6,1.9,56.3,5.1
			c23.3,3.9,25.9,8.5,30.8,43.9C7175.4,1376.9,7176.3,1388.6,7176.5,1400.3z"/>
		<path class="st2" d="M6830.6,1791.8c1.2,13.1,0,26.5,0.1,39.7c0,3.4-1.2,6.8-2,10.2c-9.4,42.3-22.1,80.4-55.7,109.6
			c-46.5,40.3-97.7,60.6-157.8,70.5c-14.6,2.4-29.4,2.6-44,3.7c-10.1,0.8-20.3-0.1-30.3,0c-3,0-6.1-1.1-9.1-1.3
			c-40.9-2.8-78.9-8.2-116.1-26.3c-18.3-8.9-33.5-20.1-44.7-38c-11.3-18.1-9.1-37.7,6.3-53.3c9.8-9.9,22.6-14.7,36-17
			c28.3-4.6,56.6-1.8,84.7,0.9c30.8,2.9,62.6,8.8,92.8,9.6c38.6,0.9,65.3-14.3,81.9-47.8c8.2-16.4,0.4-25.9-15.9-28.5
			c-10.5-1.6-22.8-0.4-33.8,0.8c-28.8,3.2-57.8,11.1-86.8,13c-37.6,2.4-73.6-6.4-109-18.1c-63.7-20.9-103.1-57.4-118-123.3
			c-4.2-18.8-2.8-37.1-5.5-55.9c-0.6-3.6-0.5-7.4,0-11c2-15.2,0.5-29.1,0.9-44.7c1-44,12.6-89,35.2-127.8
			c45.1-77.2,103.3-120.1,191-138.6c14.7-3.1,29.9-3.9,44.8-5.1c10-0.8,20.2-0.8,30.3,0.1c13.9,1.2,27.9,2.5,41.9,5.9
			c53.7,13,92.7,36.8,116,88.3c11,24.4,14.2,51,14,77.5c-0.4,46.1-14.5,85.8-46.6,119.2c-19.6,20.4-43.6,30.5-69.5,35.6
			c-8.7,1.8-17.6,2.9-26.5,3.7c-35.9,3.3-62.1-9-87.6-32.8c-9.3-8.7-16.6-19.1-25.6-27.9c-12.7-12.5-25.4-24.6-42.8-30
			c-17.4-5.4-31.8-0.9-41.8,14c-6.6,9.9-12.2,22.3-13.5,33.5c-4.2,35.8,4.8,56.5,39.5,68.7c15.6,5.7,32.9,7.6,49.6,8.4
			c40.7,2,79.8-6.9,119.8-13.2c10.8-1.7,21.5-3.6,32.3-5.5c20.8-3.6,41.6-6.9,63.1-7.2c39.6-0.7,65,17.4,81.8,52.9
			c6,12.4,9.9,26,12.9,39.4C6826.5,1759.3,6829.1,1775.7,6830.6,1791.8z M6797.6,1860.9c18.4-53.2,3.9-102.6-12.5-153.9
			c-5-15.9-19.7-24.2-35.1-29.1c-19.3-6.1-39.8-5.4-59.8-2.8c-46.8,6.3-93,15.9-139.9,21.7c-32.8,3.9-65.2,4.6-97.2-4.9
			c-25.2-7.6-43.8-21.4-50-48.2c-7.8-33.4-2.9-64.4,16.5-93.1c12.5-18.7,31.5-24.6,53.5-22.7c15.4,1.4,30.1,7.2,42.2,17.2
			c15.6,12.8,28.7,27.9,42,43.2c21.4,24.6,43.7,35.3,76.5,32.7c4.4-0.4,8.9-0.9,13.2-1.9c52.8-12.7,86.3-40.1,103-92
			c8.5-26.3,6.8-53.4,1-79.4c-12.6-57.9-44.6-93.8-103.3-105.7c-46.2-9.5-92.1-8.7-137.4,5.5c-93.9,29.5-141.6,89.9-173.2,181.1
			c-7.5,21.5-7.8,45.9-8.7,67.8c-1.1,24.7-3,47.2-0.2,71.7c7.2,62.1,36.1,103.5,96.2,126.6c53.5,20.5,108.7,19.7,165,10.9
			c24.8-3.7,49.9-11.2,74.8-8c30.3,3.9,46.3,25.3,35.3,54.7c-12.4,33.1-35.9,54.9-69.1,67.1c-26.3,9.7-53.9,5.5-81.2,3.1
			c-34.8-3.1-69.4-8.2-104.3-10.3c-14.3-0.9-27.2,4.4-38.5,12.8c-15.7,11.7-15.9,25.9-2.5,38.8c8.1,7.8,22.9,14.5,31.6,17.6
			c31.4,11.1,83.8,20,110.3,19.9c52.2-0.1,95-3.5,136.2-21.1C6741.3,1954.7,6777.1,1920,6797.6,1860.9z"/>
		<path class="st2" d="M6785.1,1707.1c16.4,51.3,30.9,100.7,12.5,153.9c-20.5,59-56.3,93.7-116,119.3c-41.2,17.6-84,21-136.2,21.1
			c-26.4,0.1-78.9-8.8-110.3-19.9c-8.7-3-23.5-9.8-31.6-17.6c-13.4-12.9-13.2-27.1,2.5-38.8c11.3-8.4,24.2-13.7,38.5-12.8
			c34.9,2.1,69.5,7.2,104.3,10.3c27.3,2.4,54.9,6.6,81.2-3.1c33.2-12.2,56.7-34,69.1-67.1c11-29.4-5-50.8-35.3-54.7
			c-24.8-3.2-49.9,4.2-74.8,8c-56.3,8.8-111.5,9.6-165-10.9c-60-23.1-89-64.6-96.2-126.6c-2.8-24.5-0.9-47,0.2-71.7
			c0.9-21.9,1.2-46.3,8.7-67.8c31.7-91.2,79.3-151.7,173.2-181.1c45.3-14.2,91.2-15,137.4-5.5c58.7,11.9,90.7,47.8,103.3,105.7
			c5.8,26,7.5,53.1-1,79.4c-16.7,52-50.2,79.3-103,92c-4.3,1-8.8,1.5-13.2,1.9c-32.8,2.6-55.1-8.1-76.5-32.7
			c-13.3-15.2-26.3-30.4-42-43.2c-12.1-10-26.7-15.7-42.2-17.2c-22-1.9-41,4-53.5,22.7c-19.5,28.8-24.3,59.7-16.5,93.1
			c6.3,26.8,24.8,40.7,50,48.2c32,9.6,64.4,8.9,97.2,4.9c46.9-5.8,93.1-15.4,139.9-21.7c20.1-2.6,40.6-3.2,59.8,2.8
			C6765.4,1682.9,6780,1691.1,6785.1,1707.1z"/>
		<path class="st2" d="M6303.3,1904.2v11.4c-0.7,1.8-2,3.4-2.1,5.2c-1.4,23.8-15,39.7-34.8,50.4c-11.3,6.2-23.4,11.4-35.7,14.9
			c-58.4,16.7-118.1,27.6-178.4,34.7c-12.7,1.5-25.4,3.2-38.1,4.8h-29.8c-3.6-0.8-7.2-2-10.8-2.2c-56.7-2.9-110.9-15.9-162.4-39.7
			c-75.3-34.7-125.6-89.9-148.2-167.6c-3.2-28.2-6.3-56.4-7.9-84.8c1-5.7,1.6-11.3,1.2-16.8c-3.2-39.2,11-74.1,24.3-109.6
			c27.2-72.4,75.7-127.1,138-171.2c62.6-44.3,128.6-80.6,204.3-97.4c42.5-9.5,78.7-1,107.1,33.6c49.2,59.8,83.7,127.6,105.2,201.7
			c12.9,44.3-0.9,82.6-35.3,113.6c-30,27-66.3,43.3-101.3,62.2c-58.3,31.3-120.8,48.3-185.9,57.6c-19.9,2.7-39.7,6.7-59.4,10
			c-0.2,1.2-0.4,2.3-0.7,3.5c14.9,3.3,29.7,7.6,44.7,10c45.1,7.4,88.8-3.1,132.6-12.2c61.6-12.7,123.3-25,185.2-36.1
			c31.1-5.7,48.9,5.2,62.3,34.2c12.2,26.4,21.3,53.9,23.8,83.2C6301.4,1900,6302.6,1902.1,6303.3,1904.2z M6271.3,1913.6
			c1.6-29.1-3.4-57-14.7-83.8c-6.6-15.6-18.3-23.8-35-22.3c-21.2,2-42.6,3.9-63.3,8.8c-68.3,16-136,34.9-206.4,40.1
			c-48.6,3.6-95.1-3.6-139-25.3c-4.9-2.4-11.2-8.9-11.2-13.4c0-5.3,5.1-13.2,10.1-15.4c16.5-7.5,33.6-14.9,51.3-18.8
			c30.5-6.6,61.9-9.3,92.4-15.7c68.7-14.3,131.4-44.4,192-78.5c13.8-7.8,26.2-18.6,37.7-29.6c22.3-21.6,30.1-48.3,22.6-78.7
			c-17.6-71.8-54.1-134.2-98.8-191.9c-15.3-20-37.3-30.7-63.4-27.8c-14.3,1.6-28.6,5.2-42.3,9.8c-75.4,24.7-141.7,66-203.6,114.6
			c-41.4,32.5-71.5,74-89.8,123.6c-8.6,23.1-17.9,46-22.1,70.1c-1.2,2.1-2,4.7-2.2,7.7c-0.2,3.8-0.4,7.8-0.7,11.8
			c-4.3,27.8-7.9,56.4-0.5,82.8c3.3,41.3,14.5,81,45.2,105.7c15,18.7,33.5,34.9,55.9,48.4c64.8,39.1,135.2,59.3,233.4,59.5
			c27.7-3.5,77.7-8,126.7-17c33.1-6,65.4-17.6,97.6-27.9C6260.2,1944.9,6270.3,1931.9,6271.3,1913.6z"/>
		<path class="st2" d="M6256.6,1829.8c11.3,26.8,16.3,54.8,14.7,83.8c-1,18.3-11.1,31.3-28.2,36.7c-32.2,10.4-64.5,22-97.6,27.9
			c-49,9-99,13.4-126.7,17c-98.2-0.2-168.6-20.4-233.4-59.5c-22.4-13.5-40.9-29.8-55.9-48.4c-30.7-24.7-41.9-64.5-45.2-105.7
			c-7.4-26.4-3.8-55,0.5-82.8c0.3-4,0.5-8,0.7-11.8c0.2-2.9,1-5.5,2.2-7.7c4.2-24.1,13.5-47,22.1-70.1
			c18.3-49.6,48.4-91.1,89.8-123.6c62-48.6,128.2-89.9,203.6-114.6c13.7-4.5,27.9-8.2,42.3-9.8c26-2.8,48,7.9,63.4,27.8
			c44.7,57.7,81.2,120.1,98.8,191.9c7.5,30.4-0.3,57.1-22.6,78.7c-11.5,11-23.9,21.8-37.7,29.6c-60.6,34.1-123.3,64.2-192,78.5
			c-30.6,6.5-62,9.2-92.4,15.7c-17.7,3.8-34.7,11.3-51.3,18.8c-4.9,2.2-10.1,10.1-10.1,15.4c0,4.5,6.3,11,11.2,13.4
			c43.9,21.7,90.4,29,139,25.3c70.4-5.1,138.1-24,206.4-40.1c20.7-4.8,42.1-6.8,63.3-8.8C6238.3,1806,6250,1814.1,6256.6,1829.8z
			 M6061.8,1662.6c23.5-17.4,31.3-51.8,21.2-79.9c-7.9-22.1-30.5-36.5-60.9-35.7c-23.2,0.6-46.5,2.9-69.3,7
			c-38.4,6.8-75.9,17.3-108.6,40.1c-18.7,13-33.2,29.4-39.4,51.8c-1.6,5.8-3,12.4-1.6,17.9c5.5,21.3,19.3,35.4,41,40.2
			c12.2,2.7,24.8,3.7,34.3,5c47.6-3.7,92.2-7.6,134.9-21.4C6030.6,1682,6047.4,1673.2,6061.8,1662.6z"/>
		<path class="st2" d="M6083,1582.7c10.1,28.2,2.3,62.6-21.2,79.9c-14.4,10.6-31.3,19.4-48.4,24.8c-42.7,13.8-87.3,17.7-134.9,21.4
			c-9.5-1.3-22.1-2.3-34.3-5c-21.7-4.7-35.4-18.9-41-40.2c-1.4-5.4,0-12.1,1.6-17.9c6.2-22.4,20.7-38.7,39.4-51.8
			c32.7-22.8,70.1-33.3,108.6-40.1c22.8-4,46.1-6.4,69.3-7C6052.6,1546.1,6075.2,1560.6,6083,1582.7z M6042.6,1638.2
			c14.5-12.2,18.7-26.4,13-42.9c-4.5-13.4-17.4-22.4-35.5-21.8c-54.1,1.9-105.6,14.3-152.9,41.3c-10.7,6.1-20.1,15.4-27.7,25.1
			c-13.6,17.1-9.8,29.3,11.4,35.8c14,4.3,29,5.4,41.1,7.6c18.4-2.2,34-3.4,49.4-6c29.1-4.7,57.3-12.3,83.2-26.9
			C6030.9,1646.8,6037,1642.8,6042.6,1638.2z"/>
		<path class="st2" d="M5905.6,1232.2c24.3-72.2,11.8-137.6-43.3-191.2c-58.2-56.5-129-82.2-210-71.3
			c-58.2,7.9-106.2,29.4-143.4,64.4l-22.2-16.5c30.9-27.5,61.2-56.6,102.3-66.7c111.1-27.5,214.1-12.2,298.2,70.8
			c94.3,93.3,67.7,238.5-3.1,305.6c-44.4,42.1-114.2,57.2-164.7,34.5c-24.7-11.2-43.7-28.6-55.9-53.1
			c-10.1-20.3-19.9-40.8-30.3-60.8l22.3-11.5c5.1,9.9,10.2,19.9,15.3,29.8c13.1,25,29,47.7,54,62.2c50.2,29.2,124.4,9.2,156.9-43.5
			C5891.7,1268.6,5899.4,1250.4,5905.6,1232.2z"/>
		<path class="st2" d="M5862.3,1041c55.1,53.6,67.6,119,43.3,191.2c-6.2,18.2-13.8,36.3-23.8,52.6c-32.5,52.7-106.6,72.6-156.9,43.5
			c-25-14.4-40.9-37.1-54-62.2c-5.1-9.9-10.2-19.9-15.3-29.8c-6-11.5-12.1-23-18.9-34.1c-7.9-12.9-17.5-25.3-28.4-35.9
			c-32.4-31.5-81.5-23.3-100.7,17.8c-8.1,17.2-11.7,36.8-14.1,55.8c-3.9,30.7-5.3,61.7-8,95.2c2,19,2.9,40.4,6.8,61.2
			c6.8,36.4,20.6,48.8,57.5,54.8c13.5,2.1,27.5,2,40.6,5.8c8.6,2.4,16.7,8.8,23,15.3c6.3,6.6,0.1,12.4-6,15
			c-14.6,6.6-29.7,12.1-44.6,18c-3,1.1-6.3,1.5-9.4,2.3c-36.6,9.5-51.9,31.8-42.5,68.2c7.7,29.9,17.2,59.6,29.1,88.1
			c33.5,79.4,38.7,162.4,34.2,246.8c-1.2,22.3-8,43.7-22.8,61.4c-18.4,21.8-42.6,27.9-68.8,21.4c-27.1-6.7-35.7-30.4-36.3-54.3
			c-0.9-43.4-0.4-87.1,3.4-130.3c4.8-54,7.1-107.6-0.4-161.4c-3.1-22.7-2.4-45.9-3.7-68.8c-0.5-10-1.3-20.1-2.7-30
			c-1.7-12-9.1-17.6-21.3-19.2c-11.9-1.5-23.7-4.7-35.1-8.5c-12.1-3.9-14.9-10.5-7.9-21.1c5-7.8,12.3-15.8,20.6-19.3
			c37.5-15.4,41-44.2,36.1-78c-12.4-87.9-22.9-176.8,7.5-263.1c15.1-43.2,37.4-78.4,66.2-105.5c37.1-35,85.2-56.5,143.4-64.4
			C5733.2,958.8,5804.1,984.5,5862.3,1041z"/>
		<path class="st2" d="M5655.5,1236.4l-22.3,11.5c-3.4-6.8-7-13.4-10.6-20.1c-7.1-12.9-16.1-25.2-26.5-35.7
			c-18.1-18.1-39.4-15.7-55.2,4.3c-15.8,20.1-20.9,44.3-24.3,68.7c-5.3,37.3-4.8,74.9,2.5,112c6.6,33.4,21.4,45.3,57.9,48.5
			c12,1.1,24,2.7,35.8,5.2c13.5,3,23.9,11.1,30.9,23.3c11.9,20.9,9,40.2-11.6,52.4c-15.9,9.5-34.4,15-51.9,21.9
			c-7.5,2.9-15.5,4.2-23.1,7.2c-17.9,6.9-23.6,16.4-18,34.9c6.8,22.2,15.6,43.9,23.8,65.7c24.4,64.7,38.1,131.5,39.9,200.6
			c0.8,30.9,2.4,62.1-0.5,92.7c-2.7,28.7-16.9,54.4-38.5,73.5c-11.8,10.4-28.4,15.4-42.8,22.8c-10.5,0-21,0-31.5,0
			c-4.1-1.1-8.3-2.4-12.5-3.3c-40.4-8.3-61.6-34.2-61.6-80.4c0.1-41.1,2-82.2,5.4-123.1c4.6-53.7,5.1-107-1.5-160.5
			c-2.8-22.6-1.5-45.8-2-68.8c-0.2-5.7-0.1-11.3-0.2-17c-0.2-9.4-3-15-14.3-16.3c-11.7-1.4-23.8-4.9-34.4-10.1
			c-33.8-16.4-37.8-52.5-9.2-76.3c10.9-9,22.8-16.7,33.7-25.7c10.8-8.9,15.1-19.2,13-34.8c-9.4-71.6-15.5-143.6-7.7-215.8
			c7.6-69.6,35.5-128.8,88.5-176.1l22.2,16.5c-28.8,27.1-51.1,62.4-66.2,105.5c-30.4,86.4-19.9,175.3-7.5,263.1
			c4.8,33.8,1.4,62.6-36.1,78c-8.3,3.4-15.5,11.5-20.6,19.3c-7.1,10.6-4.2,17.2,7.9,21.1c11.4,3.7,23.2,7,35.1,8.5
			c12.2,1.6,19.6,7.2,21.3,19.2c1.4,9.9,2.2,20,2.7,30c1.3,22.9,0.6,46.1,3.7,68.8c7.5,53.9,5.2,107.5,0.4,161.4
			c-3.8,43.2-4.3,86.9-3.4,130.3c0.6,23.9,9.2,47.6,36.3,54.3c26.2,6.6,50.4,0.4,68.8-21.4c14.8-17.8,21.6-39.1,22.8-61.4
			c4.5-84.4-0.7-167.4-34.2-246.8c-11.9-28.5-21.4-58.2-29.1-88.1c-9.4-36.4,5.9-58.7,42.5-68.2c3.1-0.8,6.4-1.2,9.4-2.3
			c14.9-5.9,30-11.4,44.6-18c6.1-2.6,12.2-8.5,6-15c-6.3-6.6-14.4-12.9-23-15.3c-13-3.7-27-3.6-40.6-5.8
			c-36.9-6-50.8-18.4-57.5-54.8c-3.8-20.9-4.7-42.3-6.8-61.2c2.6-33.5,4-64.6,8-95.2c2.4-19,6.1-38.6,14.1-55.8
			c19.2-41.1,68.3-49.2,100.7-17.8c10.9,10.6,20.5,23,28.4,35.9C5643.4,1213.4,5649.6,1224.9,5655.5,1236.4z"/>
		<path class="st2" d="M5132.9,1783.8c1.2,13-0.1,26.5,0,39.7c0.1,3.4-1.2,6.8-1.9,10.2c-9.5,42.3-22.1,80.3-55.8,109.6
			c-46.4,40.3-97.6,60.6-157.7,70.5c-14.6,2.4-29.4,2.6-44,3.7c-10.1,0.7-20.3-0.1-30.3,0c-3.1,0-6.1-1.1-9.2-1.3
			c-40.8-2.8-78.8-8.2-116-26.3c-18.3-8.9-33.5-20.1-44.8-38c-11.3-18.1-9-37.7,6.4-53.3c9.8-9.9,22.5-14.7,36-17
			c28.3-4.6,56.6-1.8,84.7,0.9c30.8,2.9,62.6,8.8,92.8,9.5c38.5,1,65.3-14.2,81.9-47.7c8.1-16.4,0.4-25.9-16-28.5
			c-10.4-1.6-22.7-0.4-33.7,0.8c-28.8,3.2-57.8,11.1-86.8,13c-37.6,2.4-73.6-6.4-109-18.1c-63.7-21-103.1-57.4-118-123.3
			c-4.2-18.8-2.8-37.1-5.6-55.9c-0.5-3.6-0.4-7.4,0-11.1c2-15.1,0.6-29,1-44.6c0.9-44,12.6-89.1,35.2-127.8
			c45.1-77.2,103.3-120.1,190.9-138.6c14.8-3.1,30-3.9,44.8-5.1c10-0.8,20.3-0.8,30.3,0.1c14,1.2,27.9,2.5,42,5.9
			c53.6,13,92.6,36.7,115.9,88.3c11.1,24.4,14.3,51,14.1,77.5c-0.4,46.1-14.5,85.8-46.6,119.2c-19.6,20.4-43.6,30.5-69.6,35.6
			c-8.6,1.7-17.5,2.8-26.4,3.7c-35.9,3.3-62.1-9-87.7-32.8c-9.2-8.7-16.5-19.1-25.5-27.9c-12.7-12.5-25.4-24.6-42.8-30
			c-17.4-5.4-31.8-0.9-41.8,14c-6.7,9.9-12.2,22.2-13.5,33.5c-4.3,35.8,4.8,56.5,39.4,68.7c15.7,5.7,32.9,7.6,49.7,8.4
			c40.7,2,79.8-6.9,119.8-13.2c10.8-1.7,21.6-3.7,32.3-5.5c20.8-3.6,41.6-6.9,63.1-7.3c39.6-0.6,65,17.5,81.8,53
			c5.9,12.3,9.9,26,12.9,39.4C5128.7,1751.3,5131.4,1767.6,5132.9,1783.8z M5099.8,1852.8c18.5-53.1,4-102.5-12.4-153.8
			c-5.1-15.9-19.8-24.2-35.1-29.1c-19.4-6.1-39.9-5.5-59.8-2.8c-46.9,6.3-93,15.9-140,21.7c-32.7,3.9-65.2,4.6-97.1-4.9
			c-25.2-7.6-43.8-21.4-50-48.2c-7.8-33.4-2.9-64.4,16.4-93.1c12.6-18.7,31.6-24.6,53.5-22.7c15.5,1.4,30.2,7.2,42.3,17.2
			c15.6,12.8,28.7,27.9,41.9,43.2c21.5,24.6,43.7,35.3,76.6,32.7c4.4-0.4,8.9-0.9,13.1-1.9c52.9-12.7,86.3-40.1,103.1-92
			c8.5-26.3,6.8-53.4,1-79.4c-12.7-57.9-44.6-93.8-103.4-105.8c-46.1-9.4-92-8.6-137.4,5.7c-93.8,29.4-141.5,89.9-173.2,181.1
			c-7.5,21.5-7.7,45.9-8.7,67.8c-1.1,24.7-3,47.2-0.2,71.7c7.2,62.1,36.2,103.5,96.3,126.6c53.5,20.5,108.7,19.6,165,10.9
			c24.7-3.8,49.8-11.2,74.8-8c30.3,3.9,46.3,25.3,35.3,54.7c-12.4,33.1-36,54.9-69.1,67.1c-26.4,9.7-53.9,5.5-81.3,3.1
			c-34.7-3.2-69.4-8.3-104.3-10.3c-14.3-0.9-27.1,4.4-38.4,12.8c-15.8,11.7-15.9,25.9-2.6,38.8c8.2,7.8,23,14.5,31.6,17.6
			c31.4,11.1,83.8,20,110.4,19.9c52.1-0.1,95-3.5,136.2-21.1C5043.6,1946.6,5079.4,1911.8,5099.8,1852.8z"/>
		<path class="st2" d="M5087.4,1699c16.4,51.3,30.9,100.7,12.4,153.8c-20.4,59-56.2,93.8-115.9,119.4c-41.2,17.6-84.1,21-136.2,21.1
			c-26.5,0.1-79-8.8-110.4-19.9c-8.6-3-23.4-9.8-31.6-17.6c-13.3-12.9-13.2-27.1,2.6-38.8c11.3-8.4,24.1-13.7,38.4-12.8
			c34.9,2,69.6,7.1,104.3,10.3c27.4,2.4,54.9,6.6,81.3-3.1c33.1-12.2,56.7-34,69.1-67.1c11-29.4-5-50.8-35.3-54.7
			c-24.9-3.2-50,4.1-74.8,8c-56.3,8.7-111.5,9.6-165-10.9c-60-23.1-89.1-64.6-96.3-126.6c-2.8-24.5-0.9-47,0.2-71.7
			c1-21.9,1.2-46.3,8.7-67.8c31.8-91.2,79.4-151.8,173.2-181.1c45.4-14.2,91.3-15,137.4-5.7c58.8,12,90.7,47.9,103.4,105.8
			c5.8,26,7.5,53.1-1,79.4c-16.9,52-50.2,79.3-103.1,92c-4.2,1-8.7,1.5-13.1,1.9c-32.9,2.6-55.1-8.1-76.6-32.7
			c-13.2-15.2-26.2-30.4-41.9-43.2c-12.1-10-26.7-15.7-42.3-17.2c-21.9-1.9-40.9,4-53.5,22.7c-19.4,28.8-24.2,59.7-16.4,93.1
			c6.3,26.8,24.8,40.7,50,48.2c31.9,9.6,64.4,8.9,97.1,4.9c47-5.8,93.1-15.4,140-21.7c20-2.7,40.5-3.2,59.8,2.8
			C5067.6,1674.8,5082.2,1683.1,5087.4,1699z"/>
		<path class="st2" d="M4595.8,1852.3c0,17.7,0,35.2,0,52.8c-0.9,3.2-2.4,6.5-2.8,9.8c-4.3,36.1-20.6,61.3-47.4,77.2
			c-23.9,14.1-49.4,19.2-75.5,21c-33.6,2.3-67.3,3.7-100.8,6.3c-47.8,3.6-55.5-1.9-73.3-55.3c0-14.5,0-29.2,0-43.8h29.4
			c0,5.4,0.2,10.8,0.6,16.2c2.7,33.9,18.8,48.9,46.9,45.4c22.4-2.8,45.1-3.6,67.6-5.7c17.9-1.6,35.8-2.5,53.5-5.9
			c37.4-6.9,61.4-30.7,65.8-66.4c2.5-20.3,2.9-41.3,2.2-61.7c-0.7-21.8-2.1-43.5-4-65.1l27.2-2.2
			C4588.7,1800.7,4592.3,1826.5,4595.8,1852.3z"/>
		<path class="st2" d="M4585.2,1774.9l-27.2,2.2c-2.2-24.3-5-48.4-8.4-72.4l25.3-3.5C4578.4,1725.7,4581.9,1750.3,4585.2,1774.9z"/>
		<path class="st2" d="M4574.9,1701.1l-25.3,3.5c-6.3-45.5-13.9-90.7-21.4-136c-10.9-66.1-19.9-132.8-26.9-199.7
			c-4.7-45.5-5.4-91.6-6.6-137.5c-1.3-54.1-0.5-108.3-1.8-162.4c-0.4-21.5-2.5-43.3-6.4-64.3c-4.3-23.9-16.7-32-36.4-26.4
			c-8.6,2.5-17,6.9-25.4,10.3c-26.1,10.5-37.4,32.3-37.2,65.6c0.6,87.9,0.2,175.7,0.2,240.8c-2.8,86.6-4.2,150.5-7.3,214.5
			c-5.1,110.5-19.3,219.3-43.2,326.2c-6.2,27.7-11.8,55.6-11.8,84.5H4296c0-7.1,0-14.2,0-21.4c2.2-17.6,4.3-35.2,6.9-52.7
			c13.4-91.2,33.9-180.9,38.2-274.1c3.9-84.4,11.7-168.5,13.5-252.9c2-89.7-0.6-179.5-1.8-269.2c-0.6-45.6,15.7-77.1,50.3-94.4
			c11.3-5.8,23.1-10.1,34.9-14.5c7.2-2.7,14.6-4.3,21.9-6.5c4.2,0,8.6,0,12.8,0c1.4,1,2.7,2.7,4.2,2.8c24,3,36.8,20.8,40.1,48
			c3.3,28.6,5.2,57.4,6.2,86.3c2.1,61.9,2,123.9,5.1,185.7c3.6,69.9,7.5,140,15.4,209.4C4552.8,1545,4563.9,1623,4574.9,1701.1z"/>
		<path class="st2" d="M4562,1842.2c0.7,20.5,0.3,41.5-2.2,61.7c-4.3,35.7-28.4,59.5-65.8,66.4c-17.7,3.3-35.6,4.2-53.5,5.9
			c-22.5,2-45.2,2.8-67.6,5.7c-28.2,3.5-44.2-11.5-46.9-45.4c-0.4-5.4-0.6-10.8-0.6-16.2c0-28.9,5.7-56.7,11.8-84.5
			c23.9-107,38-215.7,43.2-326.2c3-64,4.4-127.9,7.3-214.5c0-65.2,0.4-153-0.2-240.8c-0.2-33.3,11.1-55.1,37.2-65.6
			c8.5-3.4,16.9-7.8,25.4-10.3c19.7-5.5,32.1,2.5,36.4,26.4c3.8,21,6,42.8,6.4,64.3c1.3,54.2,0.5,108.4,1.8,162.4
			c1.1,45.9,1.8,92,6.6,137.5c7.1,66.9,16,133.6,26.9,199.7c7.5,45.3,15.1,90.5,21.4,136c3.3,24,6.2,48.1,8.4,72.4
			C4559.9,1798.7,4561.3,1820.4,4562,1842.2z"/>
		<path class="st2" d="M4260,1854.5c0,17.6,0,35.1,0,52.7c-0.9,3.3-2.4,6.5-2.8,9.8c-4.3,36.2-20.6,61.3-47.4,77.3
			c-23.8,14-49.4,19.2-75.5,20.9c-33.6,2.3-67.3,3.7-100.8,6.3c-47.8,3.6-55.5-1.8-73.3-55.3c0-14.5,0-29.2,0-43.7h29.4
			c0,5.3,0.2,10.7,0.6,16.1c2.7,33.9,18.8,48.9,46.9,45.4c22.5-2.7,45.1-3.5,67.6-5.5c17.9-1.6,35.8-2.6,53.5-5.9
			c37.4-7,61.4-30.8,65.8-66.5c2.5-20.3,2.9-41.2,2.2-61.7c-0.7-21.8-2-43.4-4-65l27.2-2.2C4252.9,1802.8,4256.5,1828.7,4260,1854.5
			z"/>
		<path class="st2" d="M4249.4,1777.1l-27.2,2.2c-2.1-24.2-5-48.4-8.4-72.5l25.3-3.5C4242.6,1727.9,4246.1,1752.5,4249.4,1777.1z"/>
		<path class="st2" d="M4239.1,1703.2l-25.3,3.5c-6.3-45.4-13.9-90.6-21.4-135.9c-10.8-66.2-19.9-132.9-26.9-199.8
			c-4.7-45.4-5.4-91.6-6.6-137.4c-1.3-54.2-0.5-108.4-1.7-162.4c-0.5-21.5-2.6-43.3-6.5-64.3c-4.3-23.9-16.7-32-36.4-26.4
			c-8.6,2.4-16.9,6.8-25.4,10.2c-26.1,10.5-37.4,32.4-37.2,65.7c0.6,87.8,0.2,175.6,0.2,240.7c-2.8,86.7-4.2,150.6-7.3,214.5
			c-5.1,110.5-19.3,219.4-43.2,326.3c-6.2,27.7-11.8,55.6-11.8,84.5h-29.4c0-7.2,0-14.2,0-21.4c2.2-17.6,4.3-35.2,6.9-52.8
			c13.4-91.2,33.9-180.9,38.2-274c3.9-84.4,11.7-168.5,13.5-252.9c2-89.7-0.6-179.5-1.8-269.3c-0.6-45.5,15.7-77.1,50.3-94.4
			c11.3-5.7,23.1-10.1,34.9-14.5c7.2-2.7,14.6-4.3,21.9-6.5c4.3,0,8.6,0,12.8,0c1.4,1,2.7,2.7,4.2,2.9c24,2.9,36.9,20.7,40.1,47.9
			c3.3,28.6,5.2,57.5,6.2,86.3c2.1,62,2,123.9,5.1,185.7c3.6,70,7.5,140.1,15.4,209.5C4217,1547.2,4228.1,1625.1,4239.1,1703.2z"/>
		<path class="st2" d="M4226.2,1844.3c0.7,20.6,0.3,41.5-2.2,61.7c-4.3,35.7-28.4,59.5-65.8,66.5c-17.7,3.2-35.6,4.2-53.5,5.9
			c-22.5,2-45.1,2.8-67.6,5.5c-28.2,3.5-44.2-11.5-46.9-45.4c-0.4-5.4-0.6-10.8-0.6-16.1c0-28.9,5.7-56.7,11.8-84.5
			c23.9-107,38-215.8,43.2-326.3c3-63.9,4.4-127.8,7.3-214.5c0-65.2,0.4-153-0.2-240.7c-0.2-33.3,11.1-55.2,37.2-65.7
			c8.6-3.4,16.9-7.8,25.4-10.2c19.7-5.5,32.1,2.5,36.4,26.4c3.8,21,6,42.8,6.5,64.3c1.2,54.1,0.4,108.3,1.7,162.4
			c1.1,45.8,1.8,92,6.6,137.4c7.1,66.9,16.1,133.6,26.9,199.8c7.5,45.3,15.1,90.5,21.4,135.9c3.3,24.1,6.3,48.3,8.4,72.5
			C4224.2,1800.9,4225.5,1822.5,4226.2,1844.3z"/>
		<path class="st2" d="M3908.8,1546.6c4,47-8,93-13,139.4c-7.5,67.5-14.6,135,0.2,202.6c3.4,15.4,6.1,31,9.1,46.4
			c-0.1,3.9-0.2,7.9-0.3,11.7c-0.7,1.3-1.7,2.6-2.3,4c-5.3,14.8-17.7,20.4-31.7,12.9c-6.5-3.4-12.4-8.5-17.2-14
			c-14-16.3-31.3-20.8-50.9-13.8c-12.2,4.2-23.5,10.9-34.9,17.1c-25.6,14-50.4,29.7-76.8,42.4c-52.5,25.4-108.2,29.1-164.5,16.6
			c-50.9-11.2-65.8-44.9-50.6-96.4c4.5-15.5,15.2-30.3,26.2-42.6c48.3-53.7,105.4-96.7,165.6-135.8c8.9-5.9,17.9-11.5,26.8-17.2
			c26.7-16.7,51.4-35.7,67.8-63.3c21.1-35.2,21.3-71.3,3.1-107.8c-7.6-15.1-17.5-16.6-25.4-1.7c-10.5,19.9-18.5,41.4-25.4,62.8
			c-5.1,15.9-4.8,33.7-10.5,49.3c-9.9,27.2-26,47.3-46.9,61.9c-16.3,11.2-35.4,19.1-56.9,24.3c-54.3,13.3-100-1.6-138.8-40.2
			c-19.2-19.1-28.5-43-30.2-70c-0.2-3-1.3-6.2-2.1-9.2c0.1-5.2,0.2-10.4,0.4-15.6c0.5-0.7,1.5-1.4,1.6-2.2
			c6-41.4,27.7-74.4,56.1-103.4c43.7-44.9,88.3-88.9,131.8-134c26.7-27.7,58.7-44.3,96.6-49.9c7-1,13.9-1.7,20.9-2.6
			c1.2,0.1,2.5,0.1,3.8,0.1c9.2,1.6,18.5,2.7,27.4,4.9c63.2,15.3,109.3,51.4,126.2,115.4C3903.3,1473.6,3905.7,1510.5,3908.8,1546.6
			z M3893.9,1585.7c1.3-56.3-2.8-95.3-11.5-133.8c-13.1-58.1-50.7-94.3-106.3-110.9c-54.9-16.2-103.4-2.1-143.8,38.3
			c-42.7,42.7-85.6,85.5-127.2,129.3c-15.7,16.5-30.8,34.7-42.3,54.4c-35.5,60.9-17.8,132.4,54.9,163.4c21.6,9.3,43,10.3,65.6,7.3
			c60.7-8.3,109.3-48.5,114.6-113.4c2.3-28.9,12.5-56.5,29.1-80.8c16.6-24.5,39.5-22.4,52.7,3.9c25.6,51.5,15.7,110.2-28.7,151.3
			c-21.1,19.5-45.5,35.5-69.5,51.4c-60.4,40-118.3,82.7-167.7,136.1c-11.7,12.6-22.1,26-25.6,43c-9.1,43.5,3.1,63.7,42.6,72.5
			c43.3,9.7,87.2,10.3,128.6-6.2c30.9-12.3,59.6-29.9,89.4-45c16.4-8.5,32.3-18.6,49.5-24.7c25.5-9.1,48.6-3.1,66.6,18.4
			c2.3,2.7,4.7,5.8,7.9,7.3c3.7,1.9,9.4,4.5,11.9,3c2.9-1.7,3.3-7.7,4.4-11.9c0.4-1.4-0.4-3.1-0.7-4.7
			c-4.7-28.6-11.2-56.8-13.8-85.6c-5.5-59.8,0.6-119.4,8.3-178.8C3887.2,1635.9,3891.6,1602.5,3893.9,1585.7z"/>
		<path class="st2" d="M3882.4,1451.9c8.7,38.4,12.8,77.5,11.5,133.8c-2.3,16.8-6.8,50.2-11.1,83.7c-7.7,59.4-13.8,119-8.3,178.8
			c2.6,28.8,9.1,57,13.8,85.6c0.3,1.6,1.1,3.3,0.7,4.7c-1.1,4.2-1.5,10.2-4.4,11.9c-2.5,1.5-8.2-1.1-11.9-3
			c-3.1-1.5-5.5-4.5-7.9-7.3c-18-21.5-41.1-27.4-66.6-18.4c-17.3,6.2-33.1,16.2-49.5,24.7c-29.8,15.1-58.5,32.7-89.4,45
			c-41.5,16.4-85.4,15.8-128.6,6.2c-39.5-8.9-51.7-29.1-42.6-72.5c3.5-17,13.9-30.4,25.6-43c49.4-53.4,107.3-96.2,167.7-136.1
			c24-15.8,48.4-31.9,69.5-51.4c44.4-41.2,54.3-99.9,28.7-151.3c-13.2-26.3-36-28.5-52.7-3.9c-16.5,24.3-26.7,52-29.1,80.8
			c-5.3,64.9-53.9,105.1-114.6,113.4c-22.6,3-44,2-65.6-7.3c-72.6-31-90.4-102.4-54.9-163.4c11.5-19.7,26.5-37.8,42.3-54.4
			c41.7-43.8,84.6-86.6,127.2-129.3c40.4-40.5,88.9-54.6,143.8-38.3C3831.8,1357.6,3869.3,1393.8,3882.4,1451.9z M3793.3,1782.8
			c4.1-20.1-7.9-32.1-28.5-29.1c-26.2,3.9-50.4,13.4-70.5,30.7c-25.6,22-50.7,44.8-74.4,68.8c-9.1,9.1-16,21.5-20.3,33.7
			c-8,22.9,8.2,43.3,38.5,43.9c6.6-1.9,19.3-3.9,30.5-9.4c49.8-24.4,87.9-61.9,114.7-110.4
			C3788.1,1802.5,3791.2,1792.5,3793.3,1782.8z"/>
		<path class="st2" d="M3764.8,1753.8c20.6-3,32.6,9,28.5,29.1c-2,9.7-5.1,19.7-9.9,28.3c-26.8,48.5-64.9,86-114.7,110.4
			c-11.2,5.4-23.9,7.5-30.5,9.4c-30.4-0.6-46.5-21-38.5-43.9c4.2-12.2,11.2-24.6,20.3-33.7c23.7-24,48.7-46.8,74.4-68.8
			C3714.3,1767.2,3738.6,1757.7,3764.8,1753.8z M3777.9,1783.5c4.4-12.4-0.6-17.3-13.5-14.7c-21.6,4.3-42.3,11.6-59,26.1
			c-25.5,22.1-50.3,45-74.6,68.5c-7.2,7-12.6,16.5-16.4,25.9c-6,14.3,2.8,26,23.6,26.8c6.8-2.4,18.9-5.2,29.7-10.7
			c37.8-19.4,67.7-48,91.4-82.8C3767.1,1810.7,3773,1797,3777.9,1783.5z"/>
		<path class="st2" d="M3657.6,1225.3c24.3-72.2,11.8-137.6-43.3-191.2c-58.2-56.4-129-82.2-210-71.3
			c-58.2,7.9-106.2,29.5-143.4,64.4l-22.2-16.5c30.9-27.5,61.1-56.5,102.3-66.7c111.1-27.4,214.1-12.2,298.2,70.9
			c94.3,93.3,67.7,238.5-3.1,305.6c-44.4,42-114.3,57.1-164.7,34.4c-24.8-11.1-43.8-28.6-56-53c-10.4-21-20.5-42.3-31.3-63.1
			l22.1-11.7c5.5,10.7,11,21.5,16.6,32.2c13.1,25,29,47.6,54,62.2c50.2,29.2,124.4,9.1,156.8-43.5
			C3643.8,1261.7,3651.5,1243.5,3657.6,1225.3z"/>
		<path class="st2" d="M3614.4,1034.1c55.1,53.6,67.6,119,43.3,191.2c-6.2,18.3-13.8,36.4-23.9,52.7
			c-32.4,52.6-106.5,72.6-156.8,43.5c-25-14.5-40.9-37.1-54-62.2c-5.7-10.7-11.1-21.5-16.6-32.2c-5.5-10.8-11.4-21.4-17.6-31.7
			c-7.9-13-17.5-25.4-28.4-36c-32.4-31.5-81.5-23.3-100.8,17.9c-8,17.1-11.6,36.8-14,55.7c-4,30.8-5.3,61.9-8,95.2
			c2,19,2.9,40.4,6.8,61.2c6.7,36.4,20.6,48.9,57.5,54.8c13.5,2.2,27.5,2.1,40.6,5.9c8.6,2.4,16.7,8.7,23,15.2
			c6.3,6.6,0.1,12.4-6,15.1c-14.6,6.5-29.7,12.1-44.7,17.9c-2.9,1.2-6.2,1.6-9.3,2.4c-36.6,9.4-51.9,31.8-42.5,68.1
			c7.6,30,17.2,59.7,29.1,88.1c33.5,79.5,38.7,162.5,34.2,246.9c-1.2,22.2-8,43.6-22.8,61.3c-18.4,21.9-42.6,27.9-68.8,21.5
			c-27.1-6.8-35.8-30.4-36.3-54.3c-0.9-43.4-0.4-87.1,3.4-130.3c4.8-54.1,7-107.6-0.4-161.5c-3.1-22.7-2.4-45.8-3.7-68.7
			c-0.6-10.1-1.3-20.2-2.7-30.1c-1.8-12-9.2-17.5-21.4-19.1c-11.8-1.5-23.6-4.7-35-8.5c-12.1-4-14.9-10.5-8-21.2
			c5.1-7.7,12.4-15.8,20.7-19.2c37.5-15.5,41-44.3,36.1-78c-12.5-87.9-22.9-176.9,7.5-263.2c15.2-43.2,37.4-78.4,66.2-105.5
			c37.1-34.9,85.2-56.5,143.4-64.4C3485.3,951.9,3556.1,977.7,3614.4,1034.1z"/>
		<path class="st2" d="M3406.3,1227.1l-22.1,11.7c-3-6-6.3-11.9-9.5-17.9c-7.1-12.9-16.1-25.3-26.5-35.7
			c-18.1-18.1-39.4-15.7-55.2,4.3c-15.8,20.1-20.9,44.3-24.3,68.6c-5.3,37.4-4.8,74.9,2.5,112c6.6,33.5,21.4,45.3,57.8,48.6
			c12,1.1,24.1,2.6,35.8,5.2c13.6,3,24,11,31,23.3c11.9,20.9,9,40.2-11.6,52.4c-16,9.5-34.4,15-52,21.9c-7.4,2.9-15.5,4.2-23,7.1
			c-17.9,6.9-23.6,16.4-18,34.9c6.8,22.3,15.6,44,23.8,65.8c24.4,64.7,38.1,131.5,39.9,200.5c0.8,31,2.4,62.2-0.5,92.8
			c-2.8,28.6-16.9,54.4-38.5,73.5c-11.8,10.4-28.4,15.3-42.8,22.8c-10.5,0-21,0-31.5,0c-4.2-1.1-8.4-2.4-12.6-3.3
			c-40.3-8.3-61.5-34.3-61.5-80.4c0.1-41.1,2-82.2,5.4-123.2c4.6-53.6,5.1-107-1.5-160.4c-2.8-22.7-1.5-45.9-2.1-68.8
			c-0.1-5.7,0-11.3-0.1-17c-0.2-9.4-3-15-14.3-16.4c-11.7-1.4-23.8-4.8-34.4-10.1c-33.8-16.4-37.9-52.4-9.2-76.2
			c10.9-9.1,22.7-16.9,33.6-25.7c10.9-9,15.2-19.3,13.1-34.8c-9.4-71.6-15.5-143.6-7.7-215.9c7.6-69.6,35.5-128.7,88.5-176.1
			l22.2,16.5c-28.8,27.1-51,62.4-66.2,105.5c-30.4,86.4-20,175.4-7.5,263.2c4.8,33.7,1.4,62.5-36.1,78c-8.3,3.3-15.5,11.5-20.7,19.2
			c-7,10.7-4.1,17.2,8,21.2c11.4,3.7,23.2,7,35,8.5c12.2,1.6,19.6,7.1,21.4,19.1c1.4,9.9,2.1,20,2.7,30.1c1.3,22.9,0.6,46,3.7,68.7
			c7.4,54,5.2,107.5,0.4,161.5c-3.8,43.2-4.3,86.9-3.4,130.3c0.5,23.9,9.2,47.5,36.3,54.3c26.2,6.5,50.4,0.4,68.8-21.5
			c14.8-17.8,21.6-39.1,22.8-61.3c4.5-84.4-0.7-167.4-34.2-246.9c-11.9-28.4-21.5-58.1-29.1-88.1c-9.4-36.3,5.9-58.7,42.5-68.1
			c3.1-0.8,6.4-1.2,9.3-2.4c15-5.8,30.1-11.4,44.7-17.9c6.1-2.7,12.2-8.6,6-15.1c-6.3-6.6-14.4-12.8-23-15.2
			c-13-3.7-27-3.6-40.6-5.9c-36.9-5.9-50.9-18.4-57.5-54.8c-3.8-20.9-4.7-42.3-6.8-61.2c2.6-33.4,3.9-64.5,8-95.2
			c2.4-18.9,6.1-38.6,14-55.7c19.3-41.2,68.4-49.3,100.8-17.9c10.9,10.6,20.5,23,28.4,36C3394.9,1205.7,3400.8,1216.3,3406.3,1227.1
			z"/>
	</g>
	<g>
	</g>
</g>
<rect x="3899.7" y="2222.4" class="st3" width="4090.1" height="180.8"/>
<text transform="matrix(1 0 0 1 4432.3228 2367.7668)" class="st4 st5 st6">The 26th Annual Music &amp; Arts Festival</text>
<rect x="3937.4" y="2942.8" class="st3" width="4090.1" height="183.8"/>
<text transform="matrix(1 0 0 1 4966.207 3125.3511)" class="st4 st5 st7">BUY TICKETS NOW!</text>
<rect x="-72" y="217.1" class="st3" width="2348.7" height="183.8"/>
<text transform="matrix(1 0 0 1 241.9985 399.7034)" class="st4 st5 st7">#fallsfestival2019</text>
<rect x="3937.4" y="5118.5" class="st3" width="4090.1" height="183.8"/>
<text transform="matrix(1 0 0 1 5599.1621 5301.0664)" class="st4 st5 st7">LINEUP</text>
<rect x="3937.4" y="8938.9" class="st3" width="4090.1" height="183.8"/>
<text transform="matrix(1 0 0 1 4655.9238 9121.5098)" class="st4 st5 st7">© falls festival 2019. Art by </text>
<rect x="3937.4" y="3557" class="st3" width="4090.1" height="183.8"/>
<text transform="matrix(1 0 0 1 4890.5664 3739.6045)" class="st4 st5 st7">SELECT A LOCATION</text>
<rect x="1870.8" y="5522.4" class="st3" width="8546.4" height="1901.6"/>
<text transform="matrix(1 0 0 1 1920.5134 5665.5957)"><tspan x="0" y="0" class="st4 st5 st8">Alice Skye • Amy Shark • Anderson .Paak &amp; The Free Nationals • Barton • Bishop Briggs • Briggs • Cashmere </tspan><tspan x="-48.1" y="240" class="st4 st5 st8">Cat (Aus only) • Catfish &amp; The Bottlemen (Aus only) • Chvrches • Cub Sport • Dermot Kennedy • Dizzee Rascal </tspan><tspan x="196.2" y="480" class="st4 st5 st8">(Aus only) • DMA’s • Eves Karydas • First Aid Kit (Aus only) • Flight Facilities • Golden Features • Hilltop </tspan><tspan x="114" y="720" class="st4 st5 st8">Hoods • Hobo Johnson &amp; The Love Makers • Hatchie • Heaps Gay DJ’s &amp; Friends • Hockey Dad • Interpol • </tspan><tspan x="-33.5" y="960" class="st4 st5 st8">Jack River • Juice Wrld • King Gizzard &amp; The Lizard Wizard • Kinder • Kota Banks • Lex Deluxe • LPX • Mahalia </tspan><tspan x="237.4" y="1200" class="st4 st5 st8">• Mallrat • Ocean Alley • Ruel • Running touch • Soccer Mommy • Odette • Set Mo • Sweater Curse • The </tspan><tspan x="485.8" y="1440" class="st4 st5 st8">Vaccines • Tired Lion • Tkay Maidza • Toto • Touch Sensitive • Triple One • Vance Joy • West The </tspan><tspan x="1172.4" y="1680" class="st4 st5 st8">Tia Gostelow • 88 Rising - Feat. Rich Brian &amp; August 08 (Aus only) • And More!</tspan></text>
<rect x="2002.9" y="4059.4" class="st3" width="1436" height="838.9"/>
<text transform="matrix(1 0 0 1 2379.217 4274.1938)"><tspan x="0" y="0" class="st1 st5 st9">Lorne </tspan><tspan x="101.5" y="246" class="st10 st5 st11">28-31 </tspan><tspan x="-112.3" y="492" class="st10 st5 st11">December</tspan></text>
<rect x="6086.6" y="4059.4" class="st3" width="2167.3" height="838.9"/>
<text transform="matrix(1 0 0 1 6555.1436 4274.1938)"><tspan x="0" y="0" class="st1 st5 st9">Byron Bay</tspan><tspan x="-26.8" y="246" class="st10 st5 st11">31 December - </tspan><tspan x="176.7" y="492" class="st10 st5 st11">2 January</tspan></text>
<rect x="8840.9" y="4059.4" class="st3" width="1272.2" height="838.9"/>
<text transform="matrix(1 0 0 1 8889.1465 4274.1934)"><tspan x="0" y="0" class="st1 st5 st9">Fremantle</tspan><tspan x="363.4" y="246" class="st10 st5 st11">5 &amp; 6 </tspan><tspan x="227.7" y="492" class="st10 st5 st11">January</tspan></text>
<rect x="4101.8" y="4059.4" class="st3" width="1477.8" height="838.9"/>
<text transform="matrix(1 0 0 1 4177.7178 4274.1938)"><tspan x="0" y="0" class="st1 st5 st9">Marion</tspan><tspan x="806.4" y="0" class="st12 st5 st9"> </tspan><tspan x="874.8" y="0" class="st1 st5 st9">Bay</tspan><tspan x="422.9" y="246" class="st10 st5 st11">29-31 </tspan><tspan x="209" y="492" class="st10 st5 st11">December</tspan></text>
<g>
	<path class="st4" d="M11623.7,327.3c41.7,0,83.4,0,125.1,0c3.9,0.4,7.9,0.9,11.8,1.1c23.8,1.6,45.9,7.7,64.2,24
		c20.8,18.6,30.1,42.9,30.6,69.9c0.9,50.4,0.9,100.8,0,151.2c-0.5,27-9.8,51.2-30.6,69.9c-18.6,16.7-41.1,23.3-65.3,23.9
		c-38.3,0.9-76.5,1.1-114.8,1.1c-14.4,0-28.8-0.7-43.1-2.1c-44.2-4.5-75-33.4-82.7-77.1c-1.7-9.4-2.2-19.1-3.3-28.6
		c0-41.7,0-83.4,0-125.1c0.7-7.3,1.4-14.6,2.2-21.9c4.8-44.4,33.4-75.3,77.3-82.9C11604.5,329,11614.2,328.4,11623.7,327.3z
		 M11545.8,497.8c0.6,0,1.2,0,1.7,0c0,23.7-0.4,47.4,0.1,71.1c0.4,16.1,3.8,31.6,14.3,44.7c13.2,16.4,31.4,22.5,51.3,22.8
		c48.7,0.6,97.4,0.5,146.1,0c15.7-0.2,30.8-4.3,43.3-14.7c15.8-13.2,21.8-31.1,22-50.5c0.6-48.7,0.5-97.4,0-146.1
		c-0.2-15.7-4.2-30.8-14.6-43.4c-13-15.7-30.7-21.8-49.9-22.1c-49.3-0.7-98.6-1.3-147.8,0.1c-39.3,1.2-60.3,21.7-64,60.8
		C11546,446.2,11546.6,472,11545.8,497.8z"/>
	<path class="st4" d="M11686.2,585.7c-48.6-0.1-87.8-39.5-87.6-88.1c0.2-48.4,39.4-87.4,87.8-87.3c48.6,0.1,87.8,39.5,87.6,88.1
		C11773.7,546.8,11734.5,585.7,11686.2,585.7z M11686.2,554.7c31.4,0,56.9-25.3,56.9-56.6c0-31.4-25.4-56.9-56.6-56.9
		c-31.3-0.1-56.9,25.4-56.9,56.7C11629.4,529.2,11654.9,554.7,11686.2,554.7z"/>
	<path class="st4" d="M11797.9,406.8c0.1,11.4-9,20.6-20.4,20.7c-11.4,0.1-20.6-9-20.7-20.4c-0.1-11.4,9-20.6,20.4-20.6
		C11788.7,386.3,11797.8,395.3,11797.9,406.8z"/>
</g>
<g>
	<path class="st4" d="M11003.4,459.8c-1.7,12.8-3.1,23.9-4.6,35c-1.1,8.4-2.5,16.9-3.5,25.3c-0.6,4.8-2.1,7.2-7.8,7.1
		c-15.8-0.4-31.7-0.1-49.3-0.1c0,47.3,0,94.2,0,141.4c-23.2,0-44.6,0-66.5,0c-0.2-2.7-0.6-5.1-0.6-7.6c-0.5-42.1-1.1-84.2-1.3-126.3
		c0-5.5-1.3-7.6-7.2-7.4c-15,0.4-30-0.1-45,0.1c-5,0.1-7-1.2-6.8-6.6c0.7-18.7,1.1-37.5,1.3-56.2c0-4.4,1.8-5.2,5.6-5.1
		c15,0.2,30,0.1,45,0.1c2.2,0,4.5,0,7.2,0c0.2-3.3,0.5-6,0.5-8.7c0.2-16.9-0.6-33.8,0.5-50.6c3.3-49.3,31.4-72.6,70.9-78.5
		c19.3-2.9,38.5-3.1,57.9-1.1c4.2,0.4,5.7,2,5.6,6.3c-0.6,17.1-1.1,34.2-1.4,51.2c-0.1,4.2-1.6,5.7-6,5.7
		c-13.1,0.1-26.3-0.3-39.2,1.3c-13.4,1.7-19.7,10.5-19.8,23.8c-0.1,14-0.4,27.9-0.6,41.9c0,2.7,0.2,5.3,0.4,9.2
		C10960.2,459.8,10981.1,459.8,11003.4,459.8z"/>
</g>
<g id="bE9xSD.tif">
	<g>
		<path class="st4" d="M10733.4,512.8c0,5.5,0,11,0,16.4c-0.1,0.8-0.3,1.6-0.4,2.4c-0.9,17.1-1.4,34.3-2.8,51.4
			c-1,11.9-2.6,23.9-5.1,35.6c-4.6,20.9-17.5,34.7-38.3,40.1c-9.4,2.4-19.2,3.4-28.9,4.2c-17.2,1.4-34.4,2.5-51.6,3
			c-25.9,0.8-51.8,1.5-77.6,1.5c-43.1,0-86.3-0.6-129.3-3.9c-11.6-0.9-23.3-1.9-34.7-4.1c-21.1-4.1-34.9-17-40.9-37.8
			c-4-13.7-5.4-27.8-6.3-41.9c-1.2-18.9-2.4-37.9-2.4-56.9c0-19.1,1.2-38.3,2.2-57.4c0.7-14.1,2.4-28.1,5.6-41.8
			c4.4-19.1,15.7-32.4,34.1-39.2c9-3.3,18.6-4.2,28.1-4.9c19.1-1.5,38.2-2.7,57.3-3.5c19.6-0.8,39.2-0.9,58.7-1.3
			c2.6-0.1,5.3-0.3,7.9-0.4c10.1,0,20.3,0,30.4,0c1.9,0.1,3.8,0.3,5.7,0.4c20.4,0.4,40.8,0.5,61.2,1.3c20.5,0.9,41,2.3,61.5,4
			c7.7,0.6,15.6,1.8,22.9,4.3c20,6.7,31.3,21.2,35.5,41.7c4.7,23.6,5.8,47.5,6.9,71.4C10733,502.6,10733.2,507.7,10733.4,512.8z
			 M10482.1,458.3c0,42,0,83.5,0,125.4c36.3-21,72.3-41.7,108.6-62.7C10554.3,500,10518.4,479.3,10482.1,458.3z"/>
	</g>
</g>
<g id="yeImX2.tif">
	<g>
		<path class="st4" d="M9396,638.7c0-72.8,0-145.6,0-218.4c5.7-17.9,16.2-29.8,36.5-29.8c92.1,0,184.2-0.1,276.3,0.1
			c20.5,0,35.4,14.1,35.5,34.6c0.3,69.5,0.3,139.1,0,208.6c-0.1,20.1-14.8,34.5-34.7,34.6c-92.9,0.2-185.8,0.1-278.7,0
			c-16.1,0-28.4-9.8-33.1-25.3C9397.3,641.6,9396.6,640.1,9396,638.7z M9691.7,633.6c0-51.9,0-103,0-155.1c-3.3,2.3-5.8,3.8-8.2,5.5
			c-35.6,25.3-71.3,50.5-106.8,76c-4.8,3.5-7.9,3.3-12.6-0.1c-35.7-25.6-71.6-51-107.5-76.4c-2.2-1.6-4.6-3-7.3-4.7
			c0,52.4,0,103.5,0,154.8C9530.3,633.6,9610.7,633.6,9691.7,633.6z M9691.9,425.9c-81.7,0-161.4,0-242.8,0
			c40.2,28.5,78.9,55.9,117.5,83.6c4,2.9,6.3,1,9.2-1.1c21.7-15.4,43.4-30.8,65.1-46.2C9657.4,450.4,9673.9,438.6,9691.9,425.9z"/>
	</g>
</g>
<g id="fNGjTR.tif">
	<g>
		<path class="st4" d="M11431.1,497.8c0.1,94.1-76.3,170.6-170.5,170.6c-94.1,0.1-170.6-76.3-170.6-170.5
			c-0.1-94.1,76.3-170.6,170.5-170.6C11354.5,327.2,11431,403.7,11431.1,497.8z M11231.8,416.2c-15.9,1.3-31.1,2-46.1,4
			c-11.6,1.5-23,4.4-34.4,7.2c-9.5,2.4-14.3,11.9-11.4,21.3c2.7,8.8,11.2,12.6,21.1,10.3c11.8-2.7,23.6-5.4,35.6-6.9
			c31.3-3.9,62.5-2.5,93.5,3.2c16.5,3.1,32.7,7.3,48.1,14c7.3,3.2,14.3,7.1,21.6,10.5c7.2,3.3,15.9,0.4,19.9-6.4
			c4.9-8.3,2.2-18.4-6.6-23.6c-10.3-6.2-21.3-11.1-32.6-15.2c-19.5-6.9-39.4-12-59.9-14.3
			C11264.2,418.6,11247.6,417.5,11231.8,416.2z M11223.1,475.6c-9.6,0.1-23.8,0.8-37.7,3.8c-8.5,1.8-16.9,3.7-25.3,5.9
			c-5.6,1.5-8.6,5.6-9.4,11.3c-0.7,5.4,1,10,5.4,13.3c3.9,2.9,8.2,3.1,12.8,1.7c14-4.2,28.3-6.8,42.8-7.4
			c12.8-0.5,25.7-0.2,38.5,0.5c17.9,1.1,35.3,5.1,52.3,10.9c12.2,4.1,23.8,9.6,35,16c3.1,1.8,6.3,2.7,9.9,1.8c5.4-1.3,9-4.6,10.1-10
			c1.1-5.7,0.1-11.2-5.1-14.7c-5.3-3.5-10.8-6.6-16.5-9.4C11301.8,482.8,11265.5,475.6,11223.1,475.6z M11336.6,567
			c0.2-4.3-2.4-7.6-6.5-10c-22.6-13.5-47.1-21.3-73.1-24.3c-21.1-2.5-42.2-1.9-63.3,1.2c-9.7,1.5-19.4,3.4-29,5.7
			c-5.1,1.2-7.7,6.4-7,12.2c0.6,4.9,4.5,8.9,9.4,9.2c2,0.1,4.1-0.2,6.1-0.6c24.9-5.6,50-8.1,75.5-5.9c14.1,1.2,27.8,4.1,41.2,8.6
			c11,3.7,21.2,9,31.4,14.5C11328.7,581.5,11337,576,11336.6,567z"/>
	</g>
</g>
<g id="rVxduN.tif">
	<g>
		<path class="st4" d="M10244.6,387.2c-6.7,10.7-14.8,20.1-24.1,28.4c-4.2,3.8-8.8,7.2-13,11c-1,0.9-1.9,2.6-1.8,4
			c1.3,53.5-14.2,101.8-45.2,145c-27.2,38-63.1,64.8-107.4,79.8c-27.5,9.3-55.8,13-84.9,11.9c-29.9-1.1-58.6-7.7-85.8-20.2
			c-9.5-4.3-18.6-9.6-27.8-15c43.2,3.3,82.2-7.3,116.8-33.8c-16.9-1-32.3-6.3-45.8-16.4c-13.5-10.1-22.8-23.2-28.2-39.2
			c6.2,0.3,11.9,0.9,17.6,0.6c5.7-0.2,11.4-1.3,17.2-2.4c-18.4-4.8-33.7-14.1-45.5-28.8c-11.8-14.7-17.7-31.6-17.7-51.2
			c11.3,5.7,22.7,9.3,36.1,9.8c-17.5-12.7-28.8-28.7-33.4-49c-4.5-20.3-1.5-39.6,8.7-58.1c43.6,51.3,98.6,79.4,165.7,84.1
			c-0.5-5.2-1.1-9.9-1.4-14.7c-1.1-18,3.6-34.5,13.9-49.2c15.1-21.5,36-33.4,62.2-34.8c22.5-1.2,42.3,6,58.7,21.4
			c3.1,2.9,5.7,3.6,9.8,2.6c14.5-3.6,28.4-8.8,41.5-16.1c1-0.6,2.1-1.1,3.9-2c-6.3,18.9-17.7,32.9-33.5,43.7
			C10216.3,396.9,10230.6,392.8,10244.6,387.2z"/>
	</g>
</g>
<g>
	<path class="st4" d="M7483,9137.6c-11.2-3.7-21.2-8.5-29.8-15.9c-8.3-7.1-14-15.8-16.9-26.4c-0.2-0.7-0.4-1.5-0.6-2.2
		c0-0.1-0.2-0.2-0.6-0.7c-0.4,1-1,1.8-1.2,2.6c-3.1,12.3-10.4,21.9-20.3,29.5c-7.4,5.7-15.8,9.6-24.6,12.6c-0.5,0.2-1.1,0.2-1.9,0.3
		c-3.1-3.3-6.5-6.3-9.1-10.6c2.2-0.7,4-1.2,5.8-1.7c8-2.4,15.5-5.9,22.1-11.2c6.9-5.6,12.1-12.4,14.5-21.1
		c6.7-24.6-14.6-47.4-37.3-45.1c-6.9,0.7-13.1,3.1-18.7,7.2c-9.5,6.9-16,16.1-20.1,27c-0.7,1.8-1.4,3.6-2.1,5.4
		c-0.1,0.2-0.3,0.3-0.6,0.6c-3.5-2.9-6.3-6.6-9.5-10.3c0.4-1.4,0.8-2.9,1.4-4.2c6.6-14.5,16.9-25.9,30.7-33.7
		c12.5-7,25.7-7.7,39.1-2.8c2,0.7,3.9,1.5,5.9,2.3c1.1-0.9,0-1.4-0.3-1.8c-5.9-6.4-8.5-14.2-9.8-22.5c-1.3-9.2-1.3-18.5-1.1-27.8
		c0-0.5,0.3-1.1,0.6-1.9c5.3-0.9,10.6-0.2,16.2-0.4c0.2,1.7,0.4,2.8,0.4,3.9c0,4.6-0.1,9.3,0.1,13.9c0.1,3.3,0.4,6.6,1,9.8
		c2,9.8,8.8,15.4,18.7,15.8c0.8,0,1.5,0,2.3,0c10.4-0.2,16.6-5,19-15.2c0.9-3.7,1-7.6,1.2-11.5c0.2-3.9,0-7.7,0.1-11.6
		c0-1.5,0.2-3,0.3-4.5c4.6-0.9,11.2-0.9,16.5-0.2c0.2,0.9,0.5,1.8,0.5,2.7c0,7.5,0,15.1-0.3,22.6c-0.3,8.7-2.8,16.7-8,23.8
		c-0.4,0.6-0.8,1.3-1.4,2.5c1.5-0.3,2.6-0.5,3.6-0.8c16.7-5.1,31.7-1.8,45.2,8.9c10.8,8.5,19.3,18.9,24.1,32.1
		c-2.7,4-6,7.4-9.8,11.1c-0.8-2-1.4-3.5-2-5.1c-3.7-10.2-9.4-19-17.7-26c-7.5-6.3-16.1-9.9-26-9.5c-4.9,0.2-9.6,1.3-13.9,3.6
		c-8.1,4.3-14.3,10.7-17.6,19.3c-4.7,12-3,23.5,4.3,34.1c4.4,6.3,10.3,11,16.9,14.7c4.6,2.6,9.4,4.5,14.4,5.9
		c1.7,0.5,3.3,0.9,5.4,1.5c-0.6,1-0.9,1.9-1.4,2.5C7488.2,9131.8,7485.7,9134.5,7483,9137.6z M7449.2,9047.3c-2.2,0.1-3.5,0-4.7,0.3
		c-7.9,1.6-15.7,0.8-23.2-2c-0.6-0.2-1.3-0.2-2.1-0.3c3.3,4.3,6.6,8.3,9.6,12.5c3,4.2,4.1,9.3,6.6,15.1
		C7437.6,9062.6,7442.5,9055,7449.2,9047.3z"/>
	<path class="st4" d="M7340.3,8963.3c0.6-0.1,1.4-0.3,2.1-0.3c43.8,0,87.6,0,131.3,0c1.4,4.1,1.6,15,0.4,20.1
		c-5.2,0.9-12.3,0.7-17.1-0.2c-1.5-0.3-3.1-0.3-4.6-0.3c-10.6,0-21.2,0-31.9,0c-1.9,0-3.8,0.6-5.7,0.7c-5.4,0.1-10.8,0.4-16.1,0
		c-2.3-0.2-4.5-0.6-6.8-0.6c-15.1,0-30.1,0-45.2,0c-2.1,0-4.2,0-6.2,0C7339.1,8978.3,7339,8968.4,7340.3,8963.3z"/>
</g>
<g id="XMLID_3_">
	<g>
		<polygon class="st13" points="11938.5,8242.3 11827.1,8242.3 11789.8,8191.1 11789.8,8139 11751.7,8139 11718.3,8093.2 
			11789.8,8093.6 		"/>
		<polygon class="st10" points="11827.1,8242.3 11789.8,8242.3 11789.8,8191.1 		"/>
		<polygon class="st14" points="11527.6,8242.3 11617.4,8242.3 11715.7,8242.3 11789.8,8242.3 11789.8,8601.5 10721.4,8601.5 
			10721.4,8242.3 10801,8242.3 10899.6,8242.3 10989.6,8242.3 11069.2,8242.3 11142.5,8242.3 11216.9,8242.3 11298,8242.3 
			11370.3,8242.3 11444.2,8242.3 		"/>
		<polygon class="st10" points="11789.8,8191.1 11789.8,8242.3 11715.7,8242.3 11669.9,8139 11751.7,8139 		"/>
		<polygon class="st13" points="11789.8,8139 11789.8,8191.1 11751.7,8139 		"/>
		<polygon class="st10" points="11751.7,8139 11669.9,8139 11649.5,8092.9 11718.3,8093.2 		"/>
		<polygon class="st13" points="11715.7,8242.3 11617.4,8242.3 11595.6,8139 11669.9,8139 		"/>
		<path class="st15" d="M11356.7,9023.2h320.6c0,88.5-71.8,160.3-160.3,160.3C11428.5,9183.5,11356.7,9111.7,11356.7,9023.2z"/>
		<path class="st15" d="M11677.3,9023.2h-320.6c0-88.5,71.8-160.3,160.3-160.3C11605.6,8862.9,11677.3,8934.6,11677.3,9023.2z"/>
		<polygon class="st13" points="11669.9,8139 11595.6,8139 11585.8,8092.6 11649.5,8092.9 		"/>
		<polygon class="st10" points="11595.6,8139 11617.4,8242.3 11527.6,8242.3 11519.7,8139 		"/>
		<polygon class="st10" points="11585.8,8092.6 11595.6,8139 11519.7,8139 11516.2,8092.3 		"/>
		<polygon class="st13" points="11519.7,8139 11527.6,8242.3 11444.2,8242.3 11444.2,8241.5 11444.2,8139 		"/>
		<polygon class="st13" points="11516.2,8092.3 11519.7,8139 11444.2,8139 11444.2,8092 		"/>
		<polygon class="st10" points="11444.2,8241.5 11444.2,8242.3 11370.3,8242.3 11370.3,8241.5 11370.3,8139 11444.2,8139 		"/>
		<polygon class="st10" points="11444.2,8092 11444.2,8139 11370.3,8139 11370.3,8091.6 		"/>
		<polygon class="st13" points="11370.3,8241.5 11370.3,8242.3 11298,8242.3 11298,8139 11370.3,8139 		"/>
		<polygon class="st13" points="11370.3,8091.6 11370.3,8139 11298,8139 11298,8091.3 		"/>
		<rect x="11216.9" y="8139" class="st10" width="81.1" height="103.3"/>
		<polygon class="st10" points="11298,8091.3 11298,8139 11216.9,8139 11216.9,8090.9 		"/>
		<polygon class="st13" points="11216.9,8139 11216.9,8242.3 11142.5,8242.3 11142.5,8241.5 11142.5,8139 		"/>
		<polygon class="st13" points="11216.9,8090.9 11216.9,8139 11142.5,8139 11142.5,8090.6 		"/>
		<polygon class="st10" points="11142.5,8241.5 11142.5,8242.3 11069.2,8242.3 11069.2,8139 11142.5,8139 		"/>
		<polygon class="st10" points="11142.5,8090.6 11142.5,8139 11069.2,8139 11069.2,8090.2 		"/>
		<polygon class="st13" points="11069.2,8139 11069.2,8242.3 10989.6,8242.3 10997.5,8139 		"/>
		<polygon class="st13" points="11069.2,8090.2 11069.2,8139 10997.5,8139 11001.2,8089.9 		"/>
		<polygon class="st10" points="11001.2,8089.9 10997.5,8139 10921.4,8139 10931.9,8089.6 		"/>
		<polygon class="st10" points="10997.5,8139 10989.6,8242.3 10899.6,8242.3 10921.4,8139 		"/>
		<polygon class="st13" points="10931.9,8089.6 10921.4,8139 10846.7,8139 10868.7,8089.3 		"/>
		<polygon class="st13" points="10921.4,8139 10899.6,8242.3 10801,8242.3 10846.7,8139 		"/>
		<polygon class="st10" points="10868.7,8089.3 10846.7,8139 10764.5,8139 10801,8089 		"/>
		<polygon class="st10" points="10846.7,8139 10801,8242.3 10721.4,8242.3 10721.4,8198 10764.5,8139 		"/>
		<polygon class="st13" points="10801,8089 10764.5,8139 10721.4,8139 10721.4,8198 10689.1,8242.3 10574.6,8242.3 10728.3,8088.6 
					"/>
		<polygon class="st13" points="10764.5,8139 10721.4,8198 10721.4,8139 		"/>
		<polygon class="st10" points="10721.4,8198 10721.4,8242.3 10689.1,8242.3 		"/>
		<polygon class="st14" points="10574.6,8242.3 10574.6,8463.3 10167.5,8463.3 10167.5,8139 10574.6,8139 		"/>
		<path class="st15" d="M10301.3,9023.2h-133.9v-162.9c76,12.5,134,78.5,134,158.1C10301.5,9020,10301.5,9021.6,10301.3,9023.2z"/>
		<path class="st15" d="M10167.5,9023.2h133.9c-2.5,86.4-73.3,155.5-160.2,155.5c-86.9,0-157.7-69.2-160.2-155.5H10167.5z"/>
		<path class="st15" d="M10237.7,7785.9v-420.4c0-10,8.1-18.1,18.1-18.1h1773.4c10,0,18.1,8.1,18.1,18.1v420.4
			c0,10-8.1,18.1-18.1,18.1h-165h-1437.4h-171.1C10245.8,7804,10237.7,7795.9,10237.7,7785.9z"/>
		<path class="st15" d="M10167.5,8483.3v377c-8.6-1.4-17.4-2.2-26.3-2.2c-88.5,0-160.3,71.8-160.3,160.3c0,1.6,0,3.2,0.1,4.8h-190.8
			v-383.8L10167.5,8483.3z"/>
		<path class="st15" d="M11585.8,8092.6l-69.6-0.3l-72-0.3l-73.8-0.3l-72.3-0.3l-81.1-0.3l-74.4-0.3l-73.3-0.3l-68-0.3l-69.4-0.3
			l-63.1-0.3l-67.7-0.3l-72.7-0.3l-153.7,153.6V8139h-407.1v-169.4c0-14.5,11.7-26.2,26.1-26.2h233.2h1437.4h156.9
			c14.5,0,26.1,11.7,26.1,26.2V8997c0,14.4-11.7,26.1-26.1,26.1h-343.8c0-88.5-71.8-160.3-160.3-160.3
			c-88.5,0-160.3,71.8-160.3,160.3h-1055.4c0.1-1.6,0.1-3.2,0.1-4.8c0-79.6-58-145.6-134-158.1v-377v-20h407.1v-221h114.5h32.3
			v359.2h1068.4v-359.2h37.3h111.4l-148.7-148.7l-71.5-0.3l-68.8-0.3L11585.8,8092.6z"/>
		<path class="st15" d="M10167.5,9023.2H9981c-0.1-1.6-0.1-3.2-0.1-4.8c0-88.5,71.8-160.3,160.3-160.3c9,0,17.8,0.7,26.3,2.2V9023.2
			z"/>
	</g>
	<g>
		<polyline class="st16" points="11864.2,7970.6 11864.2,7943.4 11864.2,7804 11864.2,7777.4 		"/>
		<polyline class="st16" points="10426.8,7979.6 10426.8,7943.4 10426.8,7804 10426.8,7786.4 		"/>
	</g>
</g>
<rect x="9895.3" y="7464.6" class="st3" width="2494.4" height="403"/>
<text transform="matrix(1 0 0 1 10503.2959 7629.1655)" class="st17 st5 st18">Privacy Policy</text>
<g id="XMLID_2_">
	<g>
		<path class="st15" d="M1100.2,8069l73.3-0.3l68-0.3l69.4-0.3l63.1-0.3l67.7-0.3l72.7-0.3l153.7,153.6v-103.3h407.1V7948
			c0-14.5-11.7-26.2-26.1-26.2h-233.2H378.5H221.6c-14.5,0-26.1,11.7-26.1,26.2v1027.4c0,14.4,11.7,26.1,26.1,26.1h343.8
			c0-88.5,71.8-160.3,160.3-160.3S886,8913,886,9001.6h1055.4c-0.1-1.6-0.1-3.2-0.1-4.8c0-79.6,58-145.6,134-158.1v-377v-20h-407.1
			v-221h-114.5h-32.3v359.2H452.9v-359.2h-37.3H304.2L452.9,8072l71.5-0.3l68.8-0.3l63.7-0.3l69.6-0.3l72-0.3l73.8-0.3l72.3-0.3
			l81.1-0.3L1100.2,8069z"/>
		<path class="st15" d="M1815.9,7782.4h171.1c10,0,18.1-8.1,18.1-18.1V7344c0-10-8.1-18.1-18.1-18.1H213.5c-10,0-18.1,8.1-18.1,18.1
			v420.4c0,10,8.1,18.1,18.1,18.1h165H1815.9z"/>
		<polygon class="st13" points="304.2,8220.7 415.6,8220.7 452.9,8169.6 452.9,8117.4 491,8117.4 524.4,8071.6 452.9,8072 		"/>
		<polygon class="st10" points="415.6,8220.7 452.9,8220.7 452.9,8169.6 		"/>
		<polygon class="st14" points="527,8220.7 452.9,8220.7 452.9,8579.9 1521.3,8579.9 1521.3,8220.7 1441.7,8220.7 1343.1,8220.7 
			1253.1,8220.7 1173.5,8220.7 1100.2,8220.7 1025.8,8220.7 944.7,8220.7 872.4,8220.7 798.5,8220.7 715.1,8220.7 625.3,8220.7 		
			"/>
		<polygon class="st10" points="452.9,8169.6 452.9,8220.7 527,8220.7 572.8,8117.4 491,8117.4 		"/>
		<polygon class="st13" points="452.9,8117.4 452.9,8169.6 491,8117.4 		"/>
		<polygon class="st10" points="491,8117.4 572.8,8117.4 593.2,8071.4 524.4,8071.6 		"/>
		<polygon class="st13" points="527,8220.7 625.3,8220.7 647.1,8117.4 572.8,8117.4 		"/>
		<path class="st15" d="M565.4,9001.6H886c0-88.5-71.8-160.3-160.3-160.3S565.4,8913,565.4,9001.6z"/>
		<path class="st15" d="M886,9001.6H565.4c0,88.5,71.8,160.3,160.3,160.3S886,9090.1,886,9001.6z"/>
		<polygon class="st13" points="572.8,8117.4 647.1,8117.4 656.9,8071 593.2,8071.4 		"/>
		<polygon class="st10" points="647.1,8117.4 625.3,8220.7 715.1,8220.7 723,8117.4 		"/>
		<polygon class="st10" points="656.9,8071 647.1,8117.4 723,8117.4 726.5,8070.7 		"/>
		<polygon class="st13" points="723,8117.4 715.1,8220.7 798.5,8220.7 798.5,8220 798.5,8117.4 		"/>
		<polygon class="st13" points="726.5,8070.7 723,8117.4 798.5,8117.4 798.5,8070.4 		"/>
		<polygon class="st10" points="798.5,8220 798.5,8220.7 872.4,8220.7 872.4,8220 872.4,8117.4 798.5,8117.4 		"/>
		<polygon class="st10" points="798.5,8070.4 798.5,8117.4 872.4,8117.4 872.4,8070 		"/>
		<polygon class="st13" points="872.4,8220 872.4,8220.7 944.7,8220.7 944.7,8117.4 872.4,8117.4 		"/>
		<polygon class="st13" points="872.4,8070 872.4,8117.4 944.7,8117.4 944.7,8069.7 		"/>
		<rect x="944.7" y="8117.4" class="st10" width="81.1" height="103.3"/>
		<polygon class="st10" points="944.7,8069.7 944.7,8117.4 1025.8,8117.4 1025.8,8069.3 		"/>
		<polygon class="st13" points="1025.8,8117.4 1025.8,8220.7 1100.2,8220.7 1100.2,8220 1100.2,8117.4 		"/>
		<polygon class="st13" points="1025.8,8069.3 1025.8,8117.4 1100.2,8117.4 1100.2,8069 		"/>
		<polygon class="st10" points="1100.2,8220 1100.2,8220.7 1173.5,8220.7 1173.5,8117.4 1100.2,8117.4 		"/>
		<polygon class="st10" points="1100.2,8069 1100.2,8117.4 1173.5,8117.4 1173.5,8068.7 		"/>
		<polygon class="st13" points="1173.5,8117.4 1173.5,8220.7 1253.1,8220.7 1245.2,8117.4 		"/>
		<polygon class="st13" points="1173.5,8068.7 1173.5,8117.4 1245.2,8117.4 1241.5,8068.3 		"/>
		<polygon class="st10" points="1241.5,8068.3 1245.2,8117.4 1321.3,8117.4 1310.8,8068 		"/>
		<polygon class="st10" points="1245.2,8117.4 1253.1,8220.7 1343.1,8220.7 1321.3,8117.4 		"/>
		<polygon class="st13" points="1310.8,8068 1321.3,8117.4 1396,8117.4 1374,8067.7 		"/>
		<polygon class="st13" points="1321.3,8117.4 1343.1,8220.7 1441.7,8220.7 1396,8117.4 		"/>
		<polygon class="st10" points="1374,8067.7 1396,8117.4 1478.2,8117.4 1441.7,8067.4 		"/>
		<polygon class="st10" points="1396,8117.4 1441.7,8220.7 1521.3,8220.7 1521.3,8176.5 1478.2,8117.4 		"/>
		<polygon class="st13" points="1441.7,8067.4 1478.2,8117.4 1521.3,8117.4 1521.3,8176.5 1553.6,8220.7 1668.1,8220.7 1514.4,8067 
					"/>
		<polygon class="st13" points="1478.2,8117.4 1521.3,8176.5 1521.3,8117.4 		"/>
		<polygon class="st10" points="1521.3,8176.5 1521.3,8220.7 1553.6,8220.7 		"/>
		<polygon class="st14" points="1668.1,8220.7 1668.1,8441.7 2075.2,8441.7 2075.2,8117.4 1668.1,8117.4 		"/>
		<path class="st15" d="M1941.2,8996.8c0,1.6,0,3.2,0.1,4.8h133.9v-162.9C1999.2,8851.2,1941.2,8917.2,1941.2,8996.8z"/>
		<path class="st15" d="M2075.2,9001.6h-133.9c2.5,86.4,73.3,155.5,160.2,155.5s157.7-69.2,160.2-155.5H2075.2z"/>
		<path class="st15" d="M2075.2,8838.7v162.9h186.5c0.1-1.6,0.1-3.2,0.1-4.8c0-88.5-71.8-160.3-160.3-160.3
			C2092.6,8836.5,2083.8,8837.2,2075.2,8838.7z"/>
		<path class="st15" d="M2075.2,8461.7v377c8.6-1.4,17.4-2.2,26.3-2.2c88.5,0,160.3,71.8,160.3,160.3c0,1.6,0,3.2-0.1,4.8h190.8
			v-383.8L2075.2,8461.7z"/>
	</g>
	<g>
		<polyline class="st16" points="378.5,7949 378.5,7921.8 378.5,7782.4 378.5,7755.8 		"/>
		<polyline class="st16" points="1815.9,7958 1815.9,7921.8 1815.9,7782.4 1815.9,7764.8 		"/>
	</g>
</g>
<rect x="-147" y="7464.6" class="st3" width="2494.4" height="403"/>
<text transform="matrix(1 0 0 1 485.1611 7629.1655)"><tspan x="0" y="0" class="st17 st5 st18">Terms Of Us</tspan><tspan x="1120.7" y="0" class="st17 st5 st18 st19">e</tspan></text>
</svg>
