<?xml version="1.0" encoding="utf-8"?>
<!-- Generator: Adobe Illustrator 23.1.0, SVG Export Plug-In . SVG Version: 6.00 Build 0)  -->
<svg version="1.1" id="Layer_1" xmlns="http://www.w3.org/2000/svg" xmlns:xlink="http://www.w3.org/1999/xlink" x="0px" y="0px"
	 viewBox="0 0 1190.6 1683.8" style="enable-background:new 0 0 1190.6 1683.8;" xml:space="preserve">
<style type="text/css">
	.st0{fill:url(#SVGID_1_);}
	.st1{fill:#E8CFE1;}
	.st2{fill:none;}
	.st3{fill:#B1E3FA;}
	.st4{font-family:'ArialNarrow-Bold';}
	.st5{font-size:45.2844px;}
	.st6{font-size:30px;}
	.st7{font-family:'ArialNarrow';}
	.st8{font-size:24px;}
	.st9{opacity:0.7;fill:#E3ABCE;}
	.st10{font-size:42px;}
	.st11{opacity:0.7;}
	.st12{opacity:0.7;fill:#70C1EC;}
	.st13{opacity:0.7;fill:#98D5CE;}
	.st14{opacity:0.7;fill:#FCF5A4;}
	.st15{opacity:0.7;fill:#C08FC0;}
	.st16{opacity:0.7;fill:#D8B4D5;}
	.st17{opacity:0.7;fill:#D9B3D4;}
	.st18{opacity:0.74;fill:url(#SVGID_2_);}
	.st19{fill:#70C1EC;}
	.st20{fill:#FCF5A4;}
	.st21{fill:#C08FC0;}
	.st22{fill:#E3ABCE;}
	.st23{fill:none;stroke:#E3ABCE;stroke-width:9;stroke-miterlimit:10;}
	.st24{fill:#98D5CE;}
	.st25{fill:none;stroke:#FFFFFF;stroke-miterlimit:10;}
	.st26{fill:none;stroke:#FFFFFF;stroke-width:2;stroke-miterlimit:10;}
	.st27{fill:#FFFFFF;}
	.st28{fill:none;stroke:#C2B59B;stroke-miterlimit:10;}
	.st29{fill:#F4F4F5;}
	.st30{fill:none;stroke:#FFFFFF;stroke-width:2;stroke-linecap:round;stroke-linejoin:round;stroke-miterlimit:10;}
	.st31{fill:none;stroke:#FCF5A4;stroke-miterlimit:10;}
	.st32{fill:none;stroke:#3A5AA8;stroke-miterlimit:10;}
	.st33{opacity:0.5;}
	.st34{font-size:30.9177px;}
	.st35{opacity:0.5;fill:#70C1EC;}
	.st36{font-size:38.8269px;}
	.st37{font-size:21.5705px;}
	.st38{opacity:0.8;}
	.st39{font-size:23.7275px;}
	.st40{font-size:20.8515px;}
	.st41{font-size:30.1987px;}
	.st42{opacity:0.5;fill:#FCF5A4;}
	.st43{font-size:35.9508px;}
	.st44{opacity:0.72;}
	.st45{font-size:28.0416px;}
	.st46{fill:#D9B3D4;}
	.st47{opacity:0.5;fill:#C08FC0;}
	.st48{font-size:43.141px;}
	.st49{opacity:0.5;fill:#E3ABCE;}
	.st50{font-size:25.1656px;}
	.st51{font-size:40px;}
	.st52{fill:#FDFEFE;}
	.st53{opacity:0.5;fill:#98D5CE;}
	.st54{fill:#70C1EC;stroke:#70C1EC;stroke-width:3;stroke-miterlimit:10;}
	.st55{font-size:28.0571px;}
</style>
<linearGradient id="SVGID_1_" gradientUnits="userSpaceOnUse" x1="595.4132" y1="1683.7795" x2="595.4132" y2="-9.094947e-13">
	<stop  offset="0" style="stop-color:#FFFFFF"/>
	<stop  offset="2.610710e-03" style="stop-color:#0098D3"/>
	<stop  offset="0.4291" style="stop-color:#3B5BA9"/>
	<stop  offset="1" style="stop-color:#3B5BA9"/>
</linearGradient>
<rect x="0.3" class="st0" width="1190.3" height="1683.8"/>
<g id="XMLID_1_">
	<g>
		<path class="st1" d="M923.1,423.7c0,3.2,0,6.4,0,9.6c-0.2,0.6-0.4,1.2-0.5,1.8c-0.8,6.6-3.8,11.2-8.7,14.1
			c-4.3,2.6-9,3.5-13.7,3.8c-6.1,0.4-12.3,0.7-18.4,1.1c-8.7,0.7-10.1-0.3-13.3-10.1c0-2.7,0-5.4,0-8h5.3c0,1,0,2,0.1,3
			c0.5,6.2,3.4,8.9,8.5,8.3c4.1-0.5,8.2-0.7,12.3-1c3.2-0.3,6.5-0.5,9.7-1c6.8-1.3,11.2-5.6,12-12.1c0.5-3.7,0.5-7.5,0.4-11.2
			c-0.1-3.9-0.4-7.9-0.7-11.8l5-0.4C921.8,414.3,922.5,419,923.1,423.7z"/>
		<path class="st1" d="M921.2,409.6l-5,0.4c-0.4-4.4-0.9-8.8-1.5-13.2l4.6-0.6C920,400.6,920.6,405.1,921.2,409.6z"/>
		<path class="st1" d="M919.3,396.2l-4.6,0.6c-1.1-8.3-2.6-16.5-3.9-24.8c-2-12-3.6-24.2-4.9-36.4c-0.9-8.3-1-16.7-1.2-25
			c-0.2-9.8-0.1-19.7-0.3-29.6c-0.1-3.9-0.5-7.9-1.2-11.7c-0.8-4.4-3-5.8-6.6-4.8c-1.6,0.5-3.1,1.2-4.6,1.9c-4.8,1.9-6.8,5.9-6.8,12
			c0.1,16,0,32,0,43.8c-0.5,15.8-0.8,27.4-1.3,39.1c-1,20.1-3.5,39.9-7.9,59.4c-1.1,5-2.2,10.1-2.2,15.3h-5.3c0-1.3,0-2.5,0-3.8
			c0.4-3.2,0.8-6.4,1.3-9.6c2.4-16.6,6.2-32.9,6.9-49.9c0.7-15.4,2.1-30.7,2.5-46c0.4-16.3-0.1-32.7-0.3-49
			c-0.1-8.3,2.9-14,9.1-17.2c2.1-1,4.2-1.8,6.4-2.6c1.3-0.5,2.6-0.8,4-1.2c0.8,0,1.5,0,2.3,0c0.3,0.2,0.5,0.5,0.8,0.5
			c4.4,0.5,6.7,3.8,7.3,8.7c0.6,5.2,0.9,10.5,1.1,15.7c0.4,11.3,0.3,22.6,0.9,33.8c0.6,12.7,1.3,25.5,2.8,38.1
			C915.3,367.7,917.3,381.9,919.3,396.2z"/>
		<path class="st1" d="M917,421.8c0.1,3.7,0.1,7.6-0.4,11.2c-0.8,6.5-5.2,10.8-12,12.1c-3.2,0.6-6.5,0.8-9.7,1
			c-4.1,0.4-8.2,0.5-12.3,1c-5.1,0.6-8-2.1-8.5-8.3c-0.1-1-0.1-2-0.1-3c0-5.2,1-10.3,2.2-15.3c4.4-19.5,6.9-39.3,7.9-59.4
			c0.5-11.6,0.8-23.3,1.3-39.1c0-11.9,0.1-27.9,0-43.8c0-6.1,2-10,6.8-12c1.5-0.6,3-1.4,4.6-1.9c3.6-1,5.8,0.5,6.6,4.8
			c0.7,3.8,1.1,7.8,1.2,11.7c0.2,9.9,0.1,19.7,0.3,29.6c0.2,8.4,0.3,16.8,1.2,25c1.3,12.2,2.9,24.3,4.9,36.4
			c1.3,8.2,2.8,16.5,3.9,24.8c0.6,4.4,1.1,8.8,1.5,13.2C916.6,414,916.8,417.9,917,421.8z"/>
		<path class="st1" d="M858.7,367.3c0.7,8.6-1.5,16.9-2.4,25.4c-1.4,12.3-2.7,24.6,0,36.9c0.6,2.8,1.1,5.6,1.7,8.5
			c0,0.7,0,1.4-0.1,2.1c-0.1,0.2-0.3,0.5-0.4,0.7c-1,2.7-3.2,3.7-5.8,2.4c-1.2-0.6-2.3-1.6-3.1-2.6c-2.6-3-5.7-3.8-9.3-2.5
			c-2.2,0.8-4.3,2-6.4,3.1c-4.7,2.6-9.2,5.4-14,7.7c-9.6,4.6-19.7,5.3-29.9,3c-9.3-2.1-12-8.2-9.2-17.5c0.8-2.8,2.8-5.5,4.8-7.8
			c8.8-9.8,19.2-17.6,30.1-24.7c1.6-1.1,3.3-2.1,4.9-3.1c4.9-3,9.4-6.5,12.3-11.5c3.8-6.4,3.9-13,0.6-19.6c-1.4-2.8-3.2-3-4.6-0.3
			c-1.9,3.6-3.4,7.5-4.6,11.4c-0.9,2.9-0.9,6.1-1.9,9c-1.8,5-4.7,8.6-8.5,11.3c-3,2.1-6.4,3.5-10.4,4.4c-9.9,2.4-18.2-0.3-25.3-7.3
			c-3.5-3.5-5.2-7.8-5.5-12.7c0-0.6-0.2-1.1-0.4-1.7c0-1,0-1.9,0.1-2.8c0.1-0.1,0.3-0.3,0.3-0.4c1.1-7.5,5.1-13.5,10.2-18.8
			c8-8.2,16.1-16.2,24-24.4c4.9-5.1,10.7-8.1,17.6-9.1c1.3-0.2,2.5-0.3,3.8-0.5c0.2,0,0.5,0,0.7,0c1.7,0.3,3.4,0.5,5,0.9
			c11.5,2.8,19.9,9.4,23,21C857.7,354,858.1,360.7,858.7,367.3z M856,374.4c0.2-10.3-0.5-17.4-2.1-24.4
			c-2.4-10.6-9.2-17.2-19.4-20.2c-10-3-18.8-0.4-26.2,7c-7.8,7.8-15.6,15.6-23.2,23.5c-2.9,3-5.6,6.3-7.7,9.9
			c-6.5,11.1-3.2,24.1,10,29.7c3.9,1.7,7.8,1.9,11.9,1.3c11.1-1.5,19.9-8.8,20.9-20.6c0.4-5.3,2.3-10.3,5.3-14.7
			c3-4.5,7.2-4.1,9.6,0.7c4.7,9.4,2.9,20.1-5.2,27.5c-3.8,3.5-8.3,6.5-12.7,9.4c-11,7.3-21.5,15.1-30.5,24.8c-2.1,2.3-4,4.7-4.7,7.8
			c-1.7,7.9,0.6,11.6,7.8,13.2c7.9,1.8,15.9,1.9,23.4-1.1c5.6-2.2,10.9-5.4,16.3-8.2c3-1.5,5.9-3.4,9-4.5c4.6-1.7,8.9-0.6,12.1,3.3
			c0.4,0.5,0.9,1,1.4,1.3c0.7,0.3,1.7,0.8,2.2,0.6c0.5-0.3,0.6-1.4,0.8-2.2c0.1-0.3-0.1-0.6-0.1-0.9c-0.9-5.2-2-10.3-2.5-15.6
			c-1-10.9,0.1-21.8,1.5-32.6C854.8,383.6,855.6,377.5,856,374.4z"/>
		<path class="st1" d="M853.9,350.1c1.6,7,2.3,14.1,2.1,24.4c-0.4,3.1-1.2,9.1-2,15.2c-1.4,10.8-2.5,21.7-1.5,32.6
			c0.5,5.2,1.7,10.4,2.5,15.6c0.1,0.3,0.2,0.6,0.1,0.9c-0.2,0.8-0.3,1.9-0.8,2.2c-0.5,0.3-1.5-0.2-2.2-0.6c-0.6-0.3-1-0.8-1.4-1.3
			c-3.3-3.9-7.5-5-12.1-3.3c-3.1,1.1-6,3-9,4.5c-5.4,2.8-10.7,6-16.3,8.2c-7.6,3-15.5,2.9-23.4,1.1c-7.2-1.6-9.4-5.3-7.8-13.2
			c0.6-3.1,2.5-5.5,4.7-7.8c9-9.7,19.5-17.5,30.5-24.8c4.4-2.9,8.8-5.8,12.7-9.4c8.1-7.5,9.9-18.2,5.2-27.5
			c-2.4-4.8-6.6-5.2-9.6-0.7c-3,4.4-4.9,9.5-5.3,14.7c-1,11.8-9.8,19.1-20.9,20.6c-4.1,0.6-8,0.4-11.9-1.3
			c-13.2-5.6-16.5-18.6-10-29.7c2.1-3.6,4.8-6.9,7.7-9.9c7.6-8,15.4-15.7,23.2-23.5c7.3-7.3,16.2-9.9,26.2-7
			C844.7,332.9,851.5,339.5,853.9,350.1z M837.7,410.3c0.8-3.7-1.4-5.8-5.2-5.3c-4.8,0.7-9.2,2.4-12.8,5.6c-4.7,4-9.2,8.2-13.5,12.5
			c-1.7,1.7-2.9,3.9-3.7,6.2c-1.5,4.2,1.5,7.9,7,8c1.2-0.3,3.5-0.7,5.5-1.7c9.1-4.4,16-11.3,20.9-20.1
			C836.7,413.9,837.3,412.1,837.7,410.3z"/>
		<path class="st1" d="M832.5,405c3.7-0.6,5.9,1.6,5.2,5.3c-0.4,1.8-0.9,3.6-1.8,5.1c-4.9,8.8-11.8,15.7-20.9,20.1
			c-2,1-4.4,1.4-5.5,1.7c-5.5-0.1-8.5-3.8-7-8c0.8-2.2,2-4.5,3.7-6.2c4.3-4.4,8.9-8.5,13.5-12.5C823.3,407.5,827.7,405.7,832.5,405z
			 M834.9,410.4c0.8-2.3-0.1-3.1-2.5-2.7c-3.9,0.8-7.7,2.1-10.7,4.7c-4.6,4-9.2,8.2-13.6,12.5c-1.3,1.3-2.3,3-3,4.7
			c-1.1,2.6,0.5,4.7,4.3,4.9c1.2-0.4,3.4-1,5.4-2c6.9-3.5,12.3-8.7,16.6-15.1C832.9,415.4,834,412.9,834.9,410.4z"/>
		<path class="st1" d="M804.7,199.9c0.2,2.4,0,4.9,0,7.2c0,0.6-0.2,1.2-0.4,1.9c-1.7,7.7-4,14.6-10.1,20c-8.5,7.3-17.8,11-28.7,12.8
			c-2.7,0.4-5.3,0.5-8,0.7c-1.8,0.1-3.7,0-5.5,0c-0.6,0-1.1-0.2-1.7-0.2c-7.4-0.5-14.3-1.5-21.1-4.8c-3.3-1.6-6.1-3.7-8.2-6.9
			c-2.1-3.3-1.7-6.9,1.2-9.7c1.8-1.8,4.1-2.7,6.6-3.1c5.1-0.8,10.3-0.3,15.4,0.2c5.6,0.6,11.4,1.6,16.9,1.7c7,0.2,11.9-2.6,14.9-8.7
			c1.5-3,0.1-4.7-2.9-5.2c-1.9-0.3-4.1-0.1-6.2,0.1c-5.2,0.6-10.5,2-15.8,2.4c-6.9,0.4-13.4-1.2-19.9-3.3
			c-11.6-3.8-18.8-10.5-21.5-22.4c-0.8-3.4-0.5-6.8-1-10.2c-0.1-0.7-0.1-1.4,0-2c0.4-2.8,0.1-5.3,0.2-8.1c0.2-8,2.3-16.2,6.4-23.3
			c8.2-14.1,18.8-21.9,34.8-25.3c2.7-0.6,5.4-0.7,8.2-0.9c1.8-0.1,3.7-0.1,5.5,0c2.5,0.2,5.1,0.5,7.6,1.1
			c9.8,2.4,16.9,6.7,21.1,16.1c2,4.4,2.6,9.3,2.6,14.1c-0.1,8.4-2.6,15.6-8.5,21.7c-3.6,3.7-7.9,5.6-12.7,6.5
			c-1.6,0.3-3.2,0.5-4.8,0.7c-6.5,0.6-11.3-1.6-15.9-6c-1.7-1.6-3-3.5-4.7-5.1c-2.3-2.3-4.6-4.5-7.8-5.5c-3.2-1-5.8-0.2-7.6,2.6
			c-1.2,1.8-2.2,4.1-2.5,6.1c-0.8,6.5,0.9,10.3,7.2,12.5c2.8,1,6,1.4,9.1,1.5c7.4,0.4,14.5-1.2,21.8-2.4c2-0.3,3.9-0.7,5.9-1
			c3.8-0.7,7.6-1.3,11.5-1.3c7.2-0.1,11.8,3.2,14.9,9.6c1.1,2.3,1.8,4.7,2.4,7.2C803.9,194,804.4,196.9,804.7,199.9z M798.7,212.5
			c3.3-9.7,0.7-18.7-2.3-28c-0.9-2.9-3.6-4.4-6.4-5.3c-3.5-1.1-7.2-1-10.9-0.5c-8.5,1.2-16.9,2.9-25.5,3.9c-6,0.7-11.9,0.8-17.7-0.9
			c-4.6-1.4-8-3.9-9.1-8.8c-1.4-6.1-0.5-11.7,3-17c2.3-3.4,5.7-4.5,9.7-4.1c2.8,0.3,5.5,1.3,7.7,3.1c2.8,2.4,5.2,5.1,7.6,7.9
			c3.9,4.5,8,6.4,13.9,6c0.8-0.1,1.6-0.2,2.4-0.3c9.6-2.3,15.7-7.3,18.8-16.8c1.6-4.8,1.2-9.7,0.2-14.4
			c-2.3-10.6-8.1-17.1-18.8-19.3c-8.4-1.7-16.8-1.6-25,1c-17.1,5.4-25.8,16.4-31.5,33c-1.4,3.9-1.4,8.4-1.6,12.3
			c-0.2,4.5-0.6,8.6,0,13c1.3,11.3,6.6,18.8,17.5,23.1c9.7,3.7,19.8,3.6,30,2c4.5-0.7,9.1-2,13.6-1.5c5.5,0.7,8.4,4.6,6.4,10
			c-2.3,6-6.5,10-12.6,12.2c-4.8,1.8-9.8,1-14.8,0.6c-6.3-0.6-12.6-1.5-19-1.9c-2.6-0.2-5,0.8-7,2.3c-2.9,2.1-2.9,4.7-0.5,7.1
			c1.5,1.4,4.2,2.6,5.8,3.2c5.7,2,15.3,3.6,20.1,3.6c9.5,0,17.3-0.6,24.8-3.8C788.4,229.5,794.9,223.2,798.7,212.5z"/>
		<path class="st1" d="M796.4,184.4c3,9.3,5.6,18.3,2.3,28c-3.7,10.7-10.3,17.1-21.1,21.7c-7.5,3.2-15.3,3.8-24.8,3.8
			c-4.8,0-14.4-1.6-20.1-3.6c-1.6-0.6-4.3-1.8-5.8-3.2c-2.4-2.4-2.4-4.9,0.5-7.1c2.1-1.5,4.4-2.5,7-2.3c6.4,0.4,12.7,1.3,19,1.9
			c5,0.4,10,1.2,14.8-0.6c6-2.2,10.3-6.2,12.6-12.2c2-5.3-0.9-9.2-6.4-10c-4.5-0.6-9.1,0.8-13.6,1.5c-10.2,1.6-20.3,1.7-30-2
			c-10.9-4.2-16.2-11.7-17.5-23.1c-0.5-4.5-0.2-8.6,0-13c0.2-4,0.2-8.5,1.6-12.3c5.8-16.6,14.4-27.6,31.5-33c8.3-2.6,16.6-2.7,25-1
			c10.7,2.2,16.5,8.7,18.8,19.3c1,4.7,1.4,9.6-0.2,14.4c-3,9.5-9.1,14.4-18.8,16.8c-0.8,0.2-1.6,0.3-2.4,0.3c-6,0.5-10-1.5-13.9-6
			c-2.4-2.8-4.8-5.5-7.6-7.9c-2.2-1.8-4.9-2.8-7.7-3.1c-4-0.4-7.5,0.7-9.7,4.1c-3.5,5.3-4.4,10.9-3,17c1.1,4.9,4.5,7.4,9.1,8.8
			c5.8,1.7,11.7,1.6,17.7,0.9c8.6-1,17-2.8,25.5-3.9c3.7-0.5,7.4-0.6,10.9,0.5C792.8,180,795.5,181.5,796.4,184.4z"/>
		<path class="st1" d="M767.3,367.7c0.5,11.6-1,23.2-3.8,34.5c-1.8,7.2-5,14.1-7.7,21.1c-2,5.2-3.9,10.4-6.3,15.4
			c-3.1,6.4-8.6,10.7-15.2,13.8c-6.1,2.9-11.9,1.9-16.5-3c-2.6-2.7-5-5.6-6.7-8.8c-8.1-15.1-15.9-30.2-23.8-45.4
			c-0.9-1.8-1.3-3.8-2.1-5.7c-1.8-4.8-3.9-9.5-5.5-14.3c-1-2.9-1.9-5.9-2.7-8.9l4.8-1.4c0.1,0.6,0.3,1.1,0.5,1.6
			c1.5,4.7,3.8,9.2,5.6,13.8c2.4,6,4.2,12.3,7.1,18c6.1,12.2,12.7,24.2,19.2,36.1c2,3.7,4.3,7.4,7,10.7c3.6,4.4,8.1,4.8,13,1.6
			c4.1-2.7,7.5-6.1,9.7-10.3c2.3-4.5,4.1-9.1,6.1-13.7c7.7-17.1,12-34.8,12.6-55.2L767.3,367.7z"/>
		<path class="st1" d="M767.3,367.7l-4.7,0.2c-0.3-2.3-0.5-6.4-1.2-10.5c-1.1-6.4-3.4-12.4-7.7-17.6c-3.4-4-7.8-6.5-13.4-6.1
			c-9.6,0.6-18.5,8-21.1,17c-2.5,9.1,1,17.4,9.6,22.8c4.3,2.7,7.8,1.5,9.6-3c0.3-0.9,1.5-1.9,2.5-2c0.8-0.1,2,0.7,2.6,1.4
			c0.8,1,1.3,2.2,1.8,3.3c3.8,8.8,4,17.9,2.5,27.1c-1.1,6.5-3.1,12.8-7.1,18.3c-3.6,4.9-8.5,5.4-12.8,1c-3.3-3.4-6.3-7.1-9.1-10.9
			c-4.6-6.4-8.1-13.3-11.2-20.4l4.6-1.9c3.1,7.7,7.1,15,12.4,21.7c2.1,2.7,4.6,5.2,7.1,7.5c1.9,1.7,3.5,1.5,4.8-0.7
			c1.7-2.8,3.3-5.8,4.4-8.9c2.7-7.5,1.9-15.1,1.2-22.8c-0.2-1.8-0.7-3.6-1-5.6c-5.4,3.3-9,3.5-14.6,0.8c-1.7-0.8-3.4-1.9-4.8-3.1
			c-7.6-6.7-10.3-15-8.2-24.3c2.4-10.6,8.4-18.7,19.9-22.3c1.8-0.6,3.8-0.8,5.7-1.2c0.8,0,1.5,0,2.3,0c1.2,0.2,2.5,0.4,3.7,0.7
			c7.3,1.6,12.1,6.1,15.6,12c3.7,6.4,5.2,13.3,5.9,20.4C767.1,363.1,767.2,365.4,767.3,367.7z"/>
		<path class="st1" d="M761.5,357.4c0.7,4,0.9,8.2,1.2,10.5c-0.6,20.3-4.9,38.1-12.6,55.2c-2.1,4.5-3.8,9.2-6.1,13.7
			c-2.2,4.2-5.6,7.6-9.7,10.3c-4.9,3.2-9.4,2.8-13-1.6c-2.7-3.3-4.9-7-7-10.7c-6.5-12-13.1-24-19.2-36.1c-2.9-5.8-4.7-12-7.1-18
			c-1.8-4.6-4.2-9.1-5.6-13.8c-0.2-0.5-0.3-1.1-0.5-1.6c-1-3.8-1.7-7.8-1.9-11.7c-0.2-2,0.9-4.3,2.1-6.2c1.4-2.2,3.5-2.4,5.5-0.7
			c1.7,1.5,3.5,3.2,4.5,5.2c3.3,6.7,6.8,13.4,9.4,20.3c2.1,5.5,4.2,11,6.5,16.5c3,7.1,6.6,14,11.2,20.4c2.8,3.8,5.7,7.5,9.1,10.9
			c4.3,4.3,9.2,3.9,12.8-1c4-5.5,6.1-11.8,7.1-18.3c1.5-9.2,1.2-18.3-2.5-27.1c-0.5-1.2-1-2.4-1.8-3.3c-0.6-0.7-1.9-1.5-2.6-1.4
			c-1,0.2-2.1,1.1-2.5,2c-1.8,4.5-5.3,5.6-9.6,3c-8.7-5.4-12.2-13.6-9.6-22.8c2.5-9.1,11.5-16.5,21.1-17c5.6-0.3,10,2.1,13.4,6.1
			C758.1,345,760.4,351.1,761.5,357.4z"/>
		<path class="st1" d="M712.5,386.5l-4.6,1.9c-2.3-5.4-4.4-10.9-6.5-16.5c-2.6-6.9-6.1-13.6-9.4-20.3c-1-1.9-2.7-3.7-4.5-5.2
			c-2-1.7-4.1-1.5-5.5,0.7c-1.1,1.9-2.2,4.2-2.1,6.2c0.3,3.9,0.9,7.9,1.9,11.7l-4.8,1.4c-0.7-2.5-1.4-5-2.1-7.6
			c-0.2-0.7-0.3-1.3-0.5-2c0-2.2,0-4.5,0-6.7c0.2-0.7,0.4-1.3,0.6-2c1-3.8,3.1-6.8,7.5-7.8c4.4-1,8.2,0.1,11.1,3.3
			c1.5,1.7,2.8,3.5,3.8,5.4c4.6,8.5,8.3,17.4,11.2,26.6C709.8,379.4,711.1,383,712.5,386.5z"/>
		<path class="st1" d="M706.9,212.4c0,3.2,0,6.4,0,9.6c-0.2,0.6-0.5,1.2-0.5,1.8c-0.8,6.6-3.7,11.2-8.6,14.1
			c-4.3,2.6-9,3.5-13.7,3.8c-6.1,0.4-12.2,0.7-18.4,1.1c-8.7,0.7-10.1-0.3-13.3-10.1c0-2.7,0-5.3,0-8h5.3c0,1,0,2,0.1,3
			c0.5,6.2,3.4,8.9,8.5,8.3c4.1-0.5,8.2-0.6,12.3-1c3.3-0.3,6.5-0.5,9.7-1.1c6.8-1.3,11.2-5.6,12-12.1c0.4-3.7,0.5-7.5,0.4-11.2
			c-0.1-3.9-0.4-7.9-0.7-11.8l4.9-0.4C705.6,203,706.3,207.7,706.9,212.4z"/>
		<path class="st1" d="M705,198.3l-4.9,0.4c-0.4-4.4-0.9-8.9-1.5-13.2l4.6-0.6C703.7,189.3,704.3,193.8,705,198.3z"/>
		<path class="st1" d="M703.1,184.8l-4.6,0.6c-1.1-8.3-2.6-16.5-3.9-24.7c-2-12.1-3.6-24.2-4.9-36.4c-0.9-8.3-1-16.7-1.2-25
			c-0.2-9.9-0.1-19.7-0.3-29.6c-0.1-3.9-0.5-7.9-1.2-11.7c-0.8-4.4-3.1-5.8-6.6-4.8c-1.6,0.4-3.1,1.2-4.6,1.9
			c-4.8,1.9-6.8,5.9-6.8,12c0.1,16,0,32,0,43.8c-0.5,15.8-0.8,27.4-1.3,39.1c-0.9,20.1-3.5,39.9-7.8,59.4c-1.1,5-2.2,10.1-2.2,15.3
			h-5.3c0-1.3,0-2.6,0-3.8c0.4-3.2,0.8-6.4,1.3-9.6c2.4-16.6,6.2-32.9,6.9-49.9c0.7-15.4,2.1-30.7,2.5-46.1
			c0.3-16.3-0.1-32.7-0.3-49c-0.1-8.3,2.9-14,9.2-17.2c2.1-1,4.2-1.8,6.4-2.6c1.3-0.5,2.7-0.8,4-1.2c0.8,0,1.5,0,2.3,0
			c0.2,0.2,0.5,0.5,0.8,0.5c4.4,0.5,6.7,3.8,7.3,8.7c0.6,5.2,1,10.5,1.1,15.7c0.4,11.3,0.3,22.6,0.9,33.8
			c0.6,12.7,1.3,25.5,2.8,38.1C699.1,156.4,701.1,170.6,703.1,184.8z"/>
		<path class="st1" d="M700.7,210.5c0.1,3.7,0,7.6-0.4,11.2c-0.8,6.5-5.2,10.8-12,12.1c-3.2,0.6-6.5,0.8-9.7,1.1
			c-4.1,0.4-8.2,0.5-12.3,1c-5.1,0.6-8-2.1-8.5-8.3c-0.1-1-0.1-2-0.1-3c0-5.2,1-10.3,2.2-15.3c4.3-19.5,6.9-39.3,7.8-59.4
			c0.6-11.6,0.8-23.3,1.3-39.1c0-11.9,0.1-27.9,0-43.8c-0.1-6.1,2-10,6.8-12c1.5-0.6,3-1.4,4.6-1.9c3.6-1,5.8,0.4,6.6,4.8
			c0.7,3.8,1.1,7.8,1.2,11.7c0.2,9.8,0.1,19.7,0.3,29.6c0.2,8.3,0.3,16.8,1.2,25c1.3,12.2,2.9,24.3,4.9,36.4
			c1.4,8.2,2.8,16.5,3.9,24.7c0.6,4.4,1.1,8.8,1.5,13.2C700.4,202.6,700.6,206.6,700.7,210.5z"/>
		<path class="st1" d="M683.8,433.9c1.8,7.3-0.6,13.7-6.9,16.5c-4.1,1.9-8.7,2.5-13,3.7c-0.9,0.2-1.7,0.4-2.6,0.6
			c-2.3,0-4.6,0-6.9,0c-0.7-0.2-1.4-0.5-2.1-0.5c-3.6-0.1-7.2,0-10.7-0.1c-4.9-0.1-8.2-3-9.6-8.2c-0.3-1.2-0.7-2.4-1-3.6
			c0-2.2,0-4.5,0-6.7c0.7-6.2,1.8-12.4,2-18.6l5.1,0.2c-0.2,5.8-0.5,11.7-0.9,17.5c-0.7,10.2,1.9,14,11.3,13.9
			c5.6-0.3,11.6-0.5,17.6-1.2c3-0.4,5.9-1.6,8.7-3c2.7-1.3,4.1-4.2,3.6-7.4c-0.5-3.4-1.4-6.7-2.5-9.9c-0.2-0.5-0.3-1-0.5-1.5
			l5.1-1.7c0.3,0.7,0.5,1.4,0.7,2C682,428.6,683.1,431.2,683.8,433.9z"/>
		<path class="st1" d="M680.4,423.9l-5.1,1.7c-1.3-3.5-3-6.9-4-10.6c-5.9-20.9-9.7-42.2-12.3-63.9c-0.6-5.3-1.6-10.5-4.2-15.1
			c-1.2-2.1-2.6-3.5-5.1-2.5c-1.8,0.7-3.7,0.8-5.6,1.4c-0.8,0.3-1.7,1-2,1.8c-0.7,2.2-1.5,4.6-1.6,6.9c-0.7,17.9-1.2,35.8-1.8,53.7
			c-0.2,6.6-0.4,13.3-0.7,19.9l-5.1-0.2c0.8-24.4,1.1-48.9,2-73.3c0.2-6.1,2.7-11.9,6.5-16.5c2.9-3.5,8.5-4,12.5-0.7
			c2.5,2.1,4.7,4.9,6.3,7.9c3.3,6,3.9,13,5,19.7c3,18.6,5.1,37.4,10.1,55.5C676.8,414.5,678.7,419.2,680.4,423.9z"/>
		<path class="st1" d="M678.3,437c0.5,3.3-0.9,6.1-3.6,7.4c-2.8,1.4-5.7,2.6-8.7,3c-6,0.8-12.1,0.9-17.6,1.2
			c-9.4,0-12-3.8-11.3-13.9c0.4-5.8,0.7-11.6,0.9-17.5c0.3-6.6,0.5-13.2,0.7-19.9c0.6-17.9,1.1-35.8,1.8-53.7
			c0.1-2.4,0.9-4.7,1.6-6.9c0.2-0.8,1.2-1.5,2-1.8c1.8-0.6,3.8-0.7,5.6-1.4c2.5-1,3.9,0.3,5.1,2.5c2.6,4.6,3.6,9.8,4.2,15.1
			c2.6,21.7,6.4,43,12.3,63.9c1,3.6,2.7,7,4,10.6c0.2,0.5,0.4,1,0.5,1.5C676.9,430.3,677.8,433.7,678.3,437z"/>
		<path class="st1" d="M658.3,288c-0.3,1.5-0.6,4.5-1.4,7.4c-1,3.4-2.8,6.4-6.2,6.9c-3.9,0.6-7.4-0.7-10-4.3
			c-2.6-3.7-3.9-7.8-3.8-12.6c0.1-3.7-0.2-7.5,0.5-11c1.4-7,8.3-9.8,13.6-5.7C656.5,273,658.2,279.4,658.3,288z M651.3,293
			c1.8-4.4,2.1-9,0.4-13.5c-0.7-1.9-2-3.7-3.4-5c-2.4-2.3-4.6-1.5-5.6,1.9c-0.5,1.7-0.5,3.5-0.7,5.3c0,4.5,1.2,8.5,3.7,12
			C647.9,296.7,649.9,296.5,651.3,293z"/>
		<path class="st1" d="M651.7,279.5c1.7,4.5,1.4,9.1-0.4,13.5c-1.4,3.5-3.4,3.7-5.5,0.7c-2.5-3.5-3.7-7.5-3.7-12
			c0.2-1.8,0.3-3.6,0.7-5.3c1-3.4,3.2-4.2,5.6-1.9C649.7,275.8,651,277.6,651.7,279.5z"/>
		<path class="st1" d="M645.8,212.8c0,3.2,0,6.4,0,9.6c-0.2,0.6-0.4,1.2-0.5,1.8c-0.8,6.6-3.8,11.2-8.7,14.1
			c-4.3,2.6-9,3.5-13.7,3.8c-6.1,0.4-12.2,0.7-18.4,1.1c-8.7,0.6-10.1-0.3-13.3-10.1c0-2.7,0-5.4,0-8h5.3c0,1,0,2,0.1,3
			c0.5,6.2,3.4,8.9,8.5,8.3c4.1-0.5,8.2-0.7,12.3-1c3.3-0.3,6.5-0.5,9.7-1.1c6.8-1.2,11.2-5.6,12-12.1c0.4-3.7,0.5-7.5,0.4-11.3
			c-0.1-3.9-0.4-7.9-0.7-11.8l5-0.4C644.5,203.4,645.1,208.1,645.8,212.8z"/>
		<path class="st1" d="M643.8,198.7l-5,0.4c-0.4-4.4-0.9-8.8-1.5-13.2l4.6-0.6C642.6,189.7,643.2,194.2,643.8,198.7z"/>
		<path class="st1" d="M642,185.2l-4.6,0.6c-1.1-8.3-2.6-16.5-3.9-24.7c-2-12-3.6-24.2-4.9-36.4c-0.9-8.3-1-16.7-1.2-25
			c-0.2-9.8-0.1-19.7-0.3-29.6c-0.1-3.9-0.5-7.9-1.2-11.7c-0.8-4.4-3-5.8-6.6-4.8c-1.6,0.4-3.1,1.2-4.6,1.9
			c-4.8,1.9-6.8,5.9-6.8,11.9c0.1,16,0,32,0,43.9c-0.5,15.8-0.8,27.4-1.3,39c-1,20.1-3.5,39.9-7.9,59.4c-1.1,5-2.2,10.1-2.2,15.3
			h-5.3c0-1.3,0-2.6,0-3.8c0.4-3.2,0.8-6.4,1.3-9.6c2.4-16.6,6.2-32.9,6.9-49.9c0.7-15.4,2.1-30.7,2.5-46c0.4-16.3-0.1-32.7-0.3-49
			c-0.1-8.3,2.9-14,9.2-17.2c2.1-1,4.2-1.9,6.4-2.6c1.3-0.5,2.7-0.8,4-1.2c0.8,0,1.5,0,2.3,0c0.3,0.2,0.5,0.5,0.8,0.5
			c4.4,0.5,6.7,3.8,7.3,8.7c0.6,5.2,1,10.5,1.1,15.7c0.4,11.3,0.3,22.6,0.9,33.8c0.6,12.7,1.3,25.5,2.8,38.1
			C637.9,156.8,640,171,642,185.2z"/>
		<path class="st1" d="M639.6,210.9c0.1,3.7,0,7.6-0.4,11.3c-0.8,6.5-5.2,10.8-12,12.1c-3.2,0.6-6.5,0.8-9.7,1.1
			c-4.1,0.4-8.2,0.5-12.3,1c-5.1,0.6-8-2.1-8.5-8.3c-0.1-1-0.1-2-0.1-3c0-5.2,1-10.3,2.2-15.3c4.3-19.5,6.9-39.3,7.9-59.4
			c0.5-11.6,0.8-23.3,1.3-39c0-11.9,0.1-27.9,0-43.9c0-6.1,2-10,6.8-11.9c1.5-0.6,3-1.4,4.6-1.9c3.6-1,5.8,0.5,6.6,4.8
			c0.7,3.8,1.1,7.8,1.2,11.7c0.2,9.9,0.1,19.7,0.3,29.6c0.2,8.4,0.3,16.8,1.2,25c1.3,12.2,2.9,24.3,4.9,36.4
			c1.3,8.2,2.8,16.5,3.9,24.7c0.6,4.4,1.1,8.8,1.5,13.2C639.2,203,639.5,207,639.6,210.9z"/>
		<path class="st1" d="M622.6,336.8c0,2.4,0,4.9,0,7.3c-0.1,0.4-0.3,0.8-0.3,1.2c-0.8,3.8-2.2,5.8-4.8,6c-2.2,0.2-4.4,0.1-6.5-0.1
			c-4.8-0.5-6.9,2.3-7.4,9.5c-0.5,6.6,0.3,12.9,1.3,19.2c1.5,9,3.4,17.8,4.7,26.9c1.4,9.8,2.1,19.7,1.7,29.8
			c-0.2,4.1-0.9,7.9-2.4,11.4c-1.8,4.2-4.6,5.7-7.6,6.4c-6.9,1.7-13.9,1.2-20.8,0.3c-1.8-0.2-3.6-0.4-5.3-0.7
			c-3.5-0.5-5.1-2.9-5.6-8.3c-0.6-5.9,0.2-11.7,0.7-17.5c1.3-13.3,2.5-26.7,3.7-40c0.5-5.2,0.9-10.4,1.3-15.6c0.1-1.9,0-3.8-0.1-5.7
			c-0.3-3.4-1.7-5.3-4-5.8c-1.8-0.3-3.6-0.4-5.3-0.9c-3.7-0.9-5.1-3.4-5.3-9c0-0.8-0.2-1.6-0.3-2.4c0-2.8,0-5.5,0-8.2
			c0.1-0.5,0.2-1,0.3-1.5c0.6-4.5,2.2-7.4,5.1-8.5c1.4-0.5,2.8-1,4.2-1.5c3.1-1.1,5.3-3.8,6.4-8.4c0.8-3.4,1.1-6.9,1.6-10.4
			c0.8-5.8-1-11.2-1.4-16.8c-0.5-7.6-1.3-15.1-0.7-22.8c0.6-8,3.3-13.1,8-14.6c0.6-0.2,1.2-0.4,1.9-0.6c1,0,2,0,3,0
			c0.7,0.3,1.3,0.5,2,0.8c3.6,1.6,5.2,5.8,6,10.9c1.5,8.5,0.9,17.3,0.8,25.9c-0.1,5.8-0.3,11.7-0.1,17.5c0.1,5.4,1.6,7.8,5,9.1
			c0.5,0.2,1,0.4,1.5,0.4c3.2,0.3,6.3,0.6,9.5,0.9c5.8,0.5,8.5,4.4,9.1,13.2C622.3,334.9,622.4,335.8,622.6,336.8z M616.3,345.5
			c1.9-0.4,2.6-2,2.6-4.9c0-2.1-0.2-4.3-0.5-6.3c-0.9-6.4-1.4-7.3-5.6-8c-3.4-0.6-6.8-0.6-10.3-0.9c-6-0.5-8.8-4.8-8.9-13.9
			c-0.1-4.6,0-9.2,0-13.7c0,0,0,0,0,0c0-3.2,0.1-6.4,0-9.6c-0.3-6.4-0.6-12.8-1.2-19.1c-0.6-5.2-2.7-7.6-5.8-7.7
			c-3.6-0.2-6.2,2.2-7.1,7.2c-0.6,2.9-1,6-0.8,9c0.4,6.4,0.8,13,1.8,19.2c1.2,7.1,1.1,14,0.2,21c-1,7.9-3.7,13.5-8.8,16.1
			c-1.6,0.8-3.2,1.7-4.8,2.6c-0.3,0.1-0.6,0.4-0.7,0.7c-1.3,3.6-2.9,7.1-2.5,11.7c0.4,4.3,1.5,6.3,4.4,6.5c1.3,0.1,2.7-0.1,4,0.1
			c3.9,0.4,6,3,6.3,8.9c0.3,6.1,0.3,12.4-0.2,18.5c-1.3,16.7-3,33.3-4.5,50c-0.4,4.1-0.8,8.1-1,12.2c-0.1,2.6,0.4,3.4,2.1,3.6
			c1.1,0.2,2.3,0.2,3.4,0.4c6.8,1.2,13.6,1.8,20.4,0.6c5.6-0.9,8.1-4.2,8.4-12.8c0.3-5.8,0.2-11.8-0.6-17.5c-1.8-14.4-4-28.7-6.2-43
			c-1.1-7-1.6-13.9-0.4-21c1-6.3,3.3-9.1,7.5-9.2c0.8,0,1.7,0.1,2.5,0.1C612.3,345.9,614.3,346,616.3,345.5z"/>
		<path class="st1" d="M618.9,340.6c0.1,3-0.6,4.5-2.6,4.9c-2,0.5-4,0.4-6.1,0.5c-0.8,0-1.7-0.1-2.5-0.1c-4.2,0-6.5,2.9-7.5,9.2
			c-1.1,7.1-0.6,14,0.4,21c2.2,14.3,4.4,28.6,6.2,43c0.7,5.7,0.8,11.7,0.6,17.5c-0.4,8.6-2.9,11.9-8.4,12.8
			c-6.8,1.1-13.6,0.5-20.4-0.6c-1.1-0.2-2.3-0.2-3.4-0.4c-1.7-0.3-2.3-1-2.1-3.6c0.2-4.1,0.6-8.2,1-12.2c1.5-16.7,3.1-33.3,4.5-50
			c0.5-6.1,0.5-12.3,0.2-18.5c-0.3-5.9-2.4-8.5-6.3-8.9c-1.3-0.1-2.7,0-4-0.1c-2.8-0.1-4-2.2-4.4-6.5c-0.4-4.6,1.2-8,2.5-11.7
			c0.1-0.3,0.4-0.6,0.7-0.7c1.6-0.9,3.2-1.8,4.8-2.6c5.1-2.6,7.8-8.2,8.8-16.1c0.9-7,1.1-13.9-0.2-21c-1.1-6.2-1.5-12.7-1.8-19.2
			c-0.2-2.9,0.2-6.1,0.8-9c0.9-5,3.5-7.4,7.1-7.2c3.1,0.2,5.2,2.6,5.8,7.7c0.7,6.3,0.9,12.7,1.2,19.1c0.1,3.2,0,6.4,0,9.6
			c0,0,0,0,0,0c0,4.6-0.1,9.2,0,13.7c0.2,9.2,3,13.4,8.9,13.9c3.4,0.3,6.9,0.3,10.3,0.9c4.2,0.7,4.7,1.6,5.6,8
			C618.7,336.3,618.9,338.5,618.9,340.6z"/>
		<path class="st1" d="M581.8,156.7c0.7,8.6-1.4,16.9-2.4,25.4c-1.4,12.3-2.6,24.6,0.1,36.9c0.6,2.8,1.1,5.6,1.6,8.5
			c0,0.7,0,1.4,0,2.1c-0.1,0.2-0.3,0.5-0.4,0.7c-1,2.7-3.2,3.7-5.8,2.4c-1.2-0.6-2.3-1.5-3.1-2.6c-2.6-3-5.7-3.8-9.3-2.5
			c-2.2,0.8-4.3,2-6.3,3.1c-4.7,2.5-9.2,5.4-14,7.7c-9.6,4.6-19.7,5.3-30,3c-9.3-2-12-8.2-9.2-17.5c0.8-2.8,2.8-5.5,4.8-7.7
			c8.8-9.8,19.2-17.6,30.1-24.7c1.6-1.1,3.3-2.1,4.9-3.1c4.9-3,9.4-6.5,12.3-11.5c3.8-6.4,3.9-13,0.6-19.6c-1.4-2.8-3.2-3-4.6-0.3
			c-1.9,3.6-3.4,7.5-4.6,11.4c-0.9,2.9-0.9,6.1-1.9,9c-1.8,5-4.7,8.6-8.5,11.3c-3,2.1-6.4,3.5-10.4,4.4c-9.9,2.4-18.2-0.3-25.3-7.3
			c-3.5-3.5-5.2-7.8-5.5-12.7c0-0.6-0.3-1.1-0.4-1.7c0-0.9,0-1.9,0.1-2.8c0.1-0.1,0.3-0.3,0.3-0.4c1.1-7.5,5.1-13.5,10.2-18.8
			c8-8.2,16.1-16.2,24-24.4c4.9-5.1,10.7-8.1,17.6-9.1c1.2-0.2,2.5-0.3,3.8-0.5c0.2,0,0.5,0,0.7,0c1.7,0.3,3.4,0.5,5,0.9
			c11.5,2.8,19.9,9.4,23,21C580.8,143.4,581.2,150.1,581.8,156.7z M579.1,163.8c0.3-10.3-0.5-17.4-2.1-24.4
			c-2.4-10.6-9.2-17.2-19.4-20.2c-10-3-18.8-0.4-26.2,7c-7.8,7.8-15.6,15.6-23.2,23.5c-2.9,3-5.6,6.3-7.7,9.9
			c-6.5,11.1-3.2,24.1,10,29.8c3.9,1.7,7.8,1.9,11.9,1.3c11.1-1.5,19.9-8.8,20.9-20.6c0.4-5.3,2.3-10.3,5.3-14.7
			c3-4.5,7.2-4.1,9.6,0.7c4.7,9.4,2.9,20.1-5.2,27.6c-3.8,3.5-8.3,6.5-12.7,9.4c-11,7.3-21.5,15.1-30.5,24.8c-2.1,2.3-4,4.7-4.7,7.8
			c-1.6,7.9,0.6,11.6,7.8,13.2c7.9,1.8,15.9,1.9,23.4-1.1c5.6-2.2,10.9-5.4,16.3-8.2c3-1.5,5.9-3.4,9-4.5c4.6-1.7,8.9-0.6,12.1,3.3
			c0.4,0.5,0.9,1,1.4,1.3c0.7,0.3,1.7,0.8,2.2,0.5c0.5-0.3,0.6-1.4,0.8-2.2c0.1-0.3-0.1-0.6-0.1-0.9c-0.8-5.2-2-10.3-2.5-15.6
			c-1-10.9,0.1-21.8,1.5-32.6C577.9,173,578.7,166.9,579.1,163.8z"/>
		<path class="st1" d="M577,139.5c1.6,7,2.3,14.1,2.1,24.4c-0.4,3.1-1.2,9.2-2,15.2c-1.4,10.8-2.5,21.7-1.5,32.6
			c0.5,5.2,1.7,10.4,2.5,15.6c0.1,0.3,0.2,0.6,0.1,0.9c-0.2,0.8-0.3,1.9-0.8,2.2c-0.5,0.3-1.5-0.2-2.2-0.5c-0.6-0.3-1-0.8-1.4-1.3
			c-3.3-3.9-7.5-5-12.1-3.3c-3.1,1.1-6,3-9,4.5c-5.4,2.8-10.7,6-16.3,8.2c-7.6,3-15.5,2.9-23.4,1.1c-7.2-1.6-9.4-5.3-7.8-13.2
			c0.6-3.1,2.6-5.5,4.7-7.8c9-9.7,19.5-17.5,30.5-24.8c4.4-2.9,8.8-5.8,12.7-9.4c8.1-7.5,9.9-18.2,5.2-27.6
			c-2.4-4.8-6.5-5.2-9.6-0.7c-3,4.4-4.9,9.5-5.3,14.7c-1,11.8-9.8,19.1-20.9,20.6c-4.1,0.6-8,0.4-11.9-1.3
			c-13.2-5.7-16.5-18.7-10-29.8c2.1-3.6,4.8-6.9,7.7-9.9c7.6-8,15.4-15.7,23.2-23.5c7.3-7.4,16.2-9.9,26.2-7
			C567.8,122.3,574.6,128.9,577,139.5z M560.8,199.7c0.8-3.7-1.5-5.8-5.2-5.3c-4.8,0.7-9.2,2.4-12.9,5.6c-4.6,4-9.2,8.2-13.5,12.5
			c-1.6,1.7-2.9,3.9-3.7,6.1c-1.5,4.2,1.5,7.9,7,8c1.2-0.4,3.5-0.7,5.5-1.7c9.1-4.4,16-11.2,20.9-20.1
			C559.8,203.3,560.4,201.5,560.8,199.7z"/>
		<path class="st1" d="M555.6,194.4c3.7-0.6,5.9,1.6,5.2,5.3c-0.4,1.8-0.9,3.6-1.8,5.2c-4.9,8.8-11.8,15.6-20.9,20.1
			c-2,1-4.4,1.4-5.5,1.7c-5.5-0.1-8.5-3.8-7-8c0.8-2.2,2-4.5,3.7-6.1c4.3-4.4,8.9-8.5,13.5-12.5
			C546.4,196.9,550.8,195.1,555.6,194.4z M558,199.8c0.8-2.3-0.1-3.1-2.5-2.7c-3.9,0.8-7.7,2.1-10.7,4.7c-4.6,4-9.2,8.2-13.6,12.5
			c-1.3,1.3-2.3,3-3,4.7c-1.1,2.6,0.5,4.8,4.3,4.9c1.2-0.4,3.4-1,5.4-1.9c6.9-3.5,12.3-8.7,16.7-15.1
			C556,204.8,557.1,202.3,558,199.8z"/>
		<path class="st1" d="M556,411.9c0.2,2.4,0,4.9,0,7.2c0,0.6-0.2,1.2-0.4,1.9c-1.7,7.7-4,14.6-10.1,20c-8.5,7.3-17.8,11-28.7,12.8
			c-2.7,0.4-5.3,0.5-8,0.7c-1.8,0.1-3.7,0-5.5,0c-0.6,0-1.1-0.2-1.7-0.2c-7.4-0.5-14.3-1.5-21.1-4.8c-3.3-1.6-6.1-3.7-8.2-6.9
			s-1.7-6.9,1.2-9.7c1.8-1.8,4.1-2.7,6.6-3.1c5.1-0.8,10.3-0.3,15.4,0.2c5.6,0.5,11.4,1.6,16.9,1.7c7,0.2,11.9-2.6,14.9-8.7
			c1.5-3,0.1-4.7-2.9-5.2c-1.9-0.3-4.1-0.1-6.2,0.2c-5.2,0.6-10.5,2-15.8,2.4c-6.9,0.4-13.4-1.2-19.9-3.3
			c-11.6-3.8-18.8-10.5-21.5-22.4c-0.8-3.4-0.5-6.8-1-10.2c-0.1-0.7-0.1-1.4,0-2c0.4-2.8,0.1-5.3,0.2-8.1c0.2-8,2.3-16.2,6.4-23.3
			c8.2-14.1,18.8-21.8,34.8-25.2c2.7-0.6,5.4-0.7,8.2-0.9c1.8-0.1,3.7-0.1,5.5,0c2.5,0.2,5.1,0.5,7.6,1.1
			c9.8,2.4,16.9,6.7,21.1,16.1c2,4.4,2.6,9.3,2.6,14.1c-0.1,8.4-2.6,15.6-8.5,21.7c-3.6,3.7-7.9,5.5-12.7,6.5
			c-1.6,0.3-3.2,0.5-4.8,0.7c-6.5,0.6-11.3-1.6-15.9-6c-1.7-1.6-3-3.5-4.7-5.1c-2.3-2.3-4.6-4.5-7.8-5.5c-3.2-1-5.8-0.2-7.6,2.6
			c-1.2,1.8-2.2,4.1-2.5,6.1c-0.8,6.5,0.9,10.3,7.2,12.5c2.8,1,6,1.4,9.1,1.5c7.4,0.4,14.5-1.2,21.8-2.4c2-0.3,3.9-0.7,5.9-1
			c3.8-0.7,7.6-1.3,11.5-1.3c7.2-0.1,11.8,3.2,14.9,9.6c1.1,2.3,1.8,4.7,2.4,7.2C555.2,406,555.7,408.9,556,411.9z M550,424.5
			c3.3-9.7,0.7-18.7-2.3-28c-0.9-2.9-3.6-4.4-6.4-5.3c-3.5-1.1-7.2-1-10.9-0.5c-8.5,1.2-16.9,2.9-25.5,3.9c-6,0.7-11.9,0.8-17.7-0.9
			c-4.6-1.4-8-3.9-9.1-8.8c-1.4-6.1-0.5-11.7,3-17c2.3-3.4,5.7-4.5,9.7-4.1c2.8,0.2,5.5,1.3,7.7,3.1c2.8,2.4,5.2,5.1,7.6,7.9
			c3.9,4.5,8,6.4,13.9,6c0.8-0.1,1.6-0.2,2.4-0.3c9.6-2.3,15.7-7.3,18.8-16.8c1.6-4.8,1.2-9.7,0.2-14.5
			c-2.3-10.5-8.1-17.1-18.8-19.3c-8.4-1.7-16.8-1.6-25,1c-17.1,5.4-25.8,16.4-31.5,33c-1.4,3.9-1.4,8.3-1.6,12.3
			c-0.2,4.5-0.6,8.6,0,13.1c1.3,11.3,6.6,18.8,17.5,23.1c9.7,3.7,19.8,3.6,30,2c4.5-0.7,9.1-2.1,13.6-1.5c5.5,0.7,8.4,4.6,6.4,10
			c-2.3,6-6.5,10-12.6,12.2c-4.8,1.8-9.8,1-14.8,0.6c-6.3-0.6-12.6-1.5-19-1.9c-2.6-0.2-5,0.8-7,2.3c-2.9,2.1-2.9,4.7-0.5,7.1
			c1.5,1.4,4.2,2.6,5.8,3.2c5.7,2,15.3,3.6,20.1,3.6c9.5,0,17.3-0.6,24.8-3.8C539.7,441.5,546.2,435.2,550,424.5z"/>
		<path class="st1" d="M547.7,396.5c3,9.3,5.6,18.3,2.3,28c-3.7,10.7-10.3,17.1-21.1,21.7c-7.5,3.2-15.3,3.8-24.8,3.8
			c-4.8,0-14.4-1.6-20.1-3.6c-1.6-0.6-4.3-1.8-5.8-3.2c-2.4-2.4-2.4-4.9,0.5-7.1c2.1-1.5,4.4-2.5,7-2.3c6.4,0.4,12.7,1.3,19,1.9
			c5,0.4,10,1.2,14.8-0.6c6-2.2,10.3-6.2,12.6-12.2c2-5.3-0.9-9.2-6.4-10c-4.5-0.6-9.1,0.8-13.6,1.5c-10.2,1.6-20.3,1.7-30-2
			c-10.9-4.2-16.2-11.7-17.5-23.1c-0.5-4.5-0.2-8.6,0-13.1c0.2-4,0.2-8.4,1.6-12.3c5.8-16.6,14.4-27.6,31.5-33
			c8.3-2.6,16.6-2.7,25-1c10.7,2.2,16.5,8.7,18.8,19.3c1,4.8,1.4,9.7-0.2,14.5c-3,9.5-9.1,14.4-18.8,16.8c-0.8,0.2-1.6,0.3-2.4,0.3
			c-6,0.5-10-1.5-13.9-6c-2.4-2.8-4.8-5.5-7.6-7.9c-2.2-1.8-4.9-2.9-7.7-3.1c-4-0.4-7.5,0.7-9.7,4.1c-3.5,5.3-4.4,10.9-3,17
			c1.1,4.9,4.5,7.4,9.1,8.8c5.8,1.7,11.7,1.6,17.7,0.9c8.6-1,17-2.8,25.5-3.9c3.7-0.5,7.4-0.6,10.9,0.5
			C544.1,392,546.8,393.5,547.7,396.5z"/>
		<path class="st1" d="M536.1,98.2c4.4-13.2,2.2-25.1-7.9-34.8c-10.6-10.3-23.5-15-38.2-13c-10.6,1.4-19.3,5.3-26.1,11.7l-4-3
			c5.6-5,11.1-10.3,18.6-12.1c20.2-5,39-2.2,54.3,12.9c17.2,17,12.3,43.4-0.6,55.6c-8.1,7.7-20.8,10.4-30,6.3c-4.5-2-8-5.2-10.2-9.7
			c-2.5-4.9-4.8-9.9-7.4-14.7c-1.3-2.4-2.9-4.6-4.8-6.5c-3.3-3.3-7.1-2.9-10,0.8c-2.9,3.7-3.8,8.1-4.4,12.5c-0.2,1.5-0.4,3-0.5,4.5
			l-4.6-0.3c0.2-3,0.5-5.9,0.8-8.8c0.5-3.5,1.1-7,2.6-10.2c3.5-7.5,12.4-9,18.4-3.2c2,1.9,3.7,4.2,5.1,6.5c2.3,3.8,4.2,7.7,6.2,11.6
			c2.4,4.6,5.3,8.7,9.8,11.3c9.1,5.3,22.6,1.7,28.5-7.9C533.6,104.8,535,101.5,536.1,98.2z"/>
		<path class="st1" d="M528.2,63.4c10,9.8,12.3,21.7,7.9,34.8c-1.1,3.3-2.5,6.6-4.3,9.6c-5.9,9.6-19.4,13.2-28.5,7.9
			c-4.6-2.6-7.5-6.8-9.8-11.3c-2-3.9-4-7.9-6.2-11.6c-1.4-2.4-3.2-4.6-5.1-6.5c-5.9-5.7-14.9-4.2-18.4,3.2
			c-1.5,3.1-2.1,6.7-2.6,10.2c-0.4,2.9-0.6,5.8-0.8,8.8c-0.2,2.8-0.4,5.6-0.6,8.6c0.4,3.4,0.5,7.3,1.2,11.2c1.2,6.6,3.7,8.9,10.5,10
			c2.5,0.4,5,0.4,7.4,1c1.5,0.4,3,1.6,4.2,2.8c1.1,1.2,0,2.2-1.1,2.7c-2.7,1.2-5.4,2.2-8.1,3.3c-0.5,0.2-1.1,0.3-1.7,0.4
			c-6.7,1.7-9.4,5.8-7.7,12.4c1.4,5.4,3.1,10.9,5.3,16c6.1,14.5,7,29.6,6.2,44.9c-0.2,4.1-1.5,8-4.2,11.2c-3.3,4-7.7,5.1-12.5,3.9
			c-4.9-1.2-6.5-5.5-6.6-9.9c-0.2-7.9-0.1-15.9,0.6-23.7c0.9-9.8,1.3-19.6-0.1-29.4c-0.6-4.1-0.4-8.3-0.7-12.5
			c-0.1-1.8-0.2-3.7-0.5-5.5c-0.3-2.2-1.7-3.2-3.9-3.5c-2.2-0.3-4.3-0.9-6.4-1.5c-2.2-0.7-2.7-1.9-1.5-3.9c0.9-1.4,2.3-2.9,3.7-3.5
			c6.8-2.8,7.5-8,6.6-14.2c-2.3-16-4.2-32.2,1.4-47.9c2.8-7.9,6.8-14.3,12.1-19.2c6.8-6.4,15.5-10.3,26.1-11.7
			C504.7,48.4,517.6,53.1,528.2,63.4z"/>
		<path class="st1" d="M488.4,138.6c2.1,3.8,1.6,7.3-2.1,9.5c-2.9,1.7-6.3,2.7-9.5,4c-1.4,0.5-2.8,0.8-4.2,1.3
			c-3.3,1.2-4.3,3-3.3,6.4c1.2,4,2.8,8,4.4,12c4.4,11.8,6.9,23.9,7.3,36.5c0.1,5.6,0.4,11.3-0.1,16.9c-0.5,5.2-3.1,9.9-7,13.4
			c-2.1,1.9-5.2,2.8-7.8,4.2c-1.9,0-3.8,0-5.7,0c-0.8-0.2-1.5-0.4-2.3-0.6c-7.3-1.5-11.2-6.2-11.2-14.6c0-7.5,0.3-15,1-22.4
			c0.8-9.8,0.9-19.5-0.3-29.2c-0.5-4.1-0.3-8.3-0.4-12.5c0-1,0-2.1,0-3.1c0-1.7-0.5-2.7-2.6-3c-2.1-0.3-4.3-0.9-6.3-1.8
			c-6.2-3-6.9-9.6-1.7-13.9c2-1.6,4.1-3,6.1-4.7c2-1.6,2.8-3.5,2.4-6.3c-1.7-13-2.8-26.1-1.4-39.3c1.4-12.7,6.5-23.5,16.1-32.1l4,3
			c-5.2,4.9-9.3,11.4-12.1,19.2c-5.5,15.7-3.6,31.9-1.4,47.9c0.9,6.2,0.2,11.4-6.6,14.2c-1.5,0.6-2.8,2.1-3.7,3.5
			c-1.3,1.9-0.8,3.1,1.5,3.9c2.1,0.7,4.2,1.3,6.4,1.5c2.2,0.3,3.6,1.3,3.9,3.5c0.3,1.8,0.4,3.6,0.5,5.5c0.2,4.2,0.1,8.4,0.7,12.5
			c1.4,9.8,1,19.6,0.1,29.4c-0.7,7.9-0.8,15.8-0.6,23.7c0.1,4.4,1.7,8.7,6.6,9.9c4.8,1.2,9.2,0.1,12.5-3.9c2.7-3.2,3.9-7.1,4.2-11.2
			c0.8-15.4-0.1-30.5-6.2-44.9c-2.2-5.2-3.9-10.6-5.3-16c-1.7-6.6,1.1-10.7,7.7-12.4c0.6-0.1,1.2-0.2,1.7-0.4
			c2.7-1.1,5.5-2.1,8.1-3.3c1.1-0.5,2.2-1.5,1.1-2.7c-1.1-1.2-2.6-2.4-4.2-2.8c-2.4-0.7-4.9-0.7-7.4-1c-6.7-1.1-9.2-3.4-10.5-10
			c-0.7-3.8-0.9-7.7-1.2-11.2c0.2-2.9,0.4-5.8,0.6-8.6l4.6,0.3c-0.4,5.3-0.1,10.6,0.9,15.9c1.2,6.1,3.9,8.3,10.5,8.9
			c2.2,0.2,4.4,0.5,6.5,1C485.2,134.9,487.1,136.4,488.4,138.6z"/>
		<path class="st1" d="M460,432.3v2.1c-0.1,0.3-0.4,0.6-0.4,0.9c-0.3,4.4-2.7,7.2-6.3,9.2c-2.1,1.1-4.3,2.1-6.5,2.7
			c-10.6,3-21.5,5-32.5,6.3c-2.3,0.3-4.6,0.6-6.9,0.9h-5.4c-0.7-0.1-1.3-0.4-2-0.4c-10.3-0.5-20.2-2.9-29.6-7.2
			c-13.7-6.3-22.9-16.4-27-30.5c-0.6-5.1-1.1-10.3-1.4-15.4c0.2-1,0.3-2.1,0.2-3.1c-0.6-7.1,2-13.5,4.4-19.9
			c5-13.2,13.8-23.2,25.1-31.2c11.4-8.1,23.4-14.7,37.2-17.7c7.7-1.7,14.3-0.2,19.5,6.1c8.9,10.9,15.2,23.2,19.1,36.7
			c2.4,8.1-0.1,15-6.4,20.7c-5.5,4.9-12.1,7.9-18.4,11.3c-10.6,5.7-22,8.8-33.9,10.5c-3.6,0.5-7.2,1.2-10.8,1.8
			c0,0.2-0.1,0.4-0.1,0.6c2.7,0.6,5.4,1.4,8.1,1.8c8.2,1.3,16.2-0.6,24.1-2.2c11.2-2.3,22.5-4.6,33.7-6.6c5.7-1,8.9,1,11.3,6.2
			c2.2,4.8,3.9,9.8,4.3,15.2C459.6,431.6,459.8,432,460,432.3z M454.1,434.1c0.3-5.3-0.6-10.4-2.7-15.3c-1.2-2.8-3.3-4.3-6.4-4
			c-3.9,0.3-7.8,0.7-11.5,1.6c-12.4,2.9-24.8,6.4-37.6,7.3c-8.8,0.7-17.3-0.7-25.3-4.6c-0.9-0.4-2-1.6-2-2.4c0-1,0.9-2.4,1.8-2.8
			c3-1.4,6.1-2.7,9.3-3.4c5.5-1.2,11.3-1.7,16.8-2.8c12.5-2.6,23.9-8.1,35-14.3c2.5-1.4,4.8-3.4,6.9-5.4c4.1-3.9,5.5-8.8,4.1-14.3
			c-3.2-13.1-9.9-24.4-18-34.9c-2.8-3.6-6.8-5.6-11.6-5.1c-2.6,0.3-5.2,1-7.7,1.8c-13.7,4.5-25.8,12-37.1,20.9
			c-7.6,5.9-13,13.5-16.4,22.5c-1.6,4.2-3.2,8.4-4,12.8c-0.2,0.4-0.4,0.9-0.4,1.4c0,0.7-0.1,1.4-0.1,2.2c-0.8,5.1-1.5,10.3-0.1,15.1
			c0.6,7.5,2.7,14.8,8.2,19.3c2.7,3.4,6.1,6.3,10.2,8.8c11.8,7.1,24.6,10.8,42.5,10.8c5.1-0.6,14.1-1.5,23.1-3.1
			c6-1.1,11.9-3.2,17.8-5.1C452.1,439.8,453.9,437.4,454.1,434.1z"/>
		<path class="st1" d="M451.4,418.8c2.1,4.9,3,10,2.7,15.3c-0.2,3.3-2,5.7-5.1,6.7c-5.9,1.9-11.7,4-17.8,5.1
			c-8.9,1.6-18,2.4-23.1,3.1c-17.9,0-30.7-3.7-42.5-10.8c-4.1-2.5-7.4-5.4-10.2-8.8c-5.6-4.5-7.6-11.8-8.2-19.3
			c-1.3-4.8-0.7-10,0.1-15.1c0-0.7,0.1-1.5,0.1-2.2c0-0.5,0.2-1,0.4-1.4c0.8-4.4,2.5-8.6,4-12.8c3.3-9,8.8-16.6,16.4-22.5
			c11.3-8.8,23.3-16.4,37.1-20.9c2.5-0.8,5.1-1.5,7.7-1.8c4.7-0.5,8.7,1.4,11.6,5.1c8.1,10.5,14.8,21.9,18,34.9
			c1.3,5.5-0.1,10.4-4.1,14.3c-2.1,2-4.4,4-6.9,5.4c-11,6.2-22.4,11.7-35,14.3c-5.6,1.2-11.3,1.7-16.8,2.8c-3.2,0.7-6.3,2.1-9.3,3.4
			c-0.9,0.4-1.8,1.9-1.8,2.8c0,0.8,1.1,2,2,2.4c8,3.9,16.5,5.3,25.3,4.6c12.8-0.9,25.2-4.4,37.6-7.3c3.8-0.9,7.7-1.2,11.5-1.6
			C448.1,414.5,450.3,415.9,451.4,418.8z M416,388.3c4.3-3.2,5.7-9.4,3.9-14.6c-1.4-4-5.5-6.6-11.1-6.5c-4.2,0.1-8.5,0.6-12.6,1.3
			c-7,1.2-13.8,3.1-19.8,7.3c-3.4,2.4-6,5.3-7.2,9.4c-0.3,1-0.5,2.2-0.3,3.2c1,3.9,3.5,6.4,7.4,7.3c2.2,0.5,4.5,0.7,6.2,0.9
			c8.7-0.7,16.8-1.4,24.6-3.9C410.3,391.9,413.4,390.3,416,388.3z"/>
		<path class="st1" d="M419.8,373.8c1.8,5.1,0.4,11.4-3.9,14.6c-2.6,1.9-5.7,3.5-8.8,4.5c-7.8,2.5-15.9,3.2-24.6,3.9
			c-1.7-0.2-4-0.4-6.2-0.9c-3.9-0.9-6.4-3.5-7.4-7.3c-0.3-1,0-2.2,0.3-3.2c1.1-4.1,3.8-7.1,7.2-9.4c6-4.2,12.8-6.1,19.8-7.3
			c4.2-0.7,8.4-1.2,12.6-1.3C414.3,367.2,418.4,369.8,419.8,373.8z M412.5,383.9c2.6-2.2,3.4-4.8,2.4-7.8c-0.8-2.4-3.2-4.1-6.5-4
			c-9.8,0.3-19.2,2.6-27.8,7.5c-1.9,1.1-3.7,2.8-5.1,4.6c-2.5,3.1-1.8,5.3,2.1,6.5c2.6,0.8,5.3,1,7.5,1.4c3.4-0.4,6.2-0.6,9-1.1
			c5.3-0.9,10.5-2.2,15.2-4.9C410.4,385.5,411.5,384.7,412.5,383.9z"/>
		<path class="st1" d="M387.5,310c4.4-13.2,2.1-25.1-7.9-34.8c-10.6-10.3-23.5-15-38.2-13c-10.6,1.4-19.3,5.3-26.1,11.7l-4-3
			c5.6-5,11.2-10.3,18.6-12.1c20.2-5,39-2.2,54.3,12.9c17.2,17,12.3,43.4-0.6,55.6c-8.1,7.7-20.8,10.4-30,6.3c-4.5-2-8-5.2-10.2-9.7
			c-2.5-4.9-4.8-9.9-7.4-14.7c-1.3-2.4-2.9-4.6-4.8-6.5c-3.3-3.3-7.1-2.9-10,0.8c-2.9,3.6-3.8,8.1-4.4,12.5c-0.2,1.5-0.4,3-0.5,4.5
			l-4.6-0.3c0.2-3,0.5-5.9,0.8-8.7c0.4-3.5,1.1-7,2.6-10.1c3.5-7.5,12.4-9,18.4-3.3c2,1.9,3.7,4.2,5.1,6.6c2.3,3.7,4.2,7.7,6.2,11.6
			c2.4,4.6,5.3,8.7,9.8,11.3c9.1,5.3,22.7,1.7,28.6-7.9C385,316.6,386.4,313.3,387.5,310z"/>
		<path class="st1" d="M379.7,275.2c10,9.8,12.3,21.7,7.9,34.8c-1.1,3.3-2.5,6.6-4.3,9.6c-5.9,9.6-19.4,13.2-28.6,7.9
			c-4.5-2.6-7.4-6.8-9.8-11.3c-2-3.9-4-7.9-6.2-11.6c-1.4-2.4-3.2-4.6-5.1-6.6c-5.9-5.7-14.9-4.2-18.4,3.3
			c-1.5,3.1-2.1,6.7-2.6,10.1c-0.4,2.9-0.6,5.8-0.8,8.7c-0.2,2.8-0.4,5.6-0.6,8.6c0.4,3.5,0.5,7.3,1.2,11.2c1.2,6.6,3.8,8.9,10.5,10
			c2.5,0.4,5,0.4,7.4,1c1.5,0.4,3,1.6,4.2,2.8c1.1,1.2,0,2.3-1.1,2.7c-2.7,1.2-5.4,2.2-8.1,3.3c-0.6,0.2-1.1,0.3-1.7,0.4
			c-6.7,1.7-9.4,5.8-7.7,12.4c1.4,5.5,3.1,10.9,5.3,16c6.1,14.5,7,29.6,6.2,45c-0.2,4-1.5,7.9-4.2,11.2c-3.3,4-7.8,5.1-12.5,3.9
			c-4.9-1.2-6.5-5.5-6.6-9.9c-0.2-7.9-0.1-15.8,0.6-23.7c0.9-9.8,1.3-19.6-0.1-29.4c-0.6-4.1-0.4-8.3-0.7-12.5
			c-0.1-1.8-0.2-3.7-0.5-5.5c-0.3-2.2-1.7-3.2-3.9-3.5c-2.2-0.3-4.3-0.9-6.4-1.5c-2.2-0.7-2.7-1.9-1.5-3.9c0.9-1.4,2.3-2.9,3.7-3.5
			c6.8-2.8,7.5-8.1,6.6-14.2c-2.3-16-4.2-32.2,1.4-47.9c2.8-7.9,6.8-14.3,12.1-19.2c6.8-6.4,15.5-10.3,26.1-11.7
			C356.2,260.2,369.1,264.9,379.7,275.2z"/>
		<path class="st1" d="M339.9,350.4c2.2,3.8,1.7,7.3-2.1,9.5c-2.9,1.7-6.3,2.7-9.5,4c-1.4,0.5-2.8,0.8-4.2,1.3
			c-3.3,1.2-4.3,3-3.3,6.4c1.2,4.1,2.8,8,4.4,12c4.4,11.8,6.9,23.9,7.2,36.5c0.1,5.6,0.5,11.3-0.1,16.9c-0.5,5.2-3.1,9.9-7,13.4
			c-2.1,1.9-5.2,2.8-7.8,4.2c-1.9,0-3.8,0-5.7,0c-0.8-0.2-1.5-0.4-2.3-0.6c-7.3-1.5-11.2-6.2-11.2-14.6c0-7.5,0.3-15,1-22.4
			c0.8-9.8,0.9-19.5-0.3-29.2c-0.5-4.1-0.3-8.4-0.4-12.5c0-1,0-2.1,0-3.1c0-1.7-0.6-2.8-2.6-3c-2.1-0.3-4.3-0.9-6.3-1.8
			c-6.2-3-6.9-9.6-1.7-13.9c2-1.6,4.1-3,6.1-4.7c2-1.6,2.8-3.5,2.4-6.3c-1.7-13-2.8-26.1-1.4-39.3c1.4-12.7,6.5-23.4,16.1-32.1l4,3
			c-5.2,4.9-9.3,11.4-12.1,19.2c-5.5,15.7-3.6,31.9-1.4,47.9c0.9,6.1,0.3,11.4-6.6,14.2c-1.5,0.6-2.8,2.1-3.7,3.5
			c-1.3,1.9-0.8,3.1,1.5,3.9c2.1,0.7,4.2,1.2,6.4,1.5c2.2,0.3,3.6,1.3,3.9,3.5c0.3,1.8,0.4,3.6,0.5,5.5c0.2,4.2,0.1,8.4,0.7,12.5
			c1.4,9.8,1,19.6,0.1,29.4c-0.7,7.9-0.8,15.8-0.6,23.7c0.1,4.4,1.7,8.7,6.6,9.9c4.8,1.2,9.2,0.1,12.5-3.9c2.7-3.2,3.9-7.1,4.2-11.2
			c0.8-15.4-0.1-30.5-6.2-45c-2.2-5.2-3.9-10.6-5.3-16c-1.7-6.6,1.1-10.7,7.7-12.4c0.6-0.1,1.2-0.2,1.7-0.4c2.7-1,5.5-2.1,8.1-3.3
			c1.1-0.5,2.2-1.5,1.1-2.7c-1.2-1.2-2.6-2.4-4.2-2.8c-2.4-0.7-4.9-0.7-7.4-1c-6.7-1.1-9.2-3.3-10.5-10c-0.7-3.8-0.9-7.7-1.2-11.2
			c0.2-3,0.4-5.8,0.6-8.6l4.6,0.3c-0.4,5.3-0.1,10.6,0.9,15.9c1.2,6.1,3.9,8.2,10.5,8.9c2.2,0.2,4.4,0.5,6.5,1
			C336.7,346.7,338.6,348.2,339.9,350.4z"/>
	</g>
	<g>
	</g>
</g>
<rect x="262.8" y="480.2" class="st2" width="698.3" height="79.2"/>
<text transform="matrix(1 0 0 1 274.5624 512.6371)" class="st3 st4 st5">The 26th Annual Music &amp; Arts Festival</text>
<rect x="279.7" y="609" class="st2" width="618.4" height="108.6"/>
<text transform="matrix(1 0 0 1 290.2695 630.5079)"><tspan x="0" y="0" class="st3 st4 st6">• Festival Camping • Pop Up Bars &amp; Beer Gardens • </tspan><tspan x="5.7" y="36" class="st3 st4 st6">Yoga &amp; Wellbeing • Food Trucks &amp; Gourmet Fare • </tspan><tspan x="22.6" y="72" class="st3 st4 st6">Makers Markets • Interactive Arts + Loads More</tspan></text>
<rect x="269.5" y="534.4" class="st2" width="164" height="52.6"/>
<text transform="matrix(1 0 0 1 326.3116 551.5948)"><tspan x="0" y="0" class="st3 st7 st8">Lorne </tspan><tspan x="-48.1" y="28.8" class="st3 st7 st8">28-31 December</tspan></text>
<rect x="555.3" y="534.4" class="st2" width="223.3" height="52.6"/>
<text transform="matrix(1 0 0 1 621.5402 551.5948)"><tspan x="0" y="0" class="st3 st7 st8">Byron Bay</tspan><tspan x="-65.6" y="28.8" class="st3 st7 st8">31 December - 2 January</tspan></text>
<rect x="783" y="534.4" class="st2" width="141.3" height="52.6"/>
<text transform="matrix(1 0 0 1 809.3477 551.5948)"><tspan x="0" y="0" class="st3 st7 st8">Fremantle</tspan><tspan x="-16.4" y="28.8" class="st3 st7 st8">5 &amp; 6 January</tspan></text>
<rect x="427" y="534.4" class="st2" width="123.8" height="52.6"/>
<text transform="matrix(1 0 0 1 439.1924 551.5948)"><tspan x="0" y="0" class="st3 st7 st8">Marion Bay</tspan><tspan x="4.4" y="28.8" class="st3 st7 st8">29-31 Dec</tspan></text>
<rect x="77.7" y="752" class="st2" width="981" height="738.5"/>
<text transform="matrix(1 0 0 1 136.8871 782.0707)"><tspan x="0" y="0" class="st9 st4 st10">Alice Skye</tspan><tspan x="172.3" y="0" class="st11 st4 st10"> </tspan><tspan x="181.9" y="0" class="st12 st4 st10">• Amy Shark</tspan><tspan x="383.5" y="0" class="st11 st4 st10"> </tspan><tspan x="393" y="0" class="st13 st4 st10">• Anderson .Paak &amp; The Free  </tspan><tspan x="-52.1" y="60" class="st13 st4 st10">Nationals</tspan><tspan x="102.9" y="60" class="st11 st4 st10"> </tspan><tspan x="112.5" y="60" class="st14 st4 st10">• Barton </tspan><tspan x="254.6" y="60" class="st15 st4 st10">• Bishop Briggs</tspan><tspan x="511.6" y="60" class="st16 st4 st10"> </tspan><tspan x="521.2" y="60" class="st9 st4 st10">• Briggs</tspan><tspan x="651.9" y="60" class="st11 st4 st10"> </tspan><tspan x="661.5" y="60" class="st12 st4 st10">• Cashmere Cat </tspan><tspan x="-51.5" y="120" class="st12 st4 st10">(Aus only) </tspan><tspan x="126.4" y="120" class="st13 st4 st10">• Catfish &amp; The Bottlemen (Aus only) </tspan><tspan x="735.5" y="120" class="st14 st4 st10">• Chvrches </tspan><tspan x="-45.4" y="180" class="st15 st4 st10">• Cub Sport</tspan><tspan x="142.6" y="180" class="st17 st4 st10"> </tspan><tspan x="152.2" y="180" class="st9 st4 st10">• Dermot Kennedy </tspan><tspan x="458.9" y="180" class="st12 st4 st10">• Dizzee </tspan><tspan x="597.4" y="180" class="st13 st4 st10">Rascal (Aus only) </tspan><tspan x="895.9" y="180" class="st14 st4 st10">• </tspan><tspan x="-15.5" y="240" class="st14 st4 st10">DMA’s</tspan><tspan x="91.6" y="240" class="st11 st4 st10"> </tspan><tspan x="101.2" y="240" class="st15 st4 st10">• Eves Karydas</tspan><tspan x="348.8" y="240" class="st17 st4 st10"> </tspan><tspan x="358.3" y="240" class="st9 st4 st10">• First Aid Kit (Aus only) </tspan><tspan x="762.7" y="240" class="st12 st4 st10">• Flight </tspan><tspan x="-57.6" y="300" class="st12 st4 st10">Facilities </tspan><tspan x="99.4" y="300" class="st13 st4 st10">• Golden Features</tspan><tspan x="392.8" y="300" class="st11 st4 st10"> </tspan><tspan x="402.4" y="300" class="st14 st4 st10">• Hilltop Hoods</tspan><tspan x="647.9" y="300" class="st11 st4 st10"> </tspan><tspan x="657.4" y="300" class="st15 st4 st10">• Hobo Johnson </tspan><tspan x="-44.3" y="360" class="st15 st4 st10">&amp; The Love Makers</tspan><tspan x="269.6" y="360" class="st11 st4 st10"> </tspan><tspan x="279.2" y="360" class="st9 st4 st10">• Hatchie</tspan><tspan x="425.2" y="360" class="st11 st4 st10"> </tspan><tspan x="434.8" y="360" class="st12 st4 st10">• Heaps Gay DJ’s &amp; Friends </tspan><tspan x="894.8" y="360" class="st13 st4 st10">• </tspan><tspan x="-4.4" y="420" class="st13 st4 st10">Hockey Dad</tspan><tspan x="192.8" y="420" class="st14 st4 st10"> • Interpol </tspan><tspan x="359.8" y="420" class="st15 st4 st10">• Jack River</tspan><tspan x="553.8" y="420" class="st9 st4 st10"> • Juice Wrld</tspan><tspan x="759.2" y="420" class="st11 st4 st10"> </tspan><tspan x="768.8" y="420" class="st12 st4 st10">• King </tspan><tspan x="-26.1" y="480" class="st12 st4 st10">Gizzard &amp; The Lizard Wizard </tspan><tspan x="446.7" y="480" class="st13 st4 st10">• Kinder </tspan><tspan x="586.9" y="480" class="st14 st4 st10">• Kota Banks </tspan><tspan x="807.6" y="480" class="st15 st4 st10">• Lex </tspan><tspan x="-59.2" y="540" class="st15 st4 st10">  Deluxe</tspan><tspan x="72.9" y="540" class="st17 st4 st10">   </tspan><tspan x="101.6" y="540" class="st9 st4 st10">• LPX      </tspan><tspan x="247.7" y="540" class="st12 st4 st10">• Mahalia    </tspan><tspan x="434" y="540" class="st13 st4 st10">• Mallrat  </tspan><tspan x="585.8" y="540" class="st14 st4 st10">• Ocean Alley</tspan></text>
<linearGradient id="SVGID_2_" gradientUnits="userSpaceOnUse" x1="606.8121" y1="1623.0349" x2="888.8736" y2="1623.0349">
	<stop  offset="0" style="stop-color:#FFFFFF;stop-opacity:0"/>
	<stop  offset="0.1672" style="stop-color:#F7F6CA;stop-opacity:0.33"/>
	<stop  offset="1" style="stop-color:#E9E612"/>
	<stop  offset="1" style="stop-color:#E9E71D"/>
</linearGradient>
<polygon class="st18" points="888.9,1616.5 606.8,1571.2 606.8,1674.9 888.9,1641.1 "/>
<g id="XMLID_3_">
	<g>
		<polygon class="st19" points="1151.1,1560 1137.5,1560 1133,1553.8 1133,1547.4 1128.3,1547.4 1124.2,1541.8 1133,1541.9 		"/>
		<polygon class="st20" points="1137.5,1560 1133,1560 1133,1553.8 		"/>
		<polygon class="st21" points="1111.9,1560 1123.9,1560 1133,1560 1133,1603.9 1002.5,1603.9 1002.5,1560 1012.3,1560 1024.3,1560 
			1035.3,1560 1045,1560 1053.9,1560 1063,1560 1072.9,1560 1081.8,1560 1090.8,1560 1101,1560 		"/>
		<polygon class="st20" points="1133,1553.8 1133,1560 1123.9,1560 1118.3,1547.4 1128.3,1547.4 		"/>
		<polygon class="st19" points="1133,1547.4 1133,1553.8 1128.3,1547.4 		"/>
		<polygon class="st20" points="1124.2,1541.8 1128.3,1547.4 1118.3,1547.4 1115.8,1541.8 		"/>
		<polygon class="st19" points="1123.9,1560 1111.9,1560 1109.3,1547.4 1118.3,1547.4 		"/>
		<path class="st22" d="M1080.1,1655.3h39.1c0,10.8-8.8,19.6-19.6,19.6C1088.9,1674.9,1080.1,1666.1,1080.1,1655.3z"/>
		<path class="st22" d="M1119.2,1655.3h-39.1c0-10.8,8.8-19.6,19.6-19.6C1110.5,1635.8,1119.2,1644.5,1119.2,1655.3z"/>
		<polygon class="st19" points="1118.3,1547.4 1109.3,1547.4 1108.1,1541.7 1115.8,1541.8 		"/>
		<polygon class="st20" points="1109.3,1547.4 1111.9,1560 1101,1560 1100,1547.4 		"/>
		<polygon class="st20" points="1108.1,1541.7 1109.3,1547.4 1100,1547.4 1099.6,1541.7 		"/>
		<polygon class="st19" points="1100,1547.4 1101,1560 1090.8,1560 1090.8,1559.9 1090.8,1547.4 		"/>
		<polygon class="st19" points="1099.6,1541.7 1100,1547.4 1090.8,1547.4 1090.8,1541.7 		"/>
		<polygon class="st20" points="1090.8,1559.9 1090.8,1560 1081.8,1560 1081.8,1559.9 1081.8,1547.4 1090.8,1547.4 		"/>
		<polygon class="st20" points="1090.8,1541.7 1090.8,1547.4 1081.8,1547.4 1081.8,1541.6 		"/>
		<polygon class="st19" points="1081.8,1559.9 1081.8,1560 1072.9,1560 1072.9,1547.4 1081.8,1547.4 		"/>
		<polygon class="st19" points="1081.8,1541.6 1081.8,1547.4 1072.9,1547.4 1072.9,1541.6 		"/>
		<rect x="1063" y="1547.4" class="st20" width="9.9" height="12.6"/>
		<polygon class="st20" points="1072.9,1541.6 1072.9,1547.4 1063,1547.4 1063,1541.5 		"/>
		<polygon class="st19" points="1063,1547.4 1063,1560 1053.9,1560 1053.9,1559.9 1053.9,1547.4 		"/>
		<polygon class="st19" points="1063,1541.5 1063,1547.4 1053.9,1547.4 1053.9,1541.5 		"/>
		<polygon class="st20" points="1053.9,1559.9 1053.9,1560 1045,1560 1045,1547.4 1053.9,1547.4 		"/>
		<polygon class="st20" points="1053.9,1541.5 1053.9,1547.4 1045,1547.4 1045,1541.5 		"/>
		<polygon class="st19" points="1045,1547.4 1045,1560 1035.3,1560 1036.3,1547.4 		"/>
		<polygon class="st19" points="1045,1541.5 1045,1547.4 1036.3,1547.4 1036.7,1541.4 		"/>
		<polygon class="st20" points="1036.7,1541.4 1036.3,1547.4 1027,1547.4 1028.2,1541.4 		"/>
		<polygon class="st20" points="1036.3,1547.4 1035.3,1560 1024.3,1560 1027,1547.4 		"/>
		<polygon class="st19" points="1028.2,1541.4 1027,1547.4 1017.8,1547.4 1020.5,1541.3 		"/>
		<polygon class="st19" points="1027,1547.4 1024.3,1560 1012.3,1560 1017.8,1547.4 		"/>
		<polygon class="st20" points="1020.5,1541.3 1017.8,1547.4 1007.8,1547.4 1012.3,1541.3 		"/>
		<polygon class="st20" points="1017.8,1547.4 1012.3,1560 1002.5,1560 1002.5,1554.6 1007.8,1547.4 		"/>
		<polygon class="st19" points="1012.3,1541.3 1007.8,1547.4 1002.5,1547.4 1002.5,1554.6 998.6,1560 984.6,1560 1003.4,1541.3 		
			"/>
		<polygon class="st19" points="1007.8,1547.4 1002.5,1554.6 1002.5,1547.4 		"/>
		<polygon class="st20" points="1002.5,1554.6 1002.5,1560 998.6,1560 		"/>
		<path class="st21" d="M984.6,1560v27h-49.7v-37.3c0-0.8,0-1.5,0.1-2.3h49.6V1560z"/>
		<path class="st22" d="M934.9,1655.3v-19.9c9.3,1.5,16.4,9.6,16.4,19.3c0,0.2,0,0.4,0,0.6H934.9z"/>
		<path class="st22" d="M934.9,1655.3h16.3c-0.3,10.5-8.9,19-19.6,19s-19.3-8.4-19.6-19H934.9z"/>
		<path class="st22" d="M1142,1506.5H966.6h-5c-10,0-18.1-8.1-18.1-18.1v-19.5c0-10,8.1-18.1,18.1-18.1h184.7
			c10,0,18.1,8.1,18.1,18.1v19.5c0,10-8.1,18.1-18.1,18.1H1142z"/>
		<path class="st21" d="M934.9,1547.4L934.9,1547.4c0,0.8,0,1.5,0,2.3V1547.4z"/>
		<path class="st22" d="M934.9,1589.4v46c-1-0.2-2.1-0.3-3.2-0.3c-10.8,0-19.6,8.8-19.6,19.6c0,0.2,0,0.4,0,0.6h-23.3v-46.8
			L934.9,1589.4z"/>
		<path class="st22" d="M1063,1541.5l-9.1,0l-8.9,0l-8.3,0l-8.5,0l-7.7,0l-8.3,0l-8.9,0l-18.8,18.8v-12.6H935
			c1.2-13.4,12.4-23.9,26.1-23.9h5.5h171.7c1.3,0,2.6,0.1,3.8,0.3c12.6,1.8,22.4,12.7,22.4,25.9v79.5c0,14.4-11.7,26.1-26.1,26.1
			h-19c0-10.8-8.8-19.6-19.6-19.6c-10.8,0-19.6,8.8-19.6,19.6H951.3c0-0.2,0-0.4,0-0.6c0-9.7-7.1-17.8-16.4-19.3v-46v-2.4h49.7v-27
			h14h3.9v43.9H1133V1560h4.6h13.6l-18.2-18.2l-8.7,0l-8.4,0l-7.8,0l-8.5,0l-8.8,0l-9,0l-8.8,0L1063,1541.5z"/>
		<path class="st22" d="M934.9,1655.3h-22.8c0-0.2,0-0.4,0-0.6c0-10.8,8.8-19.6,19.6-19.6c1.1,0,2.2,0.1,3.2,0.3V1655.3z"/>
	</g>
	<g>
		<polyline class="st23" points="1142,1526.8 1142,1523.8 1142,1506.5 1142,1503.3 		"/>
		<polyline class="st23" points="966.6,1527.9 966.6,1523.5 966.6,1506.5 966.6,1504.4 		"/>
	</g>
</g>
<circle class="st24" cx="753.4" cy="1633.3" r="43.5"/>
<ellipse transform="matrix(0.83 -0.5578 0.5578 0.83 -757.1077 716.3354)" class="st24" cx="796.5" cy="1600.1" rx="26.2" ry="37.8"/>
<rect x="794.1" y="1549.4" transform="matrix(0.83 -0.5578 0.5578 0.83 -721.7693 745.4178)" class="st24" width="135.6" height="14.5"/>
<path class="st24" d="M931.4,1521.7l-15.6,10.5c-4.3,2.9-10.1,1.7-13-2.5l-0.4-0.6c-2.9-4.3-1.7-10.1,2.5-13l15.6-10.5
	c4.3-2.9,10.1-1.7,13,2.5l0.4,0.6C936.8,1513,935.6,1518.8,931.4,1521.7z"/>
<line class="st25" x1="744" y1="1632.7" x2="918.9" y2="1515.1"/>
<line class="st25" x1="745.4" y1="1634.6" x2="920.3" y2="1517"/>
<line class="st25" x1="746.5" y1="1636.3" x2="921.4" y2="1518.7"/>
<line class="st25" x1="747.7" y1="1638.2" x2="922.6" y2="1520.6"/>
<ellipse transform="matrix(0.83 -0.5578 0.5578 0.83 -770.6147 706.5624)" class="st26" cx="773.7" cy="1617.4" rx="18.9" ry="13.3"/>
<rect x="736.8" y="1633.3" transform="matrix(0.5578 0.83 -0.83 0.5578 1687.7262 103.9951)" class="st25" width="19" height="5.2"/>
<rect x="914" y="1531.7" transform="matrix(0.83 -0.5578 0.5578 0.83 -700.0264 771.4688)" class="st27" width="2.9" height="4.7"/>
<rect x="923.5" y="1525.3" transform="matrix(0.83 -0.5578 0.5578 0.83 -694.8575 775.6761)" class="st27" width="2.9" height="4.7"/>
<rect x="932.3" y="1519.4" transform="matrix(0.83 -0.5578 0.5578 0.83 -690.0649 779.5774)" class="st27" width="2.9" height="4.7"/>
<rect x="901.2" y="1513.6" transform="matrix(0.83 -0.5578 0.5578 0.83 -692.1301 761.2061)" class="st27" width="2.9" height="4.7"/>
<rect x="910.6" y="1507.3" transform="matrix(0.83 -0.5578 0.5578 0.83 -686.9613 765.4135)" class="st27" width="2.9" height="4.7"/>
<rect x="919.9" y="1501" transform="matrix(0.83 -0.5578 0.5578 0.83 -681.9213 769.516)" class="st27" width="2.9" height="4.7"/>
<line class="st28" x1="610.3" y1="1536.2" x2="637.4" y2="1551.6"/>
<g id="XMLID_2_">
	<g>
		<path class="st24" d="M644.8,1615.7c-5.8,1.4-11.8,2.7-17.9,3.9c0,0,0,0,0,0c-0.6-0.1-35.7-7.3-67.2-44.6l0.2-0.2
			C599.7,1612.3,644.8,1615.7,644.8,1615.7z"/>
		<path class="st27" d="M626.9,1619.6c-4.1,0.8-8.2,1.5-12.4,2.2l0-0.1c0,0-36.2-12.4-62.3-45.4c0,0-28.8-2.8-58.9-29.5l-0.1-0.5
			c1.3-0.3,2.1-0.6,2.3-0.6c0.1,0.1,0.2,0.2,0.3,0.2c0,0,0,0,0,0c1,1,2.2,2,3.4,3c23.6,20.1,60.6,26.1,60.6,26.1
			C591.2,1612.2,626.3,1619.4,626.9,1619.6z"/>
		<path class="st24" d="M614.5,1621.7l0,0.1c-2.6,0.4-5.1,0.8-7.7,1.2c-0.9-0.2-30.9-8.5-61.2-45.2c0,0-35.9-6.8-52.9-30.9l-0.1-0.5
			c0.2,0,0.4-0.1,0.6-0.1l0.1,0.5c30.1,26.7,58.9,29.5,58.9,29.5C578.3,1609.3,614.5,1621.7,614.5,1621.7z"/>
		<path class="st27" d="M606.8,1623c-5.5,0.8-11.1,1.6-16.8,2.3c0,0-40.5-22.4-51-46c0,0-28.3-4.1-48.4-32l0.9-0.6
			c0.4-0.1,0.7-0.2,1.1-0.2l0.1,0.5c17,24.1,52.9,30.9,52.9,30.9C575.9,1614.6,605.9,1622.8,606.8,1623z"/>
		<path class="st27" d="M493.3,1630.4c5.7,0,11.5,0,17.2-0.1c5.6-0.1,11.2-0.2,16.8-0.4c5.2-0.2,10.4-0.4,15.6-0.7c0,0,0,0,0,0
			c5.2-0.3,10.4-0.6,15.6-1c0,0,0,0,0,0c5.2-0.4,10.3-0.8,15.5-1.3c5.3-0.5,10.6-1.1,15.9-1.7v42.3c-96.2,22.9-211.4,0-211.4,0
			v-43.1c5,0.5,10.3,1,15.9,1.4c5.3,0.5,10.9,0.9,16.7,1.3c0,0,0,0,0,0c5,0.4,10.1,0.7,15.3,1c5,0.3,10.1,0.6,15.4,0.8
			c5.3,0.3,10.7,0.5,16.2,0.7c5.7,0.2,11.4,0.4,17.2,0.5C481.2,1630.3,487.2,1630.4,493.3,1630.4z"/>
		<path class="st24" d="M490.6,1547.3c20.1,27.9,48.4,32,48.4,32c10.5,23.6,51,46,51,46c-5.3,0.6-10.6,1.2-15.9,1.7
			c-0.6-0.4-38.9-26.7-41.1-46c0,0-24-2.9-44.3-33.6l0-0.3c1-0.2,2-0.3,2.8-0.5L490.6,1547.3z"/>
		<path class="st27" d="M574.1,1627c-5.1,0.5-10.3,0.9-15.5,1.3c0,0,0,0,0,0c-0.7-0.4-22.2-12.1-36.7-48.2c0,0-18.9-4.2-33.9-32.6
			l0-0.2c0.2,0,0.4-0.1,0.6-0.1l0,0.3c20.3,30.7,44.3,33.6,44.3,33.6C535.2,1600.3,573.5,1626.6,574.1,1627z"/>
		<path class="st24" d="M559.9,1574.8l-0.2,0.2c0,0-37-6-60.6-26.1c18.7,14.9,57.5,22.7,57.5,22.7
			C557.7,1572.7,558.8,1573.7,559.9,1574.8z"/>
		<path class="st24" d="M521.9,1580.1c14.4,36.1,36,47.8,36.7,48.2c-5.2,0.4-10.4,0.7-15.6,1c0,0,0,0,0,0
			c-0.4-0.3-16.4-13-29.5-47.2c0,0-18.4-9.4-26.3-34.6l0-0.1c0.3,0,0.6-0.1,0.8-0.1l0,0.2C503.1,1575.9,521.9,1580.1,521.9,1580.1z"
			/>
		<path class="st27" d="M513.5,1582.1c13.1,34.2,29,46.8,29.5,47.2c-5.2,0.3-10.4,0.5-15.6,0.7c-0.4-0.6-18.8-27.9-22.6-47.7
			c0,0-0.2-0.2-0.7-0.6c-2.9-2.6-14.1-13.8-18.3-34.1c0.5,0,1-0.1,1.4-0.2l0,0.1C495.1,1572.7,513.5,1582.1,513.5,1582.1z"/>
		<path class="st24" d="M504.7,1582.2c3.8,19.8,22.2,47.1,22.6,47.7c-5.6,0.2-11.2,0.3-16.8,0.4l0-0.4c0,0-13.7-33.5-14.6-49.7
			c0,0-8.6-13.5-11.1-32.7c0.3,0,0.6,0,0.9-0.1c4.2,20.2,15.4,31.5,18.3,34.1C504.5,1582,504.7,1582.2,504.7,1582.2z"/>
		<path class="st27" d="M510.5,1630l0,0.4c-5.8,0.1-11.5,0.1-17.2,0.1c-0.1-0.6-6-32.6-6.1-51.8l-2.4-31c0,0,0,0,0,0
			c2.5,19.2,11.1,32.7,11.1,32.7C496.8,1596.5,510.5,1630,510.5,1630z"/>
		<path class="st27" d="M495.9,1546c1,1,2.1,1.9,3.2,2.9c-1.2-1-2.4-2-3.4-3C495.8,1545.9,495.8,1545.9,495.9,1546z"/>
		<path class="st27" d="M495.5,1545.6c0.1,0.1,0.2,0.2,0.2,0.2C495.6,1545.8,495.5,1545.7,495.5,1545.6
			C495.5,1545.6,495.5,1545.6,495.5,1545.6z"/>
		<path class="st29" d="M485.8,1547.5c-0.3,0-0.6,0.1-0.9,0.1c0,0,0-0.1,0-0.1l0,0.1c-0.3,0-0.7,0.1-1.1,0.1c-0.3,0-0.6,0-0.9,0
			c-0.5,0-1,0-1.5,0c-0.3,0-0.6,0-0.9,0c-0.2,0-0.4,0-0.7,0c-0.6,0-1.2-0.1-1.9-0.2c-0.7-0.1-1.4-0.2-2.1-0.3
			c-0.2,0-0.4-0.1-0.6-0.1c-0.9-0.2-1.8-0.5-2.6-0.8c-0.5-0.2-0.9-0.4-1.4-0.6c0.5-0.7,1.7-2.3,2-3.7c0,0,0,0,0,0c0,0,0,0,0-0.1
			c0.3,0.2,8.4,4.6,20.2,0c0,0,0.1,0,0.1,0c0,0,0.5,2.6,1.7,3.8c-0.1,0-1,0.3-2.3,0.6c-0.2,0.1-0.4,0.1-0.6,0.1
			c-0.3,0.1-0.7,0.2-1.1,0.2c-0.8,0.2-1.8,0.4-2.8,0.5c-0.2,0-0.4,0.1-0.6,0.1c-0.3,0-0.6,0.1-0.8,0.1
			C486.7,1547.4,486.2,1547.5,485.8,1547.5z"/>
		<path class="st24" d="M487.2,1578.6c0,19.2,6,51.2,6.1,51.8c-6.1,0-12.1-0.1-18-0.2c0,0,6.1-32.2,6.1-51.6l2.4-31
			c0.4,0,0.7,0,1.1-0.1L487.2,1578.6z"/>
		<path class="st27" d="M483.6,1535.1c6.7-0.1,9.4,5.1,10.1,6.8c-11.8,4.6-19.9,0.2-20.2,0C474.2,1540.2,477,1535.2,483.6,1535.1z"
			/>
		<path class="st27" d="M483.8,1547.7l-2.4,31c0,19.3-6.1,51.6-6.1,51.6c-5.8-0.1-11.6-0.3-17.2-0.5c0,0,13.7-33.3,14.6-49.4
			C472.7,1580.3,481.3,1566.8,483.8,1547.7z"/>
		<path class="st24" d="M482.9,1547.7c0.3,0,0.6,0,0.9,0c-2.5,19.1-11.1,32.7-11.1,32.7c-0.9,16.1-14.6,49.4-14.6,49.4
			c-5.5-0.2-10.9-0.4-16.2-0.7c0,0,18.5-27.4,22.3-47.2c0,0,0.2-0.2,0.7-0.6C467.7,1578.8,478.7,1567.7,482.9,1547.7z"/>
		<path class="st27" d="M481.4,1547.7c0.5,0,1,0,1.5,0c-4.1,20-15.2,31.1-18,33.7c-0.4,0.4-0.7,0.6-0.7,0.6
			c-3.8,19.8-22.3,47.2-22.3,47.2c-5.2-0.3-10.4-0.5-15.4-0.8c0,0,16-12.3,29-46.5C455.5,1581.8,473.7,1572.5,481.4,1547.7z"/>
		<path class="st24" d="M480.6,1547.7c0.3,0,0.6,0,0.9,0c-7.7,24.8-25.9,34.1-25.9,34.1c-13,34.2-29,46.5-29,46.5
			c-5.3-0.3-10.4-0.7-15.3-1c0.3-0.2,21.8-11.7,36.1-47.5C447.2,1579.8,465.8,1575.7,480.6,1547.7z"/>
		<path class="st27" d="M479.9,1547.6c0.2,0,0.4,0,0.7,0c-14.7,28-33.3,32.1-33.3,32.1c-14.3,35.8-35.8,47.3-36.1,47.5c0,0,0,0,0,0
			c-5.8-0.4-11.3-0.9-16.7-1.3c0,0,38.9-26.2,41.1-45.2C435.6,1580.7,459.6,1577.8,479.9,1547.6z"/>
		<path class="st24" d="M478,1547.4c0.6,0.1,1.3,0.1,1.9,0.2c-20.3,30.2-44.3,33.1-44.3,33.1c-2.2,19.1-41.1,45.2-41.1,45.2
			c-5.6-0.5-10.9-1-15.9-1.4c0,0,40.5-22.1,51-45.4C429.6,1579,457.9,1575,478,1547.4z"/>
		<path class="st27" d="M379.9,1615.1c11.5-6.5,27.4-17.9,43.4-37.3c0,0,35.7-6.8,52.7-30.7c0.7,0.1,1.4,0.3,2.1,0.3
			c-20.1,27.6-48.5,31.6-48.5,31.6c-10.5,23.3-51,45.4-51,45.4c-5.8-0.6-11.3-1.1-16.3-1.7c0,0,1.5-0.4,4-1.4
			C369.5,1620.3,374.1,1618.3,379.9,1615.1z"/>
		<path class="st24" d="M475.3,1547c0.2,0,0.4,0.1,0.6,0.1c-17,23.9-52.7,30.7-52.7,30.7c-16,19.4-31.8,30.8-43.4,37.3
			c-0.8-0.8-2.1-2.1-3.8-3.9c12.2-7.2,27.5-18.5,40.4-34.7C416.5,1576.5,445.2,1573.7,475.3,1547z"/>
		<path class="st27" d="M472.7,1546.2c0.9,0.3,1.7,0.6,2.6,0.8c-30.1,26.7-58.8,29.5-58.8,29.5c-12.9,16.2-28.2,27.5-40.4,34.7
			c-1.3-1.3-2.7-2.9-4.4-4.7c11.2-6.8,24.1-16.7,36.4-31.2C408.1,1575.3,449.1,1568.7,472.7,1546.2z"/>
		<path class="st24" d="M471.3,1545.6c0.4,0.2,0.9,0.4,1.4,0.6c-23.6,22.5-64.6,29.1-64.6,29.1c-12.3,14.5-25.2,24.4-36.4,31.2
			c-1.3-1.5-2.8-3-4.3-4.8c21.6-13.7,35.3-30,35.3-30C456.4,1559.2,471.3,1545.6,471.3,1545.6
			C471.3,1545.6,471.3,1545.6,471.3,1545.6z"/>
		<path class="st24" d="M376.1,1611.2c1.6,1.7,2.9,3,3.8,3.9c-5.8,3.2-10.4,5.2-13.5,6.4l-0.8-1.7l-1.7-2
			C367.3,1616.1,371.5,1613.9,376.1,1611.2z"/>
		<path class="st27" d="M376.1,1611.2c-4.6,2.8-8.8,4.9-12.3,6.6l-4.1-4.7c3.7-1.7,7.7-3.9,12-6.5
			C373.4,1608.3,374.8,1609.9,376.1,1611.2z"/>
		<path class="st24" d="M359.7,1613c-5,2.4-9.3,4-12.6,5.1c-1.2-1.5-2.3-2.9-3.4-4.3c8.6-3.3,16.6-7.5,23.7-12.1
			c1.5,1.7,2.9,3.3,4.3,4.8C367.4,1609.1,363.4,1611.3,359.7,1613z"/>
		<path class="st24" d="M365.5,1619.7l0.8,1.7c-2.6,1-4,1.4-4,1.4c-2.9-0.3-5.6-0.6-8.2-0.9c0,0,3.7-1.3,9.7-4.1L365.5,1619.7z"/>
		<path class="st27" d="M359.7,1613l4.1,4.7c-5.9,2.8-9.7,4.1-9.7,4.1c-1.6-0.2-3.1-0.4-4.5-0.5c-0.9-1.1-1.7-2.1-2.6-3.2
			C350.4,1617,354.7,1615.4,359.7,1613z"/>
		<path class="st27" d="M347.1,1618.1c0.8,1.1,1.7,2.1,2.6,3.2c-3.6-0.4-6.8-0.8-9.6-1.2C340.1,1620.1,342.7,1619.6,347.1,1618.1z"
			/>
		<path class="st24" d="M343.7,1613.8c1.1,1.4,2.2,2.9,3.4,4.3c-4.4,1.5-7.1,2-7.1,2c-7.7-1-12-1.7-12-1.7
			C333.5,1617.3,338.7,1615.7,343.7,1613.8z"/>
		<path class="st21" d="M226.3,1660.9c0-3,0.7-5.3,0.7-5.3s3.6-13.4-0.7-22.9v-22c4.3,0.2,9.3-0.1,14.9-1.2
			c44.2-8.5,31.2,38.4,31.2,38.4s-8,27.3,26,23.8v27.5h-72.2L226.3,1660.9L226.3,1660.9z"/>
		<path class="st21" d="M298.4,1593.3v78.4c-34,3.5-26-23.8-26-23.8s13-47-31.2-38.4c-5.7,1.1-10.6,1.4-14.9,1.2v-40.4
			c4,12.4,16.2,30.7,53.4,23.8C287.2,1592.7,293.4,1592.6,298.4,1593.3z"/>
		<path class="st21" d="M298.4,1536.1v57.2c-5.1-0.8-11.2-0.6-18.8,0.8c-37.2,6.9-49.4-11.4-53.4-23.8v-34.2
			c0-19.9,16.2-36.1,36.1-36.1c10,0,19,4,25.5,10.6C294.4,1517.1,298.4,1526.1,298.4,1536.1z"/>
		<path class="st22" d="M218.7,1625.1v98.7h-54v-122.9h1c0,0,0.4,30.4,36.1,23.4C209.3,1622.8,214.8,1623.3,218.7,1625.1z"/>
		<path class="st22" d="M218.7,1609.6v15.5c-3.9-1.8-9.4-2.3-16.9-0.8c-35.6,7-36.1-23.4-36.1-23.4h-1v-14.6
			c14.9-6.6,26.7-18.8,32.7-34c5.1,1.1,9.7,3.7,13.3,7.3c4.9,4.9,7.9,11.6,7.9,19.1V1609.6z"/>
		<path class="st20" d="M201.8,1529.4c0,8.1-1.5,15.8-4.4,22.9c-1.8-0.4-3.8-0.6-5.7-0.6c-14.9,0-27,12.1-27,27v7.6
			c-7.7,3.4-16.2,5.3-25.2,5.3c-34.4,0-62.2-27.9-62.2-62.2c0-34.4,27.9-62.2,62.2-62.2C174,1467.1,201.8,1495,201.8,1529.4z"/>
		<path class="st22" d="M191.7,1551.7c2,0,3.9,0.2,5.7,0.6c-6,15.2-17.8,27.4-32.7,34v-7.6C164.8,1563.8,176.8,1551.7,191.7,1551.7z
			"/>
	</g>
	<g>
		<path class="st30" d="M165.8,1600.9c0,0,0.4,30.4,36.1,23.4c7.5-1.5,12.9-0.9,16.9,0.8c3.7,1.7,6.1,4.4,7.6,7.6
			c4.4,9.5,0.7,22.9,0.7,22.9s-0.7,2.3-0.7,5.3c0,7.8,4.4,20.5,36,11.1"/>
		<path class="st30" d="M196.5,1580.8c0,0,0.3,23.2,22.2,28.7c2.3,0.6,4.8,1,7.6,1.1c4.3,0.2,9.3-0.1,14.9-1.2
			c44.2-8.5,31.2,38.4,31.2,38.4s-8,27.3,26,23.8c5-0.5,10.9-1.7,17.9-3.7"/>
		<path class="st30" d="M224.3,1560c0,0,0.1,4.5,1.9,10.3c4,12.4,16.2,30.7,53.4,23.8c7.5-1.4,13.7-1.5,18.8-0.8
			c31.8,4.9,19.9,46.4,19.9,46.4s-13,42.8,54.2,23.9"/>
		<path class="st31" d="M380.9,1616.1c0,0-0.4-0.4-1.1-1.1c-0.8-0.8-2.1-2.1-3.8-3.9c-1.3-1.3-2.7-2.9-4.4-4.7
			c-1.3-1.5-2.8-3-4.3-4.8c-29.6-33.7-87.7-114.4,40.6-108.4"/>
		<path class="st31" d="M399.9,1481.5c0,0-170.7-17.1-56.2,132.3c1.1,1.4,2.2,2.9,3.4,4.3c0.8,1.1,1.7,2.1,2.6,3.2
			c4.4,5.5,9.2,11.2,14.3,17.1"/>
		<polyline class="st31" points="365.5,1619.7 363.8,1617.8 359.7,1613 358,1611 		"/>
		<line class="st31" x1="352.7" y1="1605" x2="345.4" y2="1595.7"/>
		<line class="st31" x1="340.1" y1="1588.5" x2="333.3" y2="1578.7"/>
		<line class="st31" x1="330.2" y1="1571.6" x2="324.6" y2="1559"/>
		<line class="st31" x1="322.9" y1="1551" x2="320.5" y2="1540"/>
		<line class="st31" x1="319.2" y1="1530.3" x2="318.7" y2="1521.9"/>
		<line class="st31" x1="319.4" y1="1516.1" x2="323.7" y2="1509.3"/>
		<line class="st31" x1="326.2" y1="1506.3" x2="331.2" y2="1501.3"/>
		<line class="st31" x1="333.9" y1="1499.4" x2="338.4" y2="1496.3"/>
		<line class="st31" x1="341.5" y1="1494.5" x2="346.9" y2="1492.5"/>
		<line class="st31" x1="350.3" y1="1491.2" x2="355.9" y2="1489.7"/>
		<line class="st31" x1="358.9" y1="1488.8" x2="364.2" y2="1487.9"/>
		<line class="st31" x1="366.7" y1="1487.4" x2="371.6" y2="1487"/>
		<line class="st31" x1="373.6" y1="1486.8" x2="378.2" y2="1486.5"/>
		<line class="st31" x1="380.3" y1="1486.4" x2="384.7" y2="1486.2"/>
		<line class="st31" x1="386.6" y1="1486.2" x2="390.4" y2="1486"/>
		<line class="st31" x1="392" y1="1486.2" x2="396" y2="1486.3"/>
		<line class="st31" x1="397.5" y1="1486.2" x2="400.9" y2="1486.3"/>
		<path class="st32" d="M496.1,1545.8C496.1,1545.8,496.1,1545.7,496.1,1545.8C496.1,1545.7,496.1,1545.7,496.1,1545.8
			c-0.1-0.1-0.1-0.1-0.1-0.1c0,0,0,0-0.1,0c0,0,0,0,0,0c0,0,0,0,0,0c0,0,0,0,0,0c0,0,0,0,0,0c0,0,0,0-0.1-0.1c0,0,0,0-0.1-0.1
			c0,0,0,0-0.1-0.1c0,0-0.1-0.1-0.1-0.1c0,0,0-0.1-0.1-0.1c0,0,0,0,0,0c0,0,0,0,0,0c0,0,0,0-0.1-0.1c0,0,0,0,0,0c0,0,0,0,0,0
			c0,0,0,0,0,0c0,0,0,0,0,0c0,0,0,0,0,0c0,0,0,0,0,0c0,0,0,0,0,0c0,0,0,0,0,0c0,0,0-0.1,0-0.1c0,0,0,0,0,0c0,0,0,0,0,0c0,0,0,0,0,0
			c0,0,0,0,0,0"/>
	</g>
</g>
<polygon class="st19" points="0.3,1681.4 188.2,1681.4 94.2,1533.1 "/>
<polygon class="st27" points="77.4,1680.7 111.1,1680.7 94.2,1606.1 "/>
<rect x="340.2" y="1578.9" transform="matrix(0.6199 0.7847 -0.7847 0.6199 1375.8401 326.9461)" class="st27" width="20.4" height="9.4"/>
<rect x="324.3" y="1488.9" transform="matrix(0.8248 -0.5655 0.5655 0.8248 -785.6683 448.7213)" class="st27" width="13.7" height="6.3"/>
<rect x="677.1" y="1500.3" class="st2" width="198.5" height="37"/>
<text transform="matrix(1 0 0 1 687.405 1522.3888)" class="st33"><tspan x="0" y="0" class="st22 st4 st34">• The Vaccines</tspan><tspan x="178" y="0" class="st4 st34"> </tspan></text>
<rect x="94.7" y="1357.6" class="st2" width="186.5" height="40.6"/>
<text transform="matrix(1 0 0 1 101.0001 1385.4192)" class="st35 st4 st36">• Tired Lion</text>
<rect x="214.2" y="1449.7" class="st2" width="168.6" height="30.7"/>
<text transform="matrix(1 0 0 1 238.3247 1465.1907)" class="st33"><tspan x="0" y="0" class="st4 st37"> </tspan><tspan x="4.9" y="0" class="st24 st4 st37">• Tkay Maidza</tspan><tspan x="120.2" y="0" class="st4 st37"> </tspan></text>
<rect x="65.7" y="1506.7" class="st2" width="139.8" height="38.8"/>
<text transform="matrix(1 0 0 1 78.6168 1523.7059)" class="st38"><tspan x="0" y="0" class="st4 st39"> </tspan><tspan x="5.4" y="0" class="st19 st4 st39">• Vance Joy</tspan></text>
<rect x="333.9" y="1640.9" class="st2" width="292" height="33.1"/>
<text transform="matrix(1 0 0 1 378.5645 1655.8251)"><tspan x="0" y="0" class="st4 st40"> </tspan><tspan x="4.8" y="0" class="st24 st4 st40">• West The Tia Gostelow</tspan></text>
<rect x="288.8" y="1340.6" class="st2" width="585.1" height="74.6"/>
<text transform="matrix(1 0 0 1 288.7513 1362.2451)" class="st33"><tspan x="0" y="0" class="st20 st4 st41">• 88 Rising - Feat. Rich Brian </tspan><tspan x="0" y="36" class="st20 st4 st41">                             &amp; August 08 (Aus only) </tspan></text>
<rect x="303.5" y="1389.6" class="st2" width="87.1" height="39.3"/>
<text transform="matrix(1 0 0 1 303.4684 1415.3405)" class="st42 st4 st43">• Toto</text>
<rect x="410.1" y="1493.9" class="st2" width="242.6" height="46.3"/>
<text transform="matrix(1 0 0 1 444.3238 1513.9856)" class="st44"><tspan x="0" y="0" class="st21 st4 st45">• Sweater Curse</tspan><tspan x="174.2" y="0" class="st46 st4 st45"> </tspan></text>
<rect x="976.5" y="1302.9" class="st2" width="137" height="42.3"/>
<text transform="matrix(1 0 0 1 976.523 1328.682)" class="st42 st4 st43">• Set Mo</text>
<rect x="828.7" y="1374" class="st2" width="206.1" height="35.3"/>
<text transform="matrix(1 0 0 1 828.6812 1404.8915)" class="st47 st4 st48">• And More!</text>
<rect x="118.9" y="1419" class="st2" width="173.2" height="34.7"/>
<text transform="matrix(1 0 0 1 118.8626 1437.0627)" class="st49 st4 st50">•Touch Sensitive</text>
<rect x="422.9" y="1424.4" class="st2" width="184.3" height="35.2"/>
<text transform="matrix(1 0 0 1 422.9348 1452.9973)" class="st49 st4 st51">•Triple One</text>
<g>
	<g>
		<path class="st24" d="M367.3,1601.1c0.2-0.2,1.3-0.8,0-0.1c-0.1,0.1-0.2,0.1-0.3,0.2c-0.4,0.3-0.9,0.6-1.2,1c-0.1,0.1-0.1,0.1,0,0
			c0.3-0.2,0.1-0.1-0.4,0.3c-0.1,0.1-0.5,0.4-0.2,0.1c0.2-0.1,0.2-0.1,0,0c-0.2,0.1-0.3,0.3-0.5,0.4c-0.1,0.1-0.2,0.2-0.4,0.4
			c-0.9,0.9-1,2.6,0,3.5c1,0.9,2.5,1,3.5,0c0.1-0.1,0.6-0.5-0.1,0c0.2-0.2,0.4-0.3,0.6-0.4c0.1-0.1,0.6-0.5,0.1-0.1
			c0.2-0.2,0.5-0.4,0.7-0.6c0.2-0.2-0.5,0.3,0.1-0.1c0.1-0.1,0.5-0.4,0.2-0.2c-0.4,0.3,0.4-0.1,0.6-0.2c0.3-0.2,0.5-0.4,0.7-0.6
			c1-0.8,0.9-2.7,0-3.5C369.7,1600.1,368.4,1600.2,367.3,1601.1L367.3,1601.1z"/>
	</g>
</g>
<g>
	<g>
		<path class="st24" d="M370.6,1601.4c-0.6,0.1-1,0.2-1.6,0.4c-0.1,0.1-0.3,0.1-0.4,0.2c0,0-0.1,0-0.1,0.1c-0.2,0.1-0.1,0.1,0.3-0.1
			c-0.4,0-0.8,0.3-1.1,0.4c-0.1,0.1-0.3,0.1-0.4,0.2c-0.2,0.1-0.6,0.2,0.1,0c-1.3,0.4-2.2,1.8-1.7,3.1c0.4,1.3,1.7,2.1,3.1,1.7
			c0.4-0.1,0.7-0.3,1.1-0.5c0.1-0.1,0.2-0.1,0.3-0.2c0,0,0.1,0,0.1-0.1c0.2-0.1,0.1,0-0.2,0.1c0.3,0,0.8-0.3,1-0.4
			c0.1-0.1,0.2-0.1,0.3-0.2c0.5-0.3,0.3,0-0.7,0.1c1.3-0.1,2.6-1.1,2.5-2.5C373.1,1602.6,372,1601.3,370.6,1601.4L370.6,1601.4z"/>
	</g>
</g>
<g>
	<g>
		<path class="st24" d="M369.4,1602.8c0.8-0.7-0.1,0.1-0.2,0.2c-0.2,0.2-0.3,0.4-0.5,0.7c0.3-0.3,0.6-0.6,0.9-0.9
			C370.2,1602.6,370.1,1602.6,369.4,1602.8c-0.1,0.1-0.2,0.2-0.3,0.2c0.4-0.1,0.8-0.2,1.3-0.3
			C370.1,1602.7,369.9,1602.7,369.4,1602.8C369.5,1602.8,369.4,1602.8,369.4,1602.8c-0.9,0.4-0.8,0.4,0.3,0
			c-1.3,0.1-2.6,1.1-2.5,2.5c0.1,1.3,1.1,2.6,2.5,2.5c0.3,0,0.5,0,0.8-0.1c0.2-0.1,1.3-0.5,0.2-0.2c-1,0.3-0.3,0.1,0,0.1
			c0.2,0,0.4-0.1,0.6-0.2c0.2,0,0.3-0.1,0.4-0.2c-0.1,0-0.2,0.1-0.3,0.1c0.2-0.1,0.4-0.2,0.6-0.3c0.2-0.1,0.4-0.3,0.6-0.5
			c0.2-0.2,0.9-1,0.1-0.2c-0.8,0.8,0,0,0.2-0.1c1-0.9,0.9-2.7,0-3.5C371.9,1601.8,370.5,1601.9,369.4,1602.8L369.4,1602.8z"/>
	</g>
</g>
<g>
	<g>
		<path class="st24" d="M358,1613.8c3.2,0,3.2-5,0-5C354.8,1608.8,354.8,1613.8,358,1613.8L358,1613.8z"/>
	</g>
</g>
<g>
	<g>
		<path class="st24" d="M359.3,1608.5c-0.2,0-0.5,0.2-0.7,0.3c0,0,0.6-0.3,0.3-0.1c-0.2,0.1-0.5,0.2-0.7,0.3
			c-0.2,0.1-0.3,0.3-0.5,0.4c0.8-0.4,1.1-0.6,0.7-0.4c-0.3,0.1-0.6,0.3-0.9,0.5c-0.2,0.1-0.8,0.6,0,0c0.8-0.5,0.1-0.1-0.1-0.1
			c-1.3,0.2-2.1,1.9-1.7,3.1c0.4,1.4,1.7,2,3.1,1.7c0.2,0,0.4-0.1,0.6-0.2c0.6-0.2,1-0.5,1.4-0.9c-0.4,0.2-0.7,0.4-1.1,0.6
			c0.4-0.2,0.8-0.3,1.2-0.6c0.4-0.3,0.3-0.3-0.2,0c-0.4,0.2-0.6,0.3-0.3,0.2c0.1,0,0.2-0.1,0.4-0.1c0.5-0.2,0.4-0.2-0.2,0.1
			c1.3-0.2,2.1-1.9,1.7-3.1C361.9,1608.8,360.7,1608.2,359.3,1608.5L359.3,1608.5z"/>
	</g>
</g>
<g>
	<g>
		<path class="st24" d="M365.2,1617c-0.3,0-1.5,0.2-0.5,0.1c-0.7,0.1-1.3,0.2-1.8,0.7c-0.4,0.4-0.8,1.1-0.7,1.8
			c0.1,1.2,1.1,2.6,2.5,2.5c0.3,0,0.5-0.1,0.8-0.1c0.2-0.1,0.1-0.1-0.3,0c1.3,0,2.6-1.1,2.5-2.5C367.7,1618.2,366.6,1617,365.2,1617
			L365.2,1617z"/>
	</g>
</g>
<g>
	<g>
		<path class="st24" d="M365.9,1621.4c-0.1,0.1-0.2,0.2-0.3,0.3C365.8,1621.6,365.9,1621.5,365.9,1621.4c0,0.1,0.7-0.5,0.2-0.1
			c-0.1,0.1-0.7,0.3-0.3,0.2c0.1,0,0.2,0,0.3-0.1c0.2-0.1,0.4-0.1,0.7-0.2c0.2-0.1,0.5-0.2,0.7-0.3c0.3-0.1,0.4-0.1-0.1,0.1
			c1.3-0.3,2.1-1.8,1.7-3.1c-0.4-1.4-1.7-2-3.1-1.7c-0.3,0.1-0.6,0.2-0.8,0.3c-0.4,0.2,0.6-0.2,0.1,0c-0.3,0.1-0.5,0.2-0.8,0.2
			c-0.4,0.1-0.8,0.3-1.2,0.5c-0.2,0.1-0.3,0.3-0.5,0.4c-0.2,0.1-0.1,0.1,0.3-0.2c-0.2,0.2-0.5,0.3-0.7,0.5c-0.5,0.4-0.7,1.2-0.7,1.8
			c0,0.6,0.3,1.3,0.7,1.8c0.5,0.4,1.1,0.8,1.8,0.7C364.9,1622.1,365.4,1621.8,365.9,1621.4L365.9,1621.4z"/>
	</g>
</g>
<g>
	<g>
		<path class="st24" d="M376.2,1610.3c-0.1,0.1-0.2,0.2-0.3,0.2c-0.4,0.3-0.3,0.3,0.1-0.1c-0.4,0.2,0.9-0.4,0,0
			c-0.4,0.2-0.6,0.3-0.9,0.6c-0.2,0.2-0.8,1-0.3,0.4c-0.4,0.5-0.7,1.1-0.7,1.8c0,0.6,0.3,1.3,0.7,1.8c0.9,0.8,2.7,1.1,3.5,0
			c0.2-0.2,0.4-0.4,0.5-0.6c-0.1,0.2-2,1.4-0.4,0.5c0.3-0.2,1.2-0.8,0.4-0.2c1.1-0.8,1.7-2.2,0.9-3.4
			C379,1610.1,377.4,1609.5,376.2,1610.3L376.2,1610.3z"/>
	</g>
</g>
<g>
	<g>
		<path class="st24" d="M378.6,1615.8c0.3-0.1,0.8-0.2,1.1-0.5c-0.1,0-0.4,0.1-0.2,0.1c0.3-0.1,0.5-0.2,0.8-0.3
			c0.1-0.1,0.3-0.1,0.4-0.2c0.1,0,0.1-0.1,0.2-0.1c0.2-0.1,1.1-0.7,0.2-0.1c1.1-0.7,1.6-2.3,0.9-3.4c-0.7-1.1-2.2-1.6-3.4-0.9
			c-0.2,0.1-0.4,0.3-0.6,0.4c0.4-0.3,0.5-0.3,0.2-0.2c-0.1,0-0.3,0.1-0.4,0.2c-0.2,0.1-0.1,0,0.3-0.1c-0.1,0-0.2,0.1-0.3,0.1
			c0.2-0.1-1.5,0.6-0.6,0.3c-1.2,0.4-2.2,1.7-1.7,3.1C375.9,1615.3,377.3,1616.3,378.6,1615.8L378.6,1615.8z"/>
	</g>
</g>
<g>
	<g>
		<path class="st24" d="M379.3,1616.1c0.3-0.1,0.6-0.2,0.8-0.4c0.6-0.4,0.7-0.5,0.4-0.3c-0.2,0.1-0.2,0.1,0,0
			c0.2-0.1,0.5-0.3,0.6-0.5c0.1-0.1,0.8-1,0.1-0.2c0.9-1,1-2.6,0-3.5c-0.9-0.9-2.6-1.1-3.5,0c-0.2,0.2-0.3,0.4-0.5,0.6
			c-0.2,0.4,0,0.1,0.7-0.7c-0.1,0-0.2,0.1-0.2,0.1c-0.8,0.5-0.7,0.5,0.3,0c-1.2,0.4-2.2,1.7-1.7,3.1
			C376.6,1615.6,378,1616.6,379.3,1616.1L379.3,1616.1z"/>
	</g>
</g>
<g>
	<g>
		<path class="st24" d="M343.8,1613c-0.5,0.3,1.7-0.3,0.5-0.1c-0.4,0.1-0.7,0.2-1,0.3c-0.3,0.1-0.5,0.3-0.8,0.4
			c-1.1,0.7-1.6,2.3-0.9,3.4c0.7,1.1,2.2,1.6,3.4,0.9c0.3-0.2,0.6-0.3,0.9-0.5c-0.4,0.1-0.8,0.2-1.3,0.3c0.6-0.1,1.1-0.2,1.7-0.5
			c1.1-0.7,1.6-2.3,0.9-3.4C346.5,1612.8,344.9,1612.3,343.8,1613L343.8,1613z"/>
	</g>
</g>
<g>
	<g>
		<path class="st24" d="M345.2,1619.3c1-0.1,1.7-0.4,2.4-1c-0.4,0.2-0.7,0.4-1.1,0.6c0.1,0,0.2-0.1,0.3-0.1c0.1,0,0.7-0.2,0.7-0.3
			c0.1-0.1,0.1,0-0.1,0c-0.4,0.1-0.3,0.1,0.4-0.2c0.3-0.2,0.5-0.4,0.7-0.6c1-0.9,0.9-2.7,0-3.5c-1.1-1-2.5-0.9-3.5,0
			c0.9-0.5,1-0.6,0.5-0.3c-0.1,0-0.3,0.1-0.4,0.2c-0.2,0.1-0.1,0.1,0.1,0c0.2-0.1,0.3-0.1,0.1-0.1c-0.4,0-0.9,0.5-1.2,0.7
			c0.3-0.3,0.6-0.4,1.1-0.5c-1.3,0.1-2.6,1.1-2.5,2.5C342.8,1618.1,343.8,1619.4,345.2,1619.3L345.2,1619.3z"/>
	</g>
</g>
<g>
	<g>
		<path class="st24" d="M346.7,1618.4c-0.1,0,0.2,0,0.2,0c0.1,0,0.2-0.1,0.3-0.2c0.2-0.1,0.3-0.1,0.4-0.2c0.6-0.3,0.1-1.2-0.5-0.9
			c-0.2,0.1-0.5,0.2-0.7,0.3C345.9,1617.6,346.1,1618.6,346.7,1618.4L346.7,1618.4z"/>
	</g>
</g>
<g>
	<g>
		<path class="st24" d="M346.8,1618.4c0.3-0.1,0.7-0.2,0.9-0.4c0.5-0.3,0-1.2-0.5-0.9c-0.3,0.2-0.4,0.2-0.7,0.3
			C345.9,1617.5,346.1,1618.5,346.8,1618.4L346.8,1618.4z"/>
	</g>
</g>
<g>
	<g>
		<path class="st52" d="M346.9,1619.1C347,1619.1,347,1619.1,346.9,1619.1c0.1,0,0.2,0,0.2-0.1c0.1,0,0.1,0,0.2-0.1
			c0.2-0.1,0.4-0.1,0.7-0.2c0.6-0.1,0.4-1.1-0.3-1c-0.3,0.1-0.5,0.1-0.8,0.2c-0.1,0-0.1,0,0,0c-0.1,0-0.1,0-0.2,0.1
			c0.2-0.1,0,0-0.1,0C346,1618.2,346.3,1619.2,346.9,1619.1L346.9,1619.1z"/>
	</g>
</g>
<g>
	<g>
		<path class="st52" d="M346.9,1619.1c0,0,0.2,0,0.3-0.1c0.2-0.1,0.2-0.1,0.3-0.1c0.3-0.1,0.7-0.2,1-0.3c0.6-0.2,0.4-1.1-0.3-1
			c-0.3,0.1-0.7,0.2-1,0.3c-0.1,0-0.2,0.1-0.3,0.1c-0.3,0.1-0.1,0.1,0,0c0,0-0.2,0-0.3,0.1C346.1,1618.3,346.3,1619.2,346.9,1619.1
			L346.9,1619.1z"/>
	</g>
</g>
<g>
	<g>
		<path class="st52" d="M347.3,1619.4c0.6,0,1.3-0.1,1.8,0.2c0-0.3,0.1-0.6,0.1-0.9c-0.7,0.2-1.4-0.1-2.1,0.2
			c-0.5,0.2-0.2,0.9,0.3,0.9c0.8,0.1,1.7,0.2,2.5,0.5c0-0.3-0.1-0.6-0.1-0.9c0.4-0.2-0.2,0-0.3,0c-0.2,0-0.4,0.1-0.7,0.1
			c-0.4,0-0.8,0.1-1.2,0c0,0.3-0.1,0.7-0.1,1c0.6,0,1.3,0,1.9-0.1c0.6,0,0.6-0.8,0.1-1c-0.6-0.2-1.3-0.3-1.9-0.3
			c-0.5-0.1-0.6,0.7-0.3,0.9c0.2,0.2,0.5,0.2,0.8,0.3c0.3,0.1,0.8,0.1,1,0.2c-0.1-0.2-0.1-0.5-0.2-0.7c0.1-0.1,0-0.1-0.1,0
			c-0.1,0.1-0.2,0.1-0.3,0.1c-0.2,0.1-0.4,0.1-0.7,0.1c-0.6,0.1-0.7,1,0,1c0.7,0,1.6,0,2.3,0.2c0.1-0.3,0.2-0.6,0.3-1
			c-0.5-0.2-1.1-0.4-1.6-0.5c-0.6-0.2-0.9,0.8-0.3,1c0.5,0.2,1.1,0.4,1.6,0.5c0.6,0.2,0.9-0.8,0.3-1c-0.8-0.2-1.8-0.2-2.5-0.2
			c0,0.3,0,0.7,0,1c0.7-0.1,1.5-0.2,1.9-0.7c0.2-0.2,0-0.5-0.2-0.7c-0.5-0.4-1.3-0.2-1.8-0.5c-0.1,0.3-0.2,0.6-0.3,0.9
			c0.5,0.1,1.1,0.1,1.6,0.3c0-0.3,0.1-0.7,0.1-1c-0.6,0-1.3,0-1.9,0.1c-0.6,0-0.7,0.8-0.1,1c0.5,0.1,1,0.1,1.5,0
			c0.5-0.1,1-0.1,1.4-0.3c0.4-0.2,0.2-0.8-0.1-0.9c-0.9-0.4-1.8-0.5-2.8-0.6c0.1,0.3,0.2,0.6,0.3,0.9c0.5-0.2,1.3,0.1,1.9-0.1
			c0.4-0.1,0.5-0.7,0.1-0.9c-0.7-0.4-1.6-0.3-2.3-0.3C346.6,1618.4,346.6,1619.4,347.3,1619.4L347.3,1619.4z"/>
	</g>
</g>
<g>
	<g>
		<path class="st52" d="M349,1621.4c0,0,0.2,0,0.2,0c-0.2-0.2-0.2,0,0,0c0.1,0,0.3,0,0.5,0.1c0,0,0.1,0,0.2,0c-0.2,0,0.3,0,0,0
			c0.2,0,0.3,0,0.5,0c0.6,0,0.6-1,0-1c-0.1,0-0.2,0-0.2,0c-0.2,0,0.2,0-0.1,0c-0.1,0,0.3,0-0.1,0c0.1,0-0.2,0-0.2,0
			c0,0-0.5-0.1-0.2,0c-0.2,0-0.3-0.1-0.5-0.1C348.4,1620.4,348.4,1621.4,349,1621.4L349,1621.4z"/>
	</g>
</g>
<g>
	<g>
		<path class="st52" d="M359.4,1614.1c-0.1,0.1,0.1-0.1,0.2-0.1c0.2-0.1,0,0,0.2-0.1c0.1,0,0,0,0,0c0.1,0,0.1,0,0.2-0.1
			c0.1,0,0.1-0.1,0.2-0.1c0,0,0.3-0.2,0.3-0.2c0.1,0,0.2-0.1,0.2-0.1c0,0,0.1,0,0.1-0.1c0.1,0-0.1,0,0,0c0.6-0.2,0.3-1.2-0.3-1
			c-0.3,0.1-0.6,0.3-0.8,0.4c-0.1,0-0.1,0.1-0.2,0.1c-0.1,0,0,0,0,0c0,0-0.1,0-0.2,0.1c0.1,0-0.1,0-0.2,0.1c-0.1,0-0.2,0.1-0.3,0.1
			C358.3,1613.6,358.8,1614.5,359.4,1614.1L359.4,1614.1z"/>
	</g>
</g>
<g>
	<g>
		<path class="st52" d="M359.7,1614.2c0.4,0,1-0.1,1.4-0.3c0.6-0.2,0.3-1.2-0.3-1c-0.3,0.1-0.8,0.2-1.1,0.3
			C359,1613.3,359,1614.3,359.7,1614.2L359.7,1614.2z"/>
	</g>
</g>
<g>
	<g>
		<path class="st52" d="M359.7,1614c0.1,0.7,1.1,0.8,1.6,0.4c0.1-0.1,0.2-0.3,0.1-0.5c0-0.2-0.1-0.3-0.3-0.4c-0.3-0.1-0.5,0-0.7,0.2
			c-0.3,0.4-0.2,1.2,0.4,1.5c0.4,0.2,1.3,0.1,1.4-0.5c0-0.2,0-0.4-0.2-0.6c-0.6-0.3-2,0.1-1.6,0.9c0.5,1,1.7-0.2,1.8-0.9
			c0-0.4-0.6-0.7-0.9-0.4c-0.4,0.4-0.5,1.4-0.3,1.8c0.2,0.6,0.9,0.8,1.4,0.4c0.4-0.3,0.5-1,0-1.3c-0.6-0.4-1.3,0.4-1.7,0.8
			c-0.4,0.4,0.1,1.1,0.6,0.8c0.5-0.3,0.8-0.6,1.3-1c-0.2-0.2-0.5-0.4-0.7-0.6c0,0.3-0.3,0.5-0.3,0.8c0,0.3,0.1,0.5,0.2,0.7
			c0.4,0.4,1,0.4,1.4,0c0.2-0.3,0.2-0.7-0.2-0.8c-0.5-0.2-1,0.3-1.3,0.7c-0.2,0.2,0,0.7,0.3,0.7c0.6,0.1,1.4-0.3,1.6-0.9
			c0-0.2,0-0.4-0.1-0.5c-0.6-0.5-1.3,0.2-1.5,0.8c-0.2,0.9,0.7,1,1.3,0.8c0.5-0.2,1.2-1.1,0.4-1.4c-0.7-0.3-1.4,0.8-1.2,1.4
			c0.1,0.2,0.3,0.3,0.5,0.4c0.5,0.1,1-0.4,1-0.9c0-0.2-0.1-0.4-0.2-0.4c-0.7-0.3-1.5,0.4-1.3,1.1c0.2,0.8,1.3,0.5,1.7,0.1
			c0.4-0.5-0.3-1.2-0.7-0.7c0,0.1-0.1,0.1-0.2,0.1c0.1,0.1,0.2,0.2,0.2,0.3c0,0,0.1,0,0.1-0.1c-0.1,0-0.3,0-0.4-0.1
			c0,0,0.1,0,0.1,0.1c-0.1-0.1-0.2-0.3-0.2-0.4c0,0,0-0.1,0-0.1c0.2,0.1,0.3,0.2,0.5,0.4c0,0.2,0.2-0.1,0-0.2
			c-0.1-0.1-0.2-0.2-0.3-0.2c0,0,0,0,0,0.1c0-0.1,0-0.3-0.1-0.4c0,0.1-0.4,0.1-0.3,0.1c0.1,0.1,0.2,0.2,0.2,0.3
			c-0.1-0.2,0.2-0.2,0.1-0.2c-0.1,0-0.2-0.1-0.4-0.1c0,0,0,0,0,0c0-0.2-0.1-0.3-0.1-0.5c0,0.2-0.6,0.2-0.3,0.2
			c0.1,0.2,0.2,0.5,0.3,0.7c0.1,0,0.1-0.1,0.1-0.2c-0.1-0.3-0.1-0.6-0.2-0.8c0.1,0,0.1,0,0.2,0c0.1-0.1,0.1-0.1,0.1-0.2
			c0-0.1,0.1-0.2,0.1-0.2c0.1-0.4-0.3-0.9-0.7-0.6c-0.4,0.3-0.8,0.7-1.3,1c0.2,0.3,0.4,0.5,0.6,0.8c0.1-0.1,0.5-0.6,0.6-0.6
			c-0.1-0.1-0.2-0.2-0.3-0.2c-0.1-0.1,0-0.2,0.2-0.1c0-0.2,0-0.3,0-0.5c0-0.1,0.2-0.5,0-0.3c-0.3-0.1-0.6-0.2-0.9-0.4
			c0,0.1-0.1,0.2-0.2,0.2c0.1,0.1,0.2,0.2,0.3,0.2c0,0,0,0,0-0.1c0,0.1,0,0.3,0.1,0.4c-0.1,0.3,0-0.1,0.2,0
			c-0.1-0.2-0.2-0.4-0.2-0.6c0,0,0,0,0,0c0.1-0.1,0.2-0.2,0.2-0.3c-0.1,0-0.2,0.1-0.1,0c-0.2,0.1-0.5,0.1-0.7,0.2c0,0,0,0,0,0
			c-0.1-0.1-0.2-0.2-0.2-0.3c0,0,0,0,0,0.1c0-0.2,0.1-0.3,0.1-0.5c0-0.1,0-0.1,0.1,0C360.5,1613.1,359.6,1613.3,359.7,1614
			L359.7,1614z"/>
	</g>
</g>
<g>
	<g>
		<path class="st52" d="M363.1,1617.9c0.4,0,0.8-0.3,1.1-0.5c0.6-0.3,0.1-1.2-0.5-0.9c-0.1,0.1-0.5,0.3-0.6,0.3
			C362.5,1617,362.4,1618,363.1,1617.9L363.1,1617.9z"/>
	</g>
</g>
<g>
	<g>
		<path class="st52" d="M363.5,1618.1C363.6,1618,363.7,1618,363.5,1618.1c0.1-0.1,0.2-0.1,0.2-0.1c0.3-0.1-0.1,0,0.2-0.1
			c0.2-0.1,0.5-0.2,0.7-0.4c0.6-0.3,0.1-1.2-0.5-0.9c-0.2,0.1-0.4,0.2-0.7,0.3c0,0-0.4,0.2-0.3,0.1c0.2-0.1-0.2,0.1-0.2,0.1
			C362.4,1617.5,362.9,1618.3,363.5,1618.1L363.5,1618.1z"/>
	</g>
</g>
<g>
	<g>
		<path class="st27" d="M371.9,1607.4c0.4-0.2,0.3-0.2,0.7-0.4c0.6-0.3,0.1-1.1-0.5-0.9c-0.3,0.2-0.5,0.3-0.7,0.4
			C370.8,1606.8,371.3,1607.7,371.9,1607.4L371.9,1607.4z"/>
	</g>
</g>
<g>
	<g>
		<path class="st27" d="M372.2,1607.1c0.6,0,0.6-1,0-1C371.6,1606.1,371.6,1607.1,372.2,1607.1L372.2,1607.1z"/>
	</g>
</g>
<g>
	<g>
		<path class="st27" d="M372.3,1607.9c0.4-0.2,0.8-0.3,1.1-0.6c0.3-0.2,0.1-0.8-0.2-0.8c-0.5-0.1-2,0.2-1.6,1
			c0.3,0.7,1.9,0.8,2.5,0.4c0.3-0.2,0.1-0.8-0.2-0.8c-0.7-0.1-1.8,0.4-2,1.1c-0.1,0.2,0,0.5,0.2,0.6c0.9,0.4,1.7-0.8,1.9-1.5
			c0.1-0.3-0.1-0.5-0.3-0.6c0,0,0,0,0,0c-0.2-0.1-0.4,0-0.5,0.1c-0.4,0.5-0.9,1.3-0.8,1.9c0,0.2,0.2,0.3,0.3,0.3
			c0.8,0.1,1.9,0,2.2-0.9c0.1-0.2,0-0.4-0.1-0.5c-0.6-0.6-1.8,0.4-1.9,1.1c0,0.2,0,0.4,0.2,0.6c1,0.7,1.3-1.3,1.1-1.8
			c-0.1-0.5-0.7-0.4-0.9-0.1c-0.5,0.7-0.6,2.4-0.1,3.1c0.7,0.9,1.6,0.1,2.1-0.6c0.4-0.6,1-1.8,0-2.1c-1-0.2-1.6,0.8-1.8,1.6
			c-0.1,0.3,0.2,0.6,0.5,0.6c0.6,0,1.2-0.6,1-1.2c-0.1-0.5-0.7-0.7-1.1-0.3c-0.4,0.4-0.6,1.5,0.1,1.7c0.6,0.2,1.4-0.4,1.6-0.9
			c0.1-0.3-0.1-0.6-0.3-0.6c0,0-0.1,0-0.1,0c-0.2,0-0.4,0-0.5,0.1c-0.5,0.6-0.7,1.5-0.5,2.2c0.1,0.2,0.3,0.4,0.5,0.4
			c0.6,0,1.2-0.9,1.1-1.5c-0.1-0.4-0.6-0.5-0.8-0.2c-0.2,0.3-0.5,0.6-0.3,1c0.1,0.2,0.2,0.3,0.3,0.3c0.8,0.1,1-0.5,1-1.2
			c0-0.4-0.4-0.6-0.8-0.4c-0.5,0.3-0.6,1.3-0.4,1.8c0.2,0.3,0.6,0.3,0.8,0.1c0.3-0.3,0.5-0.7,0.5-1.1c0-0.3-0.3-0.6-0.6-0.5
			c-0.5,0.2-0.9,1-0.5,1.5c0.5,0.6,1.1-0.1,1.4-0.5c-0.3-0.1-0.6-0.3-0.9-0.4c-0.1,0.4-0.2,0.8,0,1.1c0.2,0.4,0.8,0.3,0.9-0.1
			c0-0.2,0.1-0.3,0-0.5c-0.1-0.6-1.1-0.4-1,0.3c0,0,0,0,0,0c0.3,0,0.6-0.1,0.9-0.1c0.1,0.3,0.1-0.2,0.1-0.3c0.1-0.6-0.6-0.8-0.9-0.4
			c-0.1,0.1,0.3,0.5,0.4,0.2c-0.1,0.1-0.2,0.2-0.3,0.3c0,0,0.1,0,0.1-0.1c-0.2-0.2-0.4-0.3-0.6-0.5c0,0.2-0.1,0.3-0.2,0.4
			c0.3,0,0.5,0.1,0.8,0.1c0,0,0.2-0.6,0-0.4c-0.3-0.1-0.5-0.3-0.8-0.4c0,0.1,0,0.3-0.1,0.4c0.2,0,0.3-0.1,0.5-0.1
			c-0.1,0-0.1,0-0.2,0c0.1,0.1,0.2,0.2,0.3,0.3c0,0,0,0,0.1,0c-0.3-0.1-0.6-0.1-0.8-0.2c0-0.3-0.3,0.2-0.1,0.2
			c0.2,0.1,0.3,0.2,0.5,0.4c-0.1-0.4,0-1,0.3-1.3c-0.2,0-0.3,0.1-0.5,0.1c0,0,0.1,0,0.1,0c-0.1-0.2-0.2-0.4-0.3-0.6
			c0.1-0.2,0.1-0.2-0.2,0.1c0.3,0.3,0.2,0.3-0.4-0.1c0.2,0.2,0.3,0.4,0.5,0.6c0.1-0.2,0.1-0.4,0.2-0.5c0.1-0.1,0.3-0.3,0.4-0.3
			c-0.1-0.1-0.1-0.2-0.2-0.3c0,0.1,0,0.2-0.1,0.3c-0.1,0.2-0.2,0.6-0.4,0.8c-0.4,0.3-0.3-0.3-0.3-0.7c0-0.3,0-0.7,0.2-1
			c-0.3,0-0.6-0.1-0.9-0.1c0,0.2,0,0.3,0,0.5c0,0.1,0,0.1,0,0.2c-0.1,0.2,0.1,0.2,0.4,0c0.1,0.2,0.2,0.4,0.2,0.6
			c0-0.2,0.5-0.5,0.6-0.6c-0.2,0-0.3-0.1-0.5-0.1c0,0,0,0,0.1,0.1c0-0.2-0.1-0.3-0.1-0.5c-0.1,0.3-0.8,0.3-1,0.2
			c0.1,0.1,0.2,0.2,0.3,0.3c0-0.2,0.4-0.8,0.6-1c-0.2,0-0.3,0.1-0.5,0.1c0,0,0,0,0,0c-0.1-0.2-0.2-0.4-0.3-0.6
			c0,0.2-0.5,0.9-0.4,0.9c0.1,0.2,0.2,0.4,0.2,0.6c0-0.1,0.7-0.4,0.8-0.4c-0.1-0.3-0.1-0.6-0.2-0.8c-0.1,0.1-0.9-0.2-1.1-0.3
			c0.1,0.1,0.2,0.3,0.2,0.4c0,0.3-0.5,0.4,0.1,0.3c0.1,0,0.3-0.1,0.3-0.1c-0.1-0.3-0.1-0.6-0.2-0.8c-0.2,0.2-0.6,0.3-0.9,0.4
			C371.3,1607.3,371.8,1608.1,372.3,1607.9L372.3,1607.9z"/>
	</g>
</g>
<g>
	<g>
		<path class="st27" d="M375.6,1611.6c0.4-0.1,1-0.6,1.4-0.9c0.5-0.4-0.2-1.1-0.7-0.7c-0.1,0.1-0.2,0.2-0.3,0.3
			c-0.1,0-0.1,0.1-0.2,0.1c0.1-0.1,0,0,0,0c-0.1,0-0.3,0.2-0.2,0.1c-0.1,0-0.1,0.1-0.2,0.1c0.2-0.1-0.1,0,0,0
			C374.7,1610.8,375,1611.8,375.6,1611.6L375.6,1611.6z"/>
	</g>
</g>
<g>
	<g>
		<path class="st27" d="M380.9,1615.3c-0.3,0.3-0.7,0.4-1,0.6c0.2,0.3,0.4,0.5,0.6,0.8c0.3-0.3,0.9-0.6,1.1-1c0.2-0.3,0-0.8-0.4-0.8
			c-0.2,0-0.4,0.1-0.5,0.2c-0.1,0-0.2,0.1-0.3,0.1c0,0-0.4,0.1-0.2,0.1c0.1,0.3,0.3,0.5,0.4,0.8c-0.1,0.1-0.2,0.1-0.1,0.1
			c0.1-0.1,0.1-0.1,0.2-0.2c0.1-0.1,0.2-0.2,0.3-0.3c0.2-0.1,0.3-0.2,0.5-0.3c0.6-0.3,0.1-1.1-0.5-0.9c-0.3,0.1-0.5,0.3-0.7,0.5
			c-0.2,0.2-0.5,0.3-0.6,0.6c-0.1,0.3,0,0.8,0.4,0.8c0.4,0,0.7-0.4,1.1-0.4c-0.1-0.3-0.3-0.5-0.4-0.8c0.1-0.1-0.1,0.1-0.1,0.1
			c-0.1,0.1-0.2,0.2-0.3,0.3c-0.2,0.1-0.3,0.3-0.5,0.4c-0.4,0.4,0.1,1.1,0.6,0.8c0.4-0.3,0.9-0.3,1.2-0.7
			C382,1615.5,381.3,1614.8,380.9,1615.3L380.9,1615.3z"/>
	</g>
</g>
<g>
	<g>
		<path class="st27" d="M380,1616c0.4-0.3,0.8-0.6,1.4-0.7c0.6-0.1,0.6-1.1,0-1c-0.8,0.1-1.2,0.3-1.9,0.8
			C379,1615.5,379.5,1616.4,380,1616L380,1616z"/>
	</g>
</g>
<rect x="652.7" y="1433" class="st2" width="140" height="39.3"/>
<text transform="matrix(1 0 0 1 652.7147 1458.7065)"><tspan x="0" y="0" class="st53 st4 st43">• Odette</tspan><tspan x="111.9" y="0" class="st33 st4 st43"> </tspan></text>
<polygon class="st19" points="594.6,1561.8 653,1588.4 684.1,1539 "/>
<path class="st54" d="M667.9,1660.5l15.4,3.1c-11.5,10.3-26,6.5-26,6.5L667.9,1660.5l-15.7-75.6"/>
<ellipse transform="matrix(0.5 -0.866 0.866 0.5 -1025.1604 1311.6995)" class="st24" cx="623.4" cy="1543.7" rx="2.8" ry="4.3"/>
<rect x="901.7" y="1465.1" class="st2" width="304.5" height="49.2"/>
<text transform="matrix(1 0 0 1 964.4288 1485.1659)" class="st52 st4 st55">fallsfestival.com</text>
</svg>
