<?xml version="1.0" encoding="utf-8"?>
<!-- Generator: Adobe Illustrator 23.1.0, SVG Export Plug-In . SVG Version: 6.00 Build 0)  -->
<svg version="1.1" id="Layer_1" xmlns="http://www.w3.org/2000/svg" xmlns:xlink="http://www.w3.org/1999/xlink" x="0px" y="0px"
	 viewBox="0 0 283.5 283.5" style="enable-background:new 0 0 283.5 283.5;" xml:space="preserve">
<style type="text/css">
	.st0{fill:#FFFFFF;}
</style>
<g>
	<path d="M23.3,150.7c12.4,0.1,21.8-5.6,29.5-15c-3.8-5-6.8-10.3-8.9-16.1c-3.9-10.5-5.5-21.4-3.9-32.5c1.6-11.5,7.1-20.5,17.4-26.6
		c-1.2-2.1-2-4.3-1.3-6.8c0.6-2,2-3.4,3.6-4.7c0.4,1.2,0.6,2.4,1.1,3.4c0.5,1.2,1.1,2.4,1.8,3.5c2.1,3.2,5.2,4.1,8.8,2.9
		c0.3-0.1,0.5-0.2,0.8-0.3c4.2-1.4,4.6-4.1,3.9-7.8c-0.6-3.3-2.8-5.7-5.2-7.9c-1-0.9-2.1-1.8-3.3-2.8c2.5-1.8,5.3-2.7,8.3-2.7
		c1.1-10.5,8-12.8,16.3-12c-0.4,0.3-0.7,0.5-1.1,0.6c-2.8,1.1-4.3,3.4-5.4,6.1c-1.6,3.7-2.2,7.6-2.6,11.5
		c-0.6,6.2-0.2,12.4,0.5,18.7c2.6-0.2,4.9-1,6.9-2.6c3.4-2.7,4.4-6.5,4.5-10.5c0.1-4.1-0.7-8-2-11.9c-0.1-0.3-0.2-0.6-0.3-1
		c9.5-4.6,18.9-9.2,28.3-13.8c0,0,0.1,0.1,0.1,0.1c-0.5,0.7-1,1.3-1.5,2c-5,6.5-8,13.9-8.4,22.1c-0.5,8.7,2.5,16.3,8.2,22.8
		c2.9,3.3,6.1,6.1,9.7,8.5c0.7,0.5,0.9,0.9,0.8,1.8c-0.6,8.9-0.3,17.8,2.6,26.4c0.8,2.3,1.9,4.4,2.9,6.6c0.2,0,0.3,0,0.5,0
		c0.7-1,1.5-1.9,2.1-3c2.1-3.8,2.9-8,3.5-12.3c0.9-6.4,1.5-12.8,1.2-19.2c0-0.3,0.4-0.8,0.7-1c6.5-4.3,11.8-9.7,15-16.9
		c4-8.7,3.7-17.5,0.1-26.2c-1.5-3.7-3.6-7.2-5.5-10.7c-0.3-0.6-0.7-1.1-0.9-1.9c9.4,4.5,18.8,9,27.9,13.3c-0.9,2.9-2.1,5.5-2.5,8.3
		c-1.4,8.2,1.6,14.4,8.9,18.9c0.5,0.3,0.9,0.8,1.3,1.2c-0.3,0.4-0.6,0.9-1,1.3c-4.2-2.3-7.7-5.3-9.8-9.6c-3-6.4-2-12.7,0.6-19.1
		c-6.8-3.2-13.5-6.4-20.5-9.8c0.3,0.7,0.5,1,0.6,1.4c1.2,2.8,2.6,5.5,3.5,8.4c3.3,10,2.6,19.6-2.8,28.8c-3.3,5.6-7.7,10-13,13.7
		c-0.4,0.3-0.8,0.8-0.8,1.3c-0.1,2.2,0,4.3-0.1,6.5c-0.3,6.1-1,12.2-2.4,18.2c-0.8,3.1-1.8,6.1-3.8,8.6c-2,2.4-4.4,3.5-7.5,2.4
		c-0.1,0-0.2,0-0.3,0c-0.3,2.2-0.6,4.4-1,6.5c-1.4,6.7-3.8,13-6.6,19.2c-0.2,0.3-0.4,0.9-0.3,1.1c1.1,2,2.3,3.9,3.6,6.1
		c15.1-27.9,30.7-55.3,44.8-83.5c3.2,5.3,6.4,10.7,9.7,16.3c0.2-0.4,0.3-0.5,0.4-0.7c1.8-4.4,3.7-8.7,5.5-13.1
		c0.5-1.2,0.8-2.5,1.1-3.8c0.4-1.8,1-3.7,1.3-5.5c1.2-7.1,1.5-14.1-0.1-21.2c-1.1-4.9-3.2-9.4-6.8-13c-0.2-0.2-0.4-0.4-0.7-0.8
		c3.2-0.3,6.1,0.2,8.7,1.8c3.2,1.8,5,4.7,5.6,8.2c0.2,1.1,0.7,1.3,1.7,1.5c1.7,0.2,3.5,0.5,5.1,1c1.7,0.5,2.7,1.8,2.9,3.3
		c-2,1.2-4.1,2.1-5.8,3.5c-3.9,3.1-4.4,7.7-3.2,12c0.1,0.2,0.2,0.4,0.3,0.6c2.7,2.9,7.7,3.1,10.5,0.2c1.5-1.6,2.6-3.6,3.8-5.4
		c0.4-0.6,0.6-1.2,0.9-1.8c3.8,0.7,4.9,4.1,3.5,10.7c2.3,1.9,4.7,3.5,6.8,5.5c8.1,7.6,12,17,11.8,28.1c-0.3,14.1-4.2,27.3-11.2,39.6
		c-0.1,0.2-0.3,0.5-0.4,0.7c-0.1,0.2-0.3,0.3-0.5,0.6c7.4,9.4,17,14.3,28.9,14.7c0,1.4,0,2.9,0,4.5c-2.6,0.2-4.6,1.5-6.5,3.2
		c-1.9,1.6-3.6,3.4-5.2,5c-1.2-0.7-2.4-1.8-3.8-2.1c-5.1-1.3-10,3.9-8.6,8.9c0.8,3,2.8,5.2,5,7.2c0.3,0.3,0.6,0.5,0.9,0.7
		c-0.1,0.1-0.1,0.2-0.2,0.3c-6.2,3.4-8.7,9-9.3,15.7c-0.2,2.8,0.1,5.7,0.2,8.5c0,0.4-0.1,0.9-0.4,1.1c-3.1,1.9-6.3,3.7-9.6,5.7
		c2-20.4-1.9-40-7.1-59.6c-0.7,0.5-1.3,1-1.8,1.4c-4,3-8.2,5.7-13.2,6.9c-6.4,1.5-11.8-0.6-15.6-6c-2.5-3.6-3.8-7.6-4.5-11.9
		c-0.3-1.8-0.7-3.6-0.8-5.5c0.9,2.1,1.8,4.2,2.7,6.3c1.3,3,3,5.7,5.6,7.9c3.6,3,7.4,3.4,11.6,1.1c3.4-1.9,6.1-4.7,8.4-7.7
		c1.2-1.5,2.3-3.1,3.3-4.7c0.2-0.3,0.3-0.8,0.2-1.2c-4.2-12.9-9-25.6-14.6-38c0-0.1-0.1-0.2-0.3-0.4c-1,1.7-1.9,3.3-2.8,4.9
		c-9,15.8-18,31.7-27,47.5c-0.5,0.9-0.4,1.5,0.2,2.3c7.5,9.2,16.7,15.7,28.1,19c1.4,0.4,2.9,0.6,4.4,1c-0.3,0.2-0.4,0.3-0.6,0.4
		c-7.8,2.6-13.9,7.5-19.2,13.5c-2.3,2.6-4.3,5.4-6.5,8.2c-0.6,0.8-1.2,1.5-1.7,2.3c-0.2,0.3-0.2,0.9,0,1.2c2.2,2.8,4.3,5.7,6.8,8.2
		c2.6,2.7,5.9,4.4,9.7,4.7c2.3,0.2,4.4-0.3,6.4-1.3c0.4-0.2,0.8-0.3,1.2-0.5c0.5-4.1,2.4-5.9,6.6-6.4c1.4-0.1,2.9-0.2,4.3,0
		c3.8,0.5,5.9,3.1,5.7,7c-0.2,2.9-1,5.4-3.4,7.5c-4.1,3.4-8.4,6.2-13.8,7c-3.8,0.6-7.5-0.2-10.9-1.9c-7.2-3.5-13-8.6-17.7-15.1
		c-0.3-0.3-0.5-0.7-1-1.3c-1.8,3-3.6,5.8-5.2,8.8c-5.1,9.8-8.1,20.2-10.6,30.8c-2,8.5-3.3,17.2-4.1,25.9c0,0.3-0.1,0.7-0.3,1
		c-1.3-11.6-3.1-23-6.4-34.2c-3.3-11.2-7.7-21.9-13.7-31.9c-1.8,2.1-3.5,4.2-5.3,6.2c-4,4.3-8.7,7.6-14,10.1
		c-5.8,2.7-11.5,2.1-17.1-0.7c-3.2-1.6-6-3.8-8.4-6.4c-0.4-0.4-0.8-1-0.9-1.5c-0.4-1.5-0.8-3-0.8-4.6c-0.1-4,1.8-6.3,5.8-6.7
		c2.1-0.2,4.3,0.1,6.4,0.6c2.9,0.7,4.3,2.9,4.2,5.9c0.3,0.1,0.6,0.1,0.8,0.2c5.6,3,10.7,1.7,15.4-2c3.2-2.5,5.7-5.7,7.8-9.2
		c0.2-0.3,0.2-0.9,0-1.1c-6.7-8.9-14.3-16.9-23.9-22.8c-0.4-0.3-0.9-0.5-1.4-0.8c-0.4-0.2-0.8-0.4-1.5-0.8c0.7-0.2,1.2-0.4,1.6-0.5
		c9.9-2.8,18.3-8.2,25.7-15.3c1.6-1.5,3-3.1,4.5-4.7c0.5-0.5,0.5-0.9,0.1-1.4c-9.5-16.9-18.9-33.8-28.3-50.7
		c-0.1-0.2-0.3-0.5-0.6-0.9c-1.7,3.9-3.3,7.5-4.9,11.3c-3.2,7.7-5.8,15.6-7.7,23.8c-0.4,1.9-0.9,3.8-1.3,5.7c-0.2,0.9,0,1.6,0.6,2.3
		c2.5,3,4.7,6.2,7.9,8.5c5.3,4,10.5,3.4,15-1.4c2.7-2.9,4.3-6.4,5.9-9.9c0.5-1,1-2.1,1.5-3.1c0.1,0,0.2,0.1,0.3,0.1
		c-1.2,4.4-2.2,9-3.8,13.3c-3.4,9-10.9,12.4-20.1,9.5c-3.6-1.1-6.8-3.1-10.1-5c-0.5-0.3-1-0.6-1.7-1c-5,19.2-9,38.4-7.2,58.4
		c-0.8-0.3-1.4-0.6-2-0.9c-2.3-1.1-4.5-2.2-6.8-3.2c-1-0.4-1.1-0.9-1-1.9c0.7-4.6,0.5-9.2-0.8-13.6c-1.3-4.4-3.8-7.8-8-9.9
		c-0.2-0.1-0.3-0.2-0.5-0.3c0,0,0-0.1,0.3,0.2c0.9-1.1,1.9-2.1,2.7-3.2c1.1-1.5,2.2-3.1,2.9-4.8c2.4-5.5-4-10.4-8.1-9.5
		c-1.5,0.3-2.8,1.5-4.3,2.4c-3.1-3.6-6.4-7.3-11.8-8.2C23.3,153.8,23.3,152.2,23.3,150.7z M133.6,113.6c-0.2-0.3-0.2-0.5-0.4-0.7
		c-2-3.2-3.3-6.8-4.1-10.4c-1.6-6.9-2-14-1.5-21.1c0.1-1.3-0.2-2.1-1.3-2.8c-3.7-2.6-7-5.6-9.8-9.1c-4.7-5.9-7.4-12.6-7.6-20.3
		c-0.2-7.2,1.8-13.9,5.2-20.2c0.2-0.4,0.4-0.8,0.8-1.5c-6.7,3.3-13,6.4-19.4,9.4c-0.6,0.3-0.5,0.7-0.4,1.2c1.2,4,1.8,8,1.5,12.2
		c-0.4,6.9-4.2,11.8-10.5,13.5c-1.6,0.4-3.2,0.6-4.9,0.9c0,0.3-0.1,0.7-0.1,1c-0.1,4.2-0.5,8.4-1.8,12.4c-2.3,7.6-6.6,13.1-15,14.2
		c-0.3,0-0.7,0.6-0.8,0.9c-0.9,8.6-1.8,17.2-2.7,25.9c-0.1,0.6,0,1.3,0.3,1.8c2.8,4.6,5.7,9.2,8.6,13.8c0.1,0.2,0.4,0.3,0.5,0.5
		c0.5-1.7,0.9-3.4,1.3-5.1c2.4-10.3,7.4-25,14.4-38.4c1.8-3.5,3.5-6.9,5.7-10.2c3-4.5,6.1-8.9,9.1-13.3c0.2-0.3,0.5-0.6,0.8-1
		c9.3,15.2,18.3,30.4,26.6,46.1c0-0.7,0-1.4,0-2.3C129.9,112.5,131.3,113.9,133.6,113.6z M249.3,149.3c-1.4-0.1-2.4-0.2-3.4-0.4
		c-13.5-2.2-23.2-9.5-29.5-21.5c-4.5-8.6-6.3-18-6.9-27.6c-0.2-2.3-0.2-4.6-0.3-6.9c-7.1,0.5-12-3-15.9-8.5c-1.7,3-3.3,5.8-4.8,8.3
		c0.4,0.6,0.8,0.9,1,1.4c8.8,19.8,16.1,40.1,21.2,61.2c3.3,13.6,5.5,27.3,5.4,41.4c0,1.7,0,3.5,0,5.3c1.4-0.8,2.9-1.8,4.5-2.6
		c0.7-0.4,0.9-0.8,0.9-1.6c-0.1-2.7-0.2-5.5,0.1-8.2c0.5-5.2,2.3-9.9,6.2-13.6c0.6-0.5,1.2-1,1.5-1.3c-1.4-2.2-2.9-4.2-3.8-6.4
		c-2.1-5,0.7-10.4,5.8-12.1c2.8-0.9,5.4-0.7,7.8,1.1c0.2-0.1,0.3-0.2,0.4-0.3c2.7-2.8,5.4-5.4,9.2-6.7
		C248.9,150.2,249,149.8,249.3,149.3z M186.2,25.3c2.1,3,3.6,6.2,4.4,9.7c2.6,11.3,1.6,22.4-2.3,33.2c-4.3,11.6-9.8,22.6-15.3,33.7
		c-6.5,12.9-13.2,25.7-19.8,38.6c-0.2,0.4-0.4,0.9-0.3,1.2c0.9,1.6,1.9,3.2,3,4.9c0.3-0.4,0.4-0.6,0.5-0.8
		c5.9-10.5,11.8-20.9,17.8-31.4c6.7-11.8,13.5-23.5,20.3-35.3c0.5-0.8,1-1.5,1.7-2.2c4.3-3.9,9.2-6.4,15-7.1
		c5.6-0.7,10.3,1.9,11.9,6.7c0.7,2.3,1,4.6,0.7,7c-0.8,5.1-1.6,10.2-2.6,15.2c-1.2,5.8-2.8,11.6-5.6,16.9c-0.2,0.4-0.6,0.8-1,1.3
		c1.4,4.9,3.5,9.7,6.5,14.1c0.2-0.2,0.3-0.4,0.4-0.5c7.2-12.6,11.1-26.1,10.9-40.7c-0.1-9.5-4-17.6-10.8-24.2
		c-2.5-2.5-5.3-4.5-8.4-6.2c1.9-5.3,1.9-7.7,0.1-8.9c-0.9,1.4-1.7,2.9-2.8,4.2c-3.9,5.1-9.8,5.7-14.7,1.6c-0.3-0.3-0.7-0.6-0.8-1
		c-1.5-4.7-1.3-9.9,2.7-13.8c1.5-1.5,3.4-2.6,5.1-3.9c-2.4-1.6-5.4-1.3-8.3-1.3C193.5,29.6,190.7,25.8,186.2,25.3z M71.3,40.3
		c0.7,0.8,1.4,1.7,2.2,2.4c2.8,3,4.9,6.3,4.7,10.5c-0.1,2.1-0.4,4.2-2.2,5.4c-1.5,1-3.2,1.8-5,2.3c-3.7,1.1-7,0.1-9.4-3
		c-1.2-1.5-2-3.2-3-4.8c-1.4,1.8-1,4.2,1.1,7c-0.1,0.5-0.2,1-0.3,1.5c-0.5,0.3-1.2,0.6-1.8,1C49,67.9,44.3,75.6,42.2,85.1
		c-1.5,7-1.1,14.1,0.1,21.1c3.1,18.5,12.4,32.9,28.4,42.9c3.6,2.2,7.2,4.4,11.5,5.3c5.9,1.3,10.6-0.4,13.8-5
		c0.2-0.3,0.4-0.7,0.7-1.2c-0.3,0.1-0.4,0.1-0.4,0.1c-0.3,0.2-0.6,0.5-0.9,0.8c-2.8,2.3-6,3.4-9.7,2.7c-3.3-0.6-6-2.4-8.3-4.8
		c-8-8.5-14.6-18-19.5-28.6c-2.8-6.1-4.3-12.6-5.8-19.1C50.8,93.6,49.7,87.9,50,82c0.3-6.9,4.2-10.6,11.1-10.5
		c3.1,0,6.1,0.9,8.8,2.3c2.5,1.4,4.9,3,7.4,4.6c1.7-4.9,2.1-10.3,1.9-15.7c0.8,0,1.4-0.1,2.1-0.1c-0.2-2.5-0.4-4.8-0.5-7.2
		c-0.4-6.8-0.3-13.7,1.6-20.3c0.7-2.5,1.9-4.9,2.8-7.3c-4.4,0.5-6.7,4-7.5,11.9C75.5,39.1,73.3,39.3,71.3,40.3z M155.4,200.9
		c-1.3-1.7-2.6-3.4-4-5.2c-4.2,4.4-6.7,9.6-9,15c-2.3,5.3-4.2,10.7-6.3,16c-5.1-21.7-18.4-38.4-33-54.5c0.4-0.2,0.8-0.5,1.1-0.7
		c3.2-2.4,6.5-4.6,9.6-7.1c2.5-2.1,4.7-4.6,6.1-7.6c0.2-0.4,0.3-0.9,0.2-1.2c-1-1.8-2.2-3.6-3.3-5.5c-7.9,9-17.1,15.8-28.4,19.8
		c0.3,0.2,0.4,0.4,0.6,0.5c8.3,5.6,15.3,12.6,21.4,20.5c11.1,14.3,18.3,30.5,22.7,48c1.3,5,2.2,10,3.4,15c0.1-0.2,0.2-0.6,0.2-0.9
		c0.7-3.8,1.4-7.5,2.2-11.3C142.1,227.3,146.4,213.2,155.4,200.9z M101.4,70.5c-2.9,4.5-5.7,8.7-8.4,12.9c-0.2,0.3-0.1,0.9,0.1,1.3
		c8.7,18.2,17.6,36.3,27.4,53.9c0.2,0.3,0.4,0.6,0.7,1.1c0.5-1.1,0.9-2.1,1.3-3c2.5-5.9,4.6-12,5.5-18.4c0.1-0.4,0.2-0.9,0-1.2
		c-0.5-1-1.2-1.8-1.8-2.8c-6-10.7-11.9-21.4-17.9-32C106.3,78.5,103.9,74.7,101.4,70.5z M45.2,178.1c4.7,3.3,7,8.1,7.6,13.8
		c0.4,3.1,0.2,6.3,0.2,9.4c0,0.4,0.1,1.1,0.4,1.2c1.6,0.9,3.3,1.6,5,2.4c-0.9-19.3,2.9-37.9,7.7-55.9c-4.2-3.9-8.2-7.6-12.3-11.4
		c0,0-0.2,0.2-0.4,0.4c-7.1,8.5-16,13.7-27.2,14.6c-0.3,0-0.5,0.3-0.8,0.5c0.2,0.2,0.4,0.5,0.6,0.7c1.3,0.7,2.7,1.2,3.8,2
		c2,1.5,3.8,3.2,5.7,4.8c0.8-0.4,1.7-1,2.7-1.2c4-1,7.1,0.5,9.7,3.4c2.5,2.9,2.8,6.2,1.1,9.5C48,174.3,46.5,176.1,45.2,178.1z
		 M171.1,68.9c-0.2,0.3-0.3,0.4-0.3,0.5c-8.7,16.4-17.5,32.8-26.2,49.2c-0.2,0.4-0.3,1-0.2,1.4c1.1,3.8,2.2,7.7,3.5,11.4
		c0.9,2.6,2.2,5.1,3.4,7.7c2.8-3.8,28-54,28.9-57.4c-0.4,0.1-0.7,0.3-1.1,0.4C176.4,77.7,173.8,73.4,171.1,68.9z M142.7,121.9
		c-1.7,3.2-3.3,6.2-5,9.1c-0.4,0.7-0.4,1.2-0.1,2c3.2,6.7,6.6,13.2,10.7,19.4c5.3,7.9,10.8,15.6,19.8,19.9c-0.4,0.6-0.8,1.1-1.2,1.6
		c-2.9,4.3-5.8,8.7-8.7,13.1c-0.2,0.3-0.5,0.9-0.3,1.2c1,1.4,2,2.8,3.1,4.3c3-4.7,6.3-8.9,10.1-12.8c3.8-3.9,8-7.2,12.8-9.7
		C161.2,161.6,148.7,144.7,142.7,121.9z M137.2,175.8c0,0.1,0,0.2,0.1,0.2c7.6,7.7,14.3,16.3,20.5,25.1c4.4,6.2,9.6,11.3,16.2,15
		c3.1,1.8,6.4,3.1,10.1,2.9c5.8-0.3,10.3-3.2,14.6-6.9c2-1.7,2.5-3.8,2.5-6.2c0.1-2.6-1.2-4.2-3.5-4.6c-2.2-0.4-4.3-0.2-6.4,0.5
		c-2,0.8-2.9,2.2-2.5,4.3c0.4,1.7,1.1,3.4,1.7,5.1c-0.4,0.2-0.8,0.6-1.5,1c-0.7-1.6-1.4-3.1-2.2-4.6c-3.2,1.7-6.6,2.3-10.1,1.5
		c-4.7-1.1-8.4-3.9-11.4-7.5c-2.4-2.9-4.5-6.1-6.7-9.2c-4.1-5.6-8.3-11.2-12.5-16.7c-1.4-1.9-2.9-3.9-4.4-5.9
		C140.2,172,138.7,173.9,137.2,175.8z M213.7,114.3c0.3-0.4,0.4-0.6,0.5-0.9c0.5-1,0.9-2,1.3-3.1c2.8-7.4,4.3-15.1,5.5-22.9
		c0.4-2.8,0.9-5.5,0.5-8.3c-0.5-3.9-2.7-6.6-6.2-7.3c-1.6-0.3-3.3-0.3-4.9-0.1c-6.6,1.1-12,3.9-15.4,9.9c-0.2,0.4-0.3,1-0.1,1.4
		c1.7,2.7,3.8,5,6.6,6.4c3.1,1.6,6.3,2,9.7,0.9C211.2,98.5,211.7,106.4,213.7,114.3z M136.1,177.2c-0.6,0.8-1,1.2-1.4,1.7
		c-3.6,4.6-7.2,9.1-10.9,13.7c-0.6,0.8-0.7,1.3-0.1,2.1c4.8,7.1,8.9,14.7,11.8,22.8c0.3,0.8,0.5,1.6,0.9,2.5
		c3.8-9.3,7-18.6,13.8-26.2C145.5,188.4,140.9,182.9,136.1,177.2z M134.3,162c-0.6-0.6-1.2-1-1.7-1.6c-3.3-3.4-5.8-7.4-8.3-11.4
		c-10.5-17.2-19.3-35.2-28.2-53.2c-1.6-3.2-3.1-6.4-4.7-9.8c-1.2,2.3-2.3,4.4-3.5,6.5c-0.4,0.8-0.4,1.4,0,2.2
		c5.4,9.8,10.7,19.7,16.1,29.4c6.7,12,13.4,24.1,21.1,35.6c1.6,2.4,3.4,4.7,5.2,7.2C131.8,165.1,133,163.6,134.3,162z M62,90.5
		c0.2,0,0.3-0.1,0.5-0.1c6.1-0.2,10.4-3,13.3-8.4c0.4-0.8,0.5-1.4-0.2-2.1c-4.4-4.1-9.5-6.6-15.6-6.5c-3.7,0-7.7,2.7-7.8,7.5
		c0,3.1,0,6.3,0.4,9.4c0.9,7.5,3,14.8,5.2,22c0.4,1.3,0.9,2.6,1.4,3.9c0.2,0,0.3,0,0.5,0C60.4,107.7,61.2,99.2,62,90.5z
		 M111.7,196.3c-0.2,0.1-0.2,0.1-0.3,0.1c-0.2,0.3-0.4,0.6-0.6,0.9c-2.4,3.5-5,6.7-8.5,9.2c-3.5,2.5-7.4,3.9-11.7,3.1
		c-1.7-0.3-3.3-1-5-1.5c-0.6,1.4-1.3,2.8-2.1,4.4c-0.7-0.5-1.2-0.8-1.5-1c0.6-1.9,1.3-3.6,1.7-5.3c0.4-2-0.4-3.3-2.3-4.1
		c-2.2-0.9-4.5-1.1-6.7-0.5c-0.9,0.2-1.9,0.9-2.5,1.6c-1.3,1.7-1,6.5,0.7,7.9c2.3,2,4.6,4,7.2,5.5c4.6,2.7,9.6,3.6,14.6,1.5
		c8.3-3.4,14.7-9.1,19.7-16.4c0.2-0.3,0.3-0.7,0.2-0.9C113.7,199.2,112.7,197.7,111.7,196.3z M121.8,191.9
		c9.2-11.6,18.3-23.1,27.5-34.5c-1.3-1.9-2.5-3.8-3.8-5.7c-9.4,11.4-18.8,22.8-28.1,34.1C118.8,187.9,120.3,189.8,121.8,191.9z
		 M121.5,158.1c-3.6,6.4-9.3,10.6-15.3,14.5c3.3,3.8,6.6,7.6,9.9,11.5c4.4-5.3,8.7-10.6,12.9-15.7
		C126.5,164.9,124,161.5,121.5,158.1z M156.3,186c3-4.4,5.8-8.7,8.7-13.1c-6-3.3-10.3-8.4-14.5-13.9c-2.3,2.9-4.5,5.7-6.7,8.4
		c-0.5,0.6-0.6,1.1-0.1,1.7c1.5,1.9,2.9,3.8,4.3,5.8C150.8,178.7,153.6,182.4,156.3,186z M135.9,134.4c-2.8,5-5.5,10-8.3,15.1
		c-0.1,0.3-0.1,0.8,0.1,1.1c2.3,3.5,4.6,7.1,7.9,9.9c2.8-3.4,5.6-6.8,8.4-10.2c0.2-0.2,0.2-0.7,0-0.9
		C141.4,144.4,138.6,139.5,135.9,134.4z M177.4,147.2c3.1,4.9,7.8,6.9,13.7,5.5c5.5-1.3,10-4.6,14.4-8.1c0.2-0.2,0.4-0.6,0.3-0.9
		c-0.7-2.5-1.4-5-2.2-7.6c-0.6,0.8-1.1,1.5-1.6,2.2c-2.7,3.7-5.7,7.2-9.7,9.7c-2.9,1.8-6,2.8-9.4,1.8
		C180.8,149.1,179,148,177.4,147.2z"/>
	<path class="st0" d="M133.6,113.6c-2.3,0.3-3.6-1.1-5.2-2.4c0,0.9,0,1.6,0,2.3c-8.3-15.7-17.3-30.9-26.6-46.1
		c-0.3,0.4-0.6,0.6-0.8,1c-3.1,4.4-6.2,8.8-9.1,13.3c-2.2,3.2-3.9,6.7-5.7,10.2c-6.9,13.4-12,28.2-14.4,38.4
		c-0.4,1.7-0.9,3.3-1.3,5.1c-0.1-0.1-0.4-0.3-0.5-0.5c-2.9-4.6-5.7-9.2-8.6-13.8c-0.3-0.5-0.4-1.2-0.3-1.8
		c0.9-8.6,1.8-17.2,2.7-25.9c0-0.3,0.5-0.9,0.8-0.9c8.4-1.1,12.7-6.7,15-14.2c1.3-4,1.7-8.2,1.8-12.4c0-0.4,0-0.7,0.1-1
		c1.7-0.3,3.3-0.5,4.9-0.9c6.4-1.7,10.2-6.6,10.5-13.5c0.2-4.2-0.4-8.2-1.5-12.2c-0.1-0.5-0.3-0.9,0.4-1.2
		c6.4-3.1,12.7-6.2,19.4-9.4c-0.3,0.7-0.5,1.1-0.8,1.5c-3.4,6.3-5.3,13-5.2,20.2c0.2,7.7,2.9,14.3,7.6,20.3c2.8,3.5,6.1,6.6,9.8,9.1
		c1.1,0.8,1.4,1.6,1.3,2.8c-0.5,7.1-0.1,14.1,1.5,21.1c0.8,3.7,2.1,7.2,4.1,10.4C133.3,113.1,133.4,113.3,133.6,113.6z"/>
	<path class="st0" d="M249.3,149.3c-0.3,0.4-0.4,0.9-0.6,0.9c-3.7,1.3-6.5,3.9-9.2,6.7c-0.1,0.1-0.2,0.2-0.4,0.3
		c-2.4-1.9-5.1-2-7.8-1.1c-5.1,1.6-7.9,7.1-5.8,12.1c0.9,2.2,2.5,4.2,3.8,6.4c-0.4,0.3-1,0.8-1.5,1.3c-3.9,3.7-5.7,8.4-6.2,13.6
		c-0.3,2.7-0.1,5.5-0.1,8.2c0,0.8-0.1,1.2-0.9,1.6c-1.5,0.8-3,1.7-4.5,2.6c0-1.8,0-3.6,0-5.3c0.1-14-2.1-27.8-5.4-41.4
		c-5.1-21.1-12.4-41.4-21.2-61.2c-0.2-0.4-0.6-0.8-1-1.4c1.4-2.5,3.1-5.3,4.8-8.3c3.9,5.5,8.8,9,15.9,8.5c0.1,2.3,0.2,4.6,0.3,6.9
		c0.7,9.6,2.4,18.9,6.9,27.6c6.3,12,16,19.4,29.5,21.5C247,149.1,248,149.2,249.3,149.3z"/>
	<path class="st0" d="M186.2,25.3c4.5,0.5,7.3,4.4,8.1,10.9c2.9,0,5.9-0.3,8.3,1.3c-1.7,1.3-3.6,2.4-5.1,3.9
		c-4,3.9-4.2,9.1-2.7,13.8c0.1,0.4,0.5,0.7,0.8,1c4.9,4.1,10.8,3.5,14.7-1.6c1-1.3,1.8-2.8,2.8-4.2c1.7,1.2,1.7,3.6-0.1,8.9
		c3.1,1.6,5.9,3.7,8.4,6.2c6.8,6.6,10.6,14.7,10.8,24.2c0.2,14.6-3.8,28.1-10.9,40.7c-0.1,0.1-0.2,0.3-0.4,0.5
		c-3.1-4.4-5.1-9.3-6.5-14.1c0.4-0.5,0.8-0.9,1-1.3c2.8-5.3,4.4-11,5.6-16.9c1-5,1.8-10.1,2.6-15.2c0.4-2.4,0.1-4.7-0.7-7
		c-1.6-4.8-6.3-7.4-11.9-6.7c-5.8,0.7-10.7,3.2-15,7.1c-0.7,0.6-1.2,1.4-1.7,2.2c-6.8,11.8-13.6,23.5-20.3,35.3
		c-6,10.4-11.8,20.9-17.8,31.4c-0.1,0.2-0.2,0.4-0.5,0.8c-1.1-1.7-2.1-3.2-3-4.9c-0.1-0.3,0.1-0.8,0.3-1.2
		c6.6-12.9,13.3-25.7,19.8-38.6c5.5-11,11.1-22.1,15.3-33.7c4-10.8,4.9-21.9,2.3-33.2C189.8,31.5,188.3,28.3,186.2,25.3z"/>
	<path class="st0" d="M187.6,63.3c-0.4,1.3-0.6,2.5-1.1,3.8c-1.8,4.4-3.7,8.8-5.5,13.1c-0.1,0.2-0.2,0.3-0.4,0.7
		c-3.3-5.5-6.6-11-9.7-16.3c-14.1,28.2-29.7,55.6-44.8,83.5c-1.3-2.1-2.5-4.1-3.6-6.1c-0.1-0.2,0.1-0.7,0.3-1.1
		c2.8-6.2,5.2-12.5,6.6-19.2c0.4-2.1,0.7-4.3,1-6.5c0,0,0.2,0,0.3,0c3.1,1.1,5.6,0,7.5-2.4c2-2.5,3.1-5.5,3.8-8.6
		c1.5-6,2.1-12,2.4-18.2c0.1-2.2,0-4.3,0.1-6.5c0-0.4,0.4-1,0.8-1.3c5.3-3.7,9.8-8.1,13-13.7c5.4-9.1,6.1-18.8,2.8-28.8
		c-0.9-2.9-2.3-5.6-3.5-8.4c-0.1-0.3-0.3-0.7-0.6-1.4c7,3.4,13.7,6.6,20.5,9.8c-2.6,6.3-3.7,12.7-0.6,19.1c2.1,4.4,5.5,7.3,9.8,9.6
		C187,64.2,187.4,63.8,187.6,63.3C187.7,63.3,187.6,63.3,187.6,63.3z"/>
	<path class="st0" d="M71.3,40.3c2-0.9,4.1-1.1,6.4-0.7c0.7-7.9,3-11.4,7.5-11.9c-0.9,2.4-2.1,4.8-2.8,7.3
		c-1.9,6.7-1.9,13.5-1.6,20.3c0.1,2.3,0.3,4.7,0.5,7.2c-0.7,0-1.3,0.1-2.1,0.1c0.2,5.4-0.2,10.8-1.9,15.7c-2.4-1.5-4.8-3.2-7.4-4.6
		c-2.7-1.5-5.7-2.3-8.8-2.3C54.2,71.4,50.3,75.2,50,82c-0.2,5.9,0.8,11.6,2.1,17.3c1.5,6.5,3,13,5.8,19.1
		c4.9,10.6,11.5,20.1,19.5,28.6c2.2,2.4,5,4.2,8.3,4.8c3.7,0.7,6.9-0.4,9.7-2.7c0.3-0.2,0.6-0.5,0.9-0.8c0,0,0.1,0,0.4-0.1
		c-0.3,0.5-0.4,0.8-0.7,1.2c-3.2,4.6-7.9,6.3-13.8,5c-4.2-0.9-7.9-3.1-11.5-5.3c-15.9-10-25.3-24.4-28.4-42.9
		c-1.2-7-1.6-14.1-0.1-21.1c2-9.5,6.8-17.2,15.3-22.3c0.6-0.4,1.3-0.7,1.8-1c0.1-0.5,0.2-1,0.3-1.5c-2.2-2.9-2.5-5.2-1.1-7
		c1,1.6,1.8,3.3,3,4.8c2.4,3,5.7,4.1,9.4,3c1.7-0.5,3.5-1.3,5-2.3c1.8-1.2,2.2-3.4,2.2-5.4c0.2-4.3-2-7.5-4.7-10.5
		C72.7,41.9,72,41.1,71.3,40.3z"/>
	<path class="st0" d="M155.4,200.9c-8.9,12.3-13.2,26.3-16.6,40.8c-0.9,3.7-1.5,7.5-2.2,11.3c-0.1,0.3-0.1,0.6-0.2,0.9
		c-1.1-5-2.1-10-3.4-15c-4.5-17.4-11.7-33.6-22.7-48c-6.1-7.9-13.1-14.9-21.4-20.5c-0.2-0.1-0.3-0.2-0.6-0.5
		c11.3-4.1,20.5-10.9,28.4-19.8c1.2,1.9,2.3,3.6,3.3,5.5c0.2,0.3,0,0.8-0.2,1.2c-1.4,3.1-3.5,5.6-6.1,7.6c-3.1,2.5-6.4,4.8-9.6,7.1
		c-0.4,0.3-0.7,0.5-1.1,0.7c14.6,16,27.9,32.8,33,54.5c2.1-5.3,4.1-10.7,6.3-16c2.3-5.3,4.8-10.5,9-15
		C152.7,197.5,154,199.2,155.4,200.9z"/>
	<path class="st0" d="M45.2,178.1c1.3-2,2.8-3.9,3.8-5.9c1.7-3.3,1.4-6.6-1.1-9.5c-2.6-2.9-5.8-4.4-9.7-3.4c-1,0.3-1.9,0.9-2.7,1.2
		c-1.9-1.6-3.7-3.3-5.7-4.8c-1.1-0.8-2.5-1.3-3.8-2c-0.3-0.1-0.4-0.5-0.6-0.7c0.3-0.2,0.5-0.5,0.8-0.5c11.2-0.9,20.1-6.1,27.2-14.6
		c0.2-0.2,0.4-0.4,0.4-0.4c4.1,3.8,8.1,7.5,12.3,11.4c-4.8,18-8.6,36.6-7.7,55.9c-1.7-0.8-3.4-1.6-5-2.4c-0.3-0.1-0.4-0.8-0.4-1.2
		c-0.1-3.1,0.1-6.3-0.2-9.4C52.2,186.3,49.9,181.4,45.2,178.1z"/>
	<path class="st0" d="M142.7,121.9c6,22.8,18.5,39.7,41.2,48c-4.8,2.5-9,5.9-12.8,9.7c-3.8,3.8-7,8.1-10.1,12.8
		c-1.1-1.5-2.2-2.8-3.1-4.3c-0.1-0.2,0.1-0.8,0.3-1.2c2.9-4.4,5.8-8.7,8.7-13.1c0.4-0.6,0.8-1.1,1.2-1.6c-9.1-4.3-14.6-12-19.8-19.9
		c-4.1-6.2-7.5-12.7-10.7-19.4c-0.3-0.7-0.3-1.3,0.1-2C139.4,128.1,141,125.1,142.7,121.9z"/>
	<path class="st0" d="M137.2,175.8c1.5-1.8,3-3.7,4.6-5.8c1.5,2,3,4,4.4,5.9c4.2,5.6,8.3,11.1,12.5,16.7c2.3,3.1,4.3,6.3,6.7,9.2
		c3,3.6,6.7,6.4,11.4,7.5c3.5,0.8,6.9,0.2,10.1-1.5c0.7,1.5,1.4,3,2.2,4.6c0.7-0.5,1.2-0.8,1.5-1c-0.6-1.8-1.3-3.4-1.7-5.1
		c-0.5-2.1,0.5-3.6,2.5-4.3c2.1-0.8,4.2-0.9,6.4-0.5c2.3,0.4,3.5,2,3.5,4.6c-0.1,2.4-0.6,4.5-2.5,6.2c-4.2,3.7-8.8,6.5-14.6,6.9
		c-3.7,0.2-7-1.1-10.1-2.9c-6.6-3.7-11.8-8.9-16.2-15c-6.3-8.8-12.9-17.4-20.5-25.1C137.3,176,137.3,175.9,137.2,175.8z"/>
	<path class="st0" d="M134.3,162c-1.3,1.6-2.5,3.1-4,4.8c-1.8-2.5-3.6-4.8-5.2-7.2c-7.6-11.5-14.4-23.5-21.1-35.6
		c-5.4-9.8-10.7-19.6-16.1-29.4c-0.4-0.8-0.4-1.4,0-2.2c1.2-2.1,2.3-4.2,3.5-6.5c1.7,3.4,3.2,6.6,4.7,9.8
		c8.8,18,17.7,36.1,28.2,53.2c2.5,4,5,8,8.3,11.4C133.1,161,133.7,161.5,134.3,162z"/>
	<path class="st0" d="M111.7,196.3c1,1.4,2,2.9,2.9,4.4c0.1,0.2,0,0.7-0.2,0.9c-5,7.3-11.5,13-19.7,16.4c-5.1,2.1-10,1.2-14.6-1.5
		c-2.6-1.5-4.9-3.5-7.2-5.5c-1.6-1.4-2-6.2-0.7-7.9c0.6-0.8,1.6-1.4,2.5-1.6c2.2-0.6,4.5-0.4,6.7,0.5c1.9,0.8,2.7,2.1,2.3,4.1
		c-0.4,1.8-1.1,3.5-1.7,5.3c0.3,0.2,0.8,0.5,1.5,1c0.7-1.6,1.4-3,2.1-4.4c1.6,0.5,3.3,1.1,5,1.5c4.4,0.8,8.2-0.6,11.7-3.1
		c3.5-2.4,6.1-5.7,8.5-9.2c0.2-0.3,0.4-0.6,0.6-0.9C111.5,196.3,111.5,196.3,111.7,196.3z"/>
	<path class="st0" d="M121.8,191.9c-1.6-2.1-3-4.1-4.5-6.1c9.3-11.3,18.7-22.6,28.1-34.1c1.3,1.9,2.5,3.8,3.8,5.7
		C140.2,168.9,131,180.3,121.8,191.9z"/>
	<path class="st0" d="M177.4,147.2c1.7,0.8,3.5,1.9,5.5,2.5c3.3,1,6.5,0,9.4-1.8c4-2.5,7-6,9.7-9.7c0.5-0.7,1-1.3,1.6-2.2
		c0.8,2.7,1.5,5.1,2.2,7.6c0.1,0.3-0.1,0.7-0.3,0.9c-4.3,3.5-8.8,6.8-14.4,8.1C185.2,154.1,180.4,152.1,177.4,147.2z"/>
</g>
</svg>
